<?xml version="1.0" encoding="utf-8"?>
<!-- Generator: Adobe Illustrator 25.0.1, SVG Export Plug-In . SVG Version: 6.00 Build 0)  -->
<svg version="1.1" xmlns="http://www.w3.org/2000/svg" xmlns:xlink="http://www.w3.org/1999/xlink" x="0px" y="0px"
	 viewBox="0 0 34.15 35.97" style="enable-background:new 0 0 34.15 35.97;" xml:space="preserve">
<style type="text/css">
	.st0{fill:#FFFFFF;}
	.st1{fill:#EF251B;}
	.st2{clip-path:url(#SVGID_2_);}
	.st3{opacity:0.6;}
	.st4{fill:none;stroke:#FFFFFF;stroke-width:0.6;stroke-miterlimit:10;}
	.st5{clip-path:url(#SVGID_14_);}
	.st6{opacity:0.69;fill:#FFFFFF;}
	.st7{fill:none;stroke:#000000;stroke-width:0.6;stroke-miterlimit:10;}
	.st8{fill:#48B577;}
	.st9{fill:none;stroke:#000000;stroke-width:0.7126;stroke-miterlimit:10;}
	.st10{fill:none;stroke:#000000;stroke-width:1.081;stroke-linecap:round;stroke-linejoin:round;stroke-miterlimit:10;}
	.st11{opacity:0.76;fill:#FFFFFF;}
	.st12{fill:none;stroke:#000000;stroke-width:1.4614;stroke-linecap:round;stroke-linejoin:round;stroke-miterlimit:10;}
	.st13{fill:none;stroke:#FFFFFF;stroke-width:3.4909;stroke-linecap:round;stroke-linejoin:round;stroke-miterlimit:10;}
	.st14{fill:none;stroke:#000000;stroke-width:0.5;stroke-miterlimit:10;}
	.st15{fill:none;stroke:#FFFFFF;stroke-width:0.7126;stroke-miterlimit:10;}
	.st16{fill:#FFD400;}
	.st17{fill:#141A7F;}
	.st18{fill:#D80A00;}
	.st19{clip-path:url(#SVGID_54_);}
	.st20{fill:#FFFFFF;stroke:#48B577;stroke-width:0.9214;stroke-miterlimit:10;}
	.st21{opacity:0.76;fill:#FFFFFF;stroke:#48B577;stroke-miterlimit:10;}
	.st22{opacity:0.76;fill:none;stroke:#000000;stroke-width:0.8296;stroke-miterlimit:10;}
	.st23{fill:none;stroke:#EF251B;stroke-width:2.3908;stroke-miterlimit:10;}
	.st24{fill:#DBDBDB;}
	.st25{fill-rule:evenodd;clip-rule:evenodd;fill:#EF251B;}
	.st26{fill-rule:evenodd;clip-rule:evenodd;fill:#FFFFFF;}
	.st27{fill:none;stroke:#000000;stroke-width:0.418;stroke-miterlimit:10;}
	.st28{fill:none;stroke:#E62C23;stroke-width:1.0624;stroke-miterlimit:10;}
	.st29{fill:none;stroke:#000000;stroke-width:0.5312;stroke-miterlimit:10;}
	.st30{fill:none;stroke:#E62C23;stroke-width:1.1168;stroke-miterlimit:10;}
	.st31{display:none;}
	.st32{display:inline;}
	.st33{fill:none;stroke:#000000;stroke-width:0.4774;stroke-miterlimit:10;}
	.st34{fill:none;stroke:#000000;stroke-width:0.4623;stroke-miterlimit:10;}
</style>
<g id="Arte">
	<g>
		<path class="st1" d="M25.34,35.97c-0.22,0-0.44-0.15-0.58-0.4c-0.62-1.05-1.22-2.1-1.83-3.16l-0.85-1.47
			c-0.04-0.08-0.29-0.46-0.29-0.46c-0.07-0.12-0.2-0.19-0.34-0.19c-0.02,0-0.04,0-0.06,0c-0.16,0.02-0.28,0.14-0.33,0.29l-0.53,1.96
			l-0.12,0.48c-0.06,0.22-0.11,0.44-0.18,0.66c-0.09,0.3-0.32,0.5-0.58,0.5c-0.05,0-0.1-0.01-0.15-0.02
			c-0.17-0.05-0.3-0.14-0.37-0.27c-0.08-0.14-0.09-0.32-0.03-0.53l0.49-1.82c0.25-0.94,0.5-1.88,0.75-2.82
			c0.04-0.16,0.12-0.58-0.05-0.9c-0.72-1.27-1.45-2.54-2.2-3.83l-0.61-1.05c-0.06-0.11-0.18-0.19-0.31-0.2c-0.01,0-0.03,0-0.04,0
			c-0.12,0-0.23,0.05-0.3,0.14l-0.07,0.08c-0.06,0.06-0.13,0.13-0.18,0.23l-0.34,0.59c-0.76,1.32-1.53,2.64-2.28,3.97
			c-0.14,0.26-0.19,0.63-0.11,0.92c0.25,0.98,0.52,1.96,0.78,2.95l0.46,1.74c0.06,0.21,0.04,0.41-0.05,0.56
			c-0.07,0.12-0.2,0.21-0.35,0.25c-0.05,0.01-0.1,0.02-0.15,0.02c-0.27,0-0.5-0.2-0.58-0.51c-0.19-0.69-0.38-1.38-0.57-2.11l-0.27-1
			c-0.04-0.16-0.17-0.27-0.33-0.29c-0.02,0-0.04,0-0.05,0c-0.14,0-0.27,0.07-0.34,0.2l-0.28,0.48c-0.21,0.36-0.41,0.69-0.6,1.01
			l-2.08,3.6c-0.15,0.26-0.36,0.41-0.57,0.41c-0.09,0-0.18-0.03-0.27-0.07c-0.15-0.08-0.24-0.19-0.28-0.33
			C8.24,35.4,8.28,35.2,8.4,34.99c0.64-1.12,1.28-2.23,1.93-3.34l0.86-1.49c0.02-0.04,0.15-0.31,0.15-0.31
			c0.07-0.14,0.05-0.31-0.05-0.43c-0.08-0.09-0.19-0.15-0.31-0.15c-0.03,0-0.07,0-0.1,0.01l-3.13,0.83
			c-0.06,0.02-0.12,0.02-0.19,0.02c-0.29,0-0.52-0.17-0.59-0.43c-0.08-0.33,0.11-0.64,0.47-0.74c0.32-0.09,0.64-0.18,0.96-0.27
			c0.83-0.24,1.69-0.48,2.54-0.64c1.27-0.23,2.09-0.86,2.63-2.01c0.38-0.81,0.86-1.6,1.32-2.36c0.21-0.35,0.43-0.71,0.63-1.06
			c0.04-0.06,0.06-0.13,0.1-0.22l0.05-0.13c0.05-0.12,0.04-0.27-0.03-0.38c-0.07-0.11-0.2-0.18-0.33-0.18l-3.06,0
			c-0.79,0-1.58,0-2.38-0.01h0c-0.43,0-0.76,0.14-1.05,0.43c-0.62,0.63-1.24,1.25-1.86,1.88l-1.36,1.36
			c-0.26,0.26-0.42,0.36-0.6,0.36c-0.34-0.05-0.49-0.18-0.57-0.41c-0.08-0.22-0.04-0.4,0.12-0.56c0.41-0.42,0.83-0.84,1.25-1.26
			l0.68-0.68c0.07-0.07,0.38-0.4,0.38-0.4c0.11-0.11,0.14-0.28,0.08-0.42c-0.06-0.14-0.19-0.24-0.35-0.25l-0.22-0.01
			c-0.13-0.01-0.23-0.01-0.33-0.01l-5.22,0c-0.32,0-0.6-0.11-0.73-0.3c-0.1-0.14-0.11-0.31-0.05-0.49c0.07-0.19,0.18-0.39,0.71-0.39
			h20.1c4.13,0,8.26,0,12.39,0.01c0.27,0,0.53,0.06,0.69,0.16c0.2,0.13,0.25,0.34,0.14,0.62c-0.1,0.27-0.29,0.39-0.62,0.39l-5.78,0
			c-0.14,0-0.27,0.08-0.35,0.2c-0.09,0.16-0.15,0.51-0.01,0.64l1.58,1.49c0.19,0.18,0.38,0.37,0.56,0.57
			c0.13,0.13,0.49,0.57,0.12,0.94c-0.13,0.13-0.26,0.2-0.39,0.2c-0.17,0-0.36-0.11-0.57-0.31l-1.23-1.22c-0.7-0.7-1.4-1.41-2.12-2.1
			c-0.23-0.23-0.59-0.38-0.9-0.39c-1.19-0.02-2.38-0.02-3.57-0.02l-1.74,0c-0.09,0-0.16,0.02-0.22,0.04
			c-0.12,0.03-0.27,0.12-0.33,0.24c-0.05,0.12-0.09,0.26-0.03,0.37l0.46,0.82l0.49,0.86c0.59,1.02,1.17,2.05,1.78,3.06
			c0.17,0.28,0.47,0.52,0.76,0.61c1.3,0.37,2.61,0.72,3.92,1.07l0.67,0.18c0.45,0.12,0.57,0.28,0.61,0.49
			c0.05,0.24-0.03,0.4-0.11,0.49c-0.11,0.14-0.29,0.22-0.49,0.22c-0.07,0-0.14-0.01-0.21-0.03l-3.06-0.81
			c-0.03-0.01-0.07-0.01-0.1-0.01c-0.12,0-0.23,0.05-0.31,0.15c-0.1,0.12-0.12,0.29-0.05,0.43l0.12,0.24
			c0.07,0.15,0.14,0.28,0.2,0.4l2.58,4.47c0.1,0.18,0.3,0.63-0.13,0.9C25.53,35.94,25.44,35.97,25.34,35.97z"/>
		<path class="st1" d="M25.45,17.71c-0.56,0-0.74-0.18-0.76-0.76c-0.16-4.18-3.51-7.46-7.63-7.46c-0.39,0-0.79,0.03-1.19,0.09
			c-3.5,0.53-6.24,3.61-6.38,7.17c-0.03,0.85-0.15,0.97-0.99,0.97l-2.9,0c-1.6,0-3.19,0-4.79-0.01c-0.21,0-0.43-0.05-0.59-0.14
			c-0.19-0.1-0.29-0.39-0.21-0.65c0.09-0.29,0.34-0.44,0.75-0.44l7.08,0.01c0.18,0,0.34-0.12,0.39-0.3c0.05-0.22,0.1-0.43,0.14-0.64
			c0.09-0.43,0.18-0.84,0.33-1.2c0.34-0.8,0.75-1.62,1.24-2.41c0.3-0.49,0.25-0.85-0.15-1.24c-0.91-0.9-1.82-1.81-2.73-2.72L5.11,6
			C4.79,5.68,4.8,5.44,4.87,5.25c0.04-0.11,0.15-0.38,0.4-0.38C5.55,4.89,5.83,5,5.96,5.13c1.2,1.17,2.38,2.35,3.57,3.54l1.23,1.23
			c0.2,0.2,0.3,0.27,0.45,0.27c0.06,0,0.12-0.01,0.17-0.04l0.91-0.43c0.74-0.36,1.46-0.7,2.19-1.02c0.33-0.14,0.72-0.24,1.1-0.26
			c0.91-0.06,0.91-0.77,0.91-1.04c-0.01-1.48-0.01-2.97-0.01-4.45V0.65c0-0.28,0.1-0.45,0.33-0.56C16.92,0.03,17.03,0,17.13,0
			c0.11,0,0.2,0.04,0.27,0.11c0.15,0.16,0.26,0.42,0.26,0.61c0.03,1.99,0.03,4.1,0.01,6.63c-0.01,0.65,0.26,0.97,0.9,1.06
			c1.32,0.19,2.55,0.7,3.65,1.53c0.15,0.11,0.35,0.24,0.59,0.24c0.29,0,0.51-0.18,0.64-0.32c1.22-1.24,2.46-2.47,3.7-3.7l1.02-1.02
			c0.2-0.2,0.41-0.31,0.59-0.31c0.14,0,0.28,0.07,0.4,0.19c0.25,0.26,0.2,0.66-0.13,0.99l-4.82,4.81c-0.06,0.06-0.1,0.12-0.15,0.18
			c-0.1,0.13-0.16,0.38-0.08,0.52c0.11,0.17,0.22,0.34,0.33,0.51c0.24,0.35,0.46,0.69,0.6,1.04c0.31,0.76,0.58,1.59,0.86,2.63
			c0.1,0.39,0.3,0.79,0.97,0.79c1.25-0.01,2.48-0.01,3.71-0.01c0,0,2.62,0,2.62,0c0.2,0,0.34,0,0.47,0.01
			c0.35,0.02,0.57,0.21,0.59,0.53c0.03,0.36-0.15,0.6-0.5,0.68c-0.08,0.02-0.18,0.02-0.28,0.02l-3.75,0L25.45,17.71z"/>
	</g>
</g>
<g id="Guias" class="st31">
</g>
</svg>
