<?xml version="1.0" encoding="utf-8"?>
<!-- Generator: Adobe Illustrator 25.0.1, SVG Export Plug-In . SVG Version: 6.00 Build 0)  -->
<svg version="1.1" xmlns="http://www.w3.org/2000/svg" xmlns:xlink="http://www.w3.org/1999/xlink" x="0px" y="0px"
	 viewBox="0 0 31.53 27.66" style="enable-background:new 0 0 31.53 27.66;" xml:space="preserve">
<style type="text/css">
	.st0{fill:#FFFFFF;}
	.st1{fill:#EF251B;}
	.st2{clip-path:url(#SVGID_2_);}
	.st3{opacity:0.6;}
	.st4{fill:none;stroke:#FFFFFF;stroke-width:0.6;stroke-miterlimit:10;}
	.st5{clip-path:url(#SVGID_14_);}
	.st6{opacity:0.69;fill:#FFFFFF;}
	.st7{fill:none;stroke:#000000;stroke-width:0.6;stroke-miterlimit:10;}
	.st8{fill:#48B577;}
	.st9{fill:none;stroke:#000000;stroke-width:0.7126;stroke-miterlimit:10;}
	.st10{fill:none;stroke:#000000;stroke-width:1.081;stroke-linecap:round;stroke-linejoin:round;stroke-miterlimit:10;}
	.st11{opacity:0.76;fill:#FFFFFF;}
	.st12{fill:none;stroke:#000000;stroke-width:1.4614;stroke-linecap:round;stroke-linejoin:round;stroke-miterlimit:10;}
	.st13{fill:none;stroke:#FFFFFF;stroke-width:3.4909;stroke-linecap:round;stroke-linejoin:round;stroke-miterlimit:10;}
	.st14{fill:none;stroke:#000000;stroke-width:0.5;stroke-miterlimit:10;}
	.st15{fill:none;stroke:#FFFFFF;stroke-width:0.7126;stroke-miterlimit:10;}
	.st16{fill:#FFD400;}
	.st17{fill:#141A7F;}
	.st18{fill:#D80A00;}
	.st19{clip-path:url(#SVGID_54_);}
	.st20{fill:#FFFFFF;stroke:#48B577;stroke-width:0.9214;stroke-miterlimit:10;}
	.st21{opacity:0.76;fill:#FFFFFF;stroke:#48B577;stroke-miterlimit:10;}
	.st22{opacity:0.76;fill:none;stroke:#000000;stroke-width:0.8296;stroke-miterlimit:10;}
	.st23{fill:none;stroke:#EF251B;stroke-width:2.3908;stroke-miterlimit:10;}
	.st24{fill:#DBDBDB;}
	.st25{fill-rule:evenodd;clip-rule:evenodd;fill:#EF251B;}
	.st26{fill-rule:evenodd;clip-rule:evenodd;fill:#FFFFFF;}
	.st27{fill:none;stroke:#000000;stroke-width:0.418;stroke-miterlimit:10;}
	.st28{fill:none;stroke:#E62C23;stroke-width:1.0624;stroke-miterlimit:10;}
	.st29{fill:none;stroke:#000000;stroke-width:0.5312;stroke-miterlimit:10;}
	.st30{fill:none;stroke:#E62C23;stroke-width:1.1168;stroke-miterlimit:10;}
	.st31{display:none;}
	.st32{display:inline;}
	.st33{fill:none;stroke:#000000;stroke-width:0.4774;stroke-miterlimit:10;}
	.st34{fill:none;stroke:#000000;stroke-width:0.4623;stroke-miterlimit:10;}
</style>
<g id="Arte">
	<g>
		<path class="st1" d="M0,9.55c0.41-1.04,1.18-1.48,2.3-1.43c1.02,0.05,2.05-0.04,3.08,0.03c0.6,0.04,0.99-0.19,1.39-0.59
			c2.18-2.2,4.37-4.4,6.59-6.56c0.43-0.42,1-0.82,1.57-0.95c1.14-0.27,2.02,0.57,2.04,1.87c0.03,1.86,0.02,3.73,0.02,5.59
			c0,5.87-0.01,11.75,0,17.62c0,1-0.12,1.97-1.17,2.4c-1.02,0.41-1.77-0.18-2.46-0.88c-2.2-2.21-4.43-4.41-6.63-6.63
			c-0.37-0.37-0.73-0.56-1.28-0.54c-1.05,0.05-2.1-0.02-3.15,0.02c-1.12,0.05-1.88-0.39-2.3-1.43C0,15.24,0,12.4,0,9.55z
			 M15.77,13.83c0-3.73,0-7.46,0-11.19c0-0.3-0.03-0.6-0.08-0.9c-0.09-0.55-0.44-0.62-0.87-0.38c-0.2,0.11-0.37,0.28-0.53,0.44
			c-2.49,2.48-4.98,4.98-7.48,7.45c-0.38,0.38-0.52,0.77-0.52,1.3c0.02,2.19,0.02,4.38,0,6.57c-0.01,0.53,0.17,0.92,0.54,1.29
			c2.44,2.41,4.85,4.84,7.29,7.24c0.33,0.33,0.83,0.48,1.25,0.71c0.13-0.47,0.38-0.95,0.38-1.42
			C15.79,21.24,15.77,17.53,15.77,13.83z M5.08,18.21c0-2.95,0-5.83,0-8.78c-1.05,0-2.13-0.04-3.19,0.03
			C1.67,9.48,1.3,9.91,1.3,10.15c-0.04,2.45-0.04,4.9,0,7.34c0,0.24,0.37,0.67,0.6,0.68C2.96,18.25,4.03,18.21,5.08,18.21z"/>
		<path class="st1" d="M30.29,13.8c-0.15-4.38-2.09-7.74-5.91-10.01c-0.1-0.06-0.21-0.11-0.31-0.16c-0.38-0.21-0.58-0.52-0.37-0.92
			c0.22-0.4,0.62-0.43,0.97-0.18c1.14,0.83,2.41,1.56,3.37,2.57c5.69,5.97,4.21,15.71-2.95,19.79c-0.45,0.26-1.01,0.71-1.38,0.02
			c-0.35-0.64,0.32-0.84,0.75-1.1C28.21,21.55,30.13,18.22,30.29,13.8z"/>
		<path class="st1" d="M27.06,13.84c-0.07,3.28-1.48,5.84-4.21,7.67c-0.19,0.13-0.4,0.32-0.61,0.32c-0.26,0-0.62-0.1-0.75-0.29
			c-0.1-0.14,0.03-0.51,0.14-0.73c0.07-0.14,0.3-0.21,0.45-0.31c4.99-3.1,4.96-10.32-0.05-13.39c-0.1-0.06-0.25-0.1-0.29-0.18
			c-0.12-0.29-0.19-0.59-0.29-0.89c0.31-0.06,0.69-0.26,0.91-0.15C23.85,6.65,25,7.8,25.83,9.24C26.65,10.65,27.1,12.18,27.06,13.84
			z"/>
		<path class="st1" d="M22.67,13.87c-0.01,1.81-1.22,3.43-2.94,4c-0.44,0.15-0.81,0.14-0.98-0.33c-0.16-0.47,0.13-0.7,0.56-0.87
			c1.34-0.5,2.08-1.52,2.09-2.82c0.01-1.32-0.74-2.36-2.11-2.88c-0.43-0.17-0.71-0.42-0.54-0.88c0.18-0.46,0.56-0.45,0.99-0.3
			C21.5,10.37,22.68,12.02,22.67,13.87z"/>
	</g>
</g>
<g id="Guias" class="st31">
</g>
</svg>
