<?xml version="1.0" encoding="utf-8"?>
<!-- Generator: Adobe Illustrator 25.0.1, SVG Export Plug-In . SVG Version: 6.00 Build 0)  -->
<svg version="1.1" xmlns="http://www.w3.org/2000/svg" xmlns:xlink="http://www.w3.org/1999/xlink" x="0px" y="0px"
	 viewBox="0 0 34.12 33.99" style="enable-background:new 0 0 34.12 33.99;" xml:space="preserve">
<style type="text/css">
	.st0{fill:#FFFFFF;}
	.st1{fill:#EF251B;}
	.st2{clip-path:url(#SVGID_2_);}
	.st3{opacity:0.6;}
	.st4{fill:none;stroke:#FFFFFF;stroke-width:0.6;stroke-miterlimit:10;}
	.st5{clip-path:url(#SVGID_14_);}
	.st6{opacity:0.69;fill:#FFFFFF;}
	.st7{fill:none;stroke:#000000;stroke-width:0.6;stroke-miterlimit:10;}
	.st8{fill:#48B577;}
	.st9{fill:none;stroke:#000000;stroke-width:0.7126;stroke-miterlimit:10;}
	.st10{fill:none;stroke:#000000;stroke-width:1.081;stroke-linecap:round;stroke-linejoin:round;stroke-miterlimit:10;}
	.st11{opacity:0.76;fill:#FFFFFF;}
	.st12{fill:none;stroke:#000000;stroke-width:1.4614;stroke-linecap:round;stroke-linejoin:round;stroke-miterlimit:10;}
	.st13{fill:none;stroke:#FFFFFF;stroke-width:3.4909;stroke-linecap:round;stroke-linejoin:round;stroke-miterlimit:10;}
	.st14{fill:none;stroke:#000000;stroke-width:0.5;stroke-miterlimit:10;}
	.st15{fill:none;stroke:#FFFFFF;stroke-width:0.7126;stroke-miterlimit:10;}
	.st16{fill:#FFD400;}
	.st17{fill:#141A7F;}
	.st18{fill:#D80A00;}
	.st19{clip-path:url(#SVGID_54_);}
	.st20{fill:#FFFFFF;stroke:#48B577;stroke-width:0.9214;stroke-miterlimit:10;}
	.st21{opacity:0.76;fill:#FFFFFF;stroke:#48B577;stroke-miterlimit:10;}
	.st22{opacity:0.76;fill:none;stroke:#000000;stroke-width:0.8296;stroke-miterlimit:10;}
	.st23{fill:none;stroke:#EF251B;stroke-width:2.3908;stroke-miterlimit:10;}
	.st24{fill:#DBDBDB;}
	.st25{fill-rule:evenodd;clip-rule:evenodd;fill:#EF251B;}
	.st26{fill-rule:evenodd;clip-rule:evenodd;fill:#FFFFFF;}
	.st27{fill:none;stroke:#000000;stroke-width:0.418;stroke-miterlimit:10;}
	.st28{fill:none;stroke:#E62C23;stroke-width:1.0624;stroke-miterlimit:10;}
	.st29{fill:none;stroke:#000000;stroke-width:0.5312;stroke-miterlimit:10;}
	.st30{fill:none;stroke:#E62C23;stroke-width:1.1168;stroke-miterlimit:10;}
	.st31{display:none;}
	.st32{display:inline;}
	.st33{fill:none;stroke:#000000;stroke-width:0.4774;stroke-miterlimit:10;}
	.st34{fill:none;stroke:#000000;stroke-width:0.4623;stroke-miterlimit:10;}
</style>
<g id="Arte">
	<g>
		<path class="st1" d="M26.57,30.64c-4.14,0-8.18,0-12.13,0c-0.26,1.07-0.21,2.66-0.81,2.96c-1.08,0.54-2.54,0.38-3.84,0.36
			c-1.37-0.02-1.33-1.05-1.19-2.51c0.61,0.5,1,0.83,1.6,1.33c0.68,0,1.7,0,2.79,0c0-0.71,0-1.35,0-2.2c-1.15,0-2.31,0.01-3.48,0
			c-1.85-0.03-2.66-0.84-2.69-2.68c-0.02-1.27-0.02-2.55,0-3.82c0.02-1.09,0.58-1.8,1.52-2.36c0.53-0.32,1.05-0.86,1.27-1.42
			c0.67-1.71,1.21-3.46,1.76-5.22c0.44-1.4,1.3-2.07,2.81-2.06c4.15,0.04,8.3,0.04,12.45,0c1.51-0.02,2.38,0.66,2.81,2.06
			c0.4,1.3,0.83,2.6,1.28,3.89c0.43,1.24,0.53,2.74,2.23,3.06c0.04,0.01,0.07,0.06,0.11,0.09c1.32,1.08,1.48,6.92,0.07,7.9
			c-0.85,0.59-0.84,1.23-0.84,2.03c0,1.72-0.23,1.94-1.97,1.95c-0.09,0-0.19,0-0.28,0C26.04,34.04,26.76,33.94,26.57,30.64z
			 M20.43,29.46c3.59,0,7.17-0.02,10.76,0.01c1.2,0.01,1.73-0.49,1.69-1.69c-0.04-1.13-0.02-2.26-0.01-3.4
			c0.01-1.17-0.56-1.72-1.73-1.72c-7.17,0.01-14.35,0.01-21.52,0c-1.19,0-1.7,0.62-1.68,1.77c0.02,1.04,0,2.08,0,3.11
			c0.01,1.66,0.24,1.91,1.87,1.91C13.35,29.46,16.89,29.46,20.43,29.46z M30.36,21.49c-0.51-1.54-0.92-2.94-1.46-4.28
			c-0.14-0.35-0.7-0.75-1.08-0.75c-4.95-0.05-9.9-0.04-14.85-0.01c-0.34,0-0.89,0.24-0.99,0.5c-0.56,1.46-1.01,2.97-1.52,4.54
			C17.16,21.49,23.66,21.49,30.36,21.49z M12.55,14.83c0.08,0.13,0.15,0.26,0.23,0.39c5.11,0,10.22,0,15.33,0
			c0.05-0.13,0.11-0.25,0.16-0.38c-0.48-0.22-0.95-0.64-1.43-0.64c-4.29-0.05-8.58-0.05-12.86,0C13.5,14.2,13.02,14.61,12.55,14.83z
			 M27.79,32.77c1.17,0,2.22,0,3.28,0c0-0.76,0-1.43,0-2.08c-1.15,0-2.2,0-3.28,0C27.79,31.41,27.79,32.02,27.79,32.77z"/>
		<path class="st1" d="M8.28,19.26c-1.98,0-3.96,0.04-5.94-0.01c-1.42-0.04-2.31-0.9-2.32-2.32c-0.03-4.86-0.03-9.72,0-14.58
			c0.01-1.43,0.89-2.31,2.31-2.32c4.86-0.04,9.72-0.03,14.58,0c1.42,0.01,2.31,0.89,2.33,2.31c0.05,3.11,0.01,6.22,0.01,9.31
			c-0.98,0.6-1.14,0.12-1.13-0.73c0.02-2.64-0.03-5.28,0.02-7.92c0.03-1.31-0.43-1.88-1.8-1.87c-4.48,0.05-8.97,0.04-13.45,0
			C1.63,1.12,1.12,1.6,1.13,2.88c0.04,4.53,0.03,9.06,0,13.59c-0.01,1.22,0.52,1.7,1.71,1.67c1.6-0.04,3.21-0.05,4.81,0.02
			c0.34,0.01,0.65,0.43,0.98,0.66C8.51,18.97,8.4,19.11,8.28,19.26z"/>
		<path class="st1" d="M7.94,12.47c0,1.27,0.08,2.4-0.05,3.5c-0.04,0.37-0.61,0.69-0.94,1.03C6.93,17.02,6.86,17,6.81,17
			c-4.17-0.06-3.34,0.56-3.4-3.26C3.37,10.35,3.43,6.96,3.39,3.57c-0.01-0.97,0.3-1.34,1.3-1.31c2.02,0.06,4.05-0.01,6.07,0.03
			c2.92,0.06,5.12,2.29,5.11,5.12c-0.02,2.82-2.22,5-5.17,5.06C9.85,12.48,9.01,12.47,7.94,12.47z M6.81,15.81
			c0-1.1,0.07-2.09-0.02-3.07c-0.1-1.16,0.39-1.5,1.47-1.42c0.94,0.07,1.89,0.06,2.82-0.02c2.04-0.17,3.59-1.84,3.64-3.83
			c0.05-1.99-1.43-3.85-3.44-3.99c-2.19-0.15-4.4-0.03-6.67-0.03c0,4.17,0,8.24,0,12.36C5.33,15.81,5.98,15.81,6.81,15.81z"/>
		<path class="st1" d="M25.86,25.45c-3.63,0-7.25,0-10.94,0c-0.33-0.68-0.33-1.11,0.64-1.1c3.21,0.02,6.42-0.01,9.62,0.04
			c0.34,0.01,0.67,0.41,1,0.63C26.08,25.17,25.97,25.31,25.86,25.45z"/>
		<path class="st1" d="M14.96,26.65c3.63,0,7.25,0,10.94,0c0.31,0.73,0.23,1.12-0.69,1.11c-3.21-0.02-6.42,0.01-9.62-0.04
			c-0.33-0.01-0.65-0.43-0.97-0.65C14.74,26.93,14.85,26.79,14.96,26.65z"/>
		<path class="st1" d="M13.59,26.12c-0.03,1.21-1.07,2.21-2.29,2.19c-1.22-0.02-2.22-1.03-2.23-2.25c0-1.27,1.09-2.32,2.35-2.26
			C12.65,23.86,13.63,24.91,13.59,26.12z M12.94,26.12c-0.72-0.56-1.16-1.16-1.5-1.1c-0.45,0.07-1.02,0.6-1.14,1.04
			c-0.08,0.26,0.58,1.02,0.95,1.04C11.68,27.12,12.15,26.61,12.94,26.12z"/>
		<path class="st1" d="M31.72,26.06c0,1.21-1.01,2.23-2.23,2.25c-1.21,0.02-2.25-0.97-2.29-2.19c-0.04-1.27,1.02-2.35,2.29-2.32
			C30.72,23.83,31.72,24.84,31.72,26.06z M29.5,27.66c0.5-0.78,1.03-1.24,1.01-1.68c-0.02-0.36-0.77-1.04-1.02-0.97
			c-0.45,0.12-0.98,0.68-1.06,1.12C28.36,26.48,28.95,26.93,29.5,27.66z"/>
		<path class="st1" d="M9.28,5.68c0.52,0,1.04-0.04,1.56,0.01c0.98,0.1,1.58,0.66,1.61,1.64c0.02,0.99-0.57,1.62-1.54,1.7
			C9.82,9.12,8.73,9.12,7.65,9.02C7.35,9,6.89,8.51,6.84,8.18C6.48,5.82,6.66,5.67,9.28,5.68z M7.79,6.82
			c0.21,0.5,0.31,1.04,0.46,1.05C9.12,7.94,10,7.91,10.88,7.86c0.14-0.01,0.41-0.42,0.38-0.46c-0.17-0.23-0.4-0.54-0.64-0.56
			C9.8,6.77,8.97,6.82,7.79,6.82z"/>
	</g>
</g>
<g id="Guias" class="st31">
</g>
</svg>
