<?xml version="1.0" encoding="utf-8"?>
<!-- Generator: Adobe Illustrator 25.0.1, SVG Export Plug-In . SVG Version: 6.00 Build 0)  -->
<svg version="1.1" xmlns="http://www.w3.org/2000/svg" xmlns:xlink="http://www.w3.org/1999/xlink" x="0px" y="0px"
	 viewBox="0 0 31.31 19.16" style="enable-background:new 0 0 31.31 19.16;" xml:space="preserve">
<style type="text/css">
	.st0{fill:#FFFFFF;}
	.st1{fill:#EF251B;}
	.st2{clip-path:url(#SVGID_2_);}
	.st3{opacity:0.6;}
	.st4{fill:none;stroke:#FFFFFF;stroke-width:0.6;stroke-miterlimit:10;}
	.st5{clip-path:url(#SVGID_14_);}
	.st6{opacity:0.69;fill:#FFFFFF;}
	.st7{fill:none;stroke:#000000;stroke-width:0.6;stroke-miterlimit:10;}
	.st8{fill:#48B577;}
	.st9{fill:none;stroke:#000000;stroke-width:0.7126;stroke-miterlimit:10;}
	.st10{fill:none;stroke:#000000;stroke-width:1.081;stroke-linecap:round;stroke-linejoin:round;stroke-miterlimit:10;}
	.st11{opacity:0.76;fill:#FFFFFF;}
	.st12{fill:none;stroke:#000000;stroke-width:1.4614;stroke-linecap:round;stroke-linejoin:round;stroke-miterlimit:10;}
	.st13{fill:none;stroke:#FFFFFF;stroke-width:3.4909;stroke-linecap:round;stroke-linejoin:round;stroke-miterlimit:10;}
	.st14{fill:none;stroke:#000000;stroke-width:0.5;stroke-miterlimit:10;}
	.st15{fill:none;stroke:#FFFFFF;stroke-width:0.7126;stroke-miterlimit:10;}
	.st16{fill:#FFD400;}
	.st17{fill:#141A7F;}
	.st18{fill:#D80A00;}
	.st19{clip-path:url(#SVGID_54_);}
	.st20{fill:#FFFFFF;stroke:#48B577;stroke-width:0.9214;stroke-miterlimit:10;}
	.st21{opacity:0.76;fill:#FFFFFF;stroke:#48B577;stroke-miterlimit:10;}
	.st22{opacity:0.76;fill:none;stroke:#000000;stroke-width:0.8296;stroke-miterlimit:10;}
	.st23{fill:none;stroke:#EF251B;stroke-width:2.3908;stroke-miterlimit:10;}
	.st24{fill:#DBDBDB;}
	.st25{fill-rule:evenodd;clip-rule:evenodd;fill:#EF251B;}
	.st26{fill-rule:evenodd;clip-rule:evenodd;fill:#FFFFFF;}
	.st27{fill:none;stroke:#000000;stroke-width:0.418;stroke-miterlimit:10;}
	.st28{fill:none;stroke:#E62C23;stroke-width:1.0624;stroke-miterlimit:10;}
	.st29{fill:none;stroke:#000000;stroke-width:0.5312;stroke-miterlimit:10;}
	.st30{fill:none;stroke:#E62C23;stroke-width:1.1168;stroke-miterlimit:10;}
	.st31{display:none;}
	.st32{display:inline;}
	.st33{fill:none;stroke:#000000;stroke-width:0.4774;stroke-miterlimit:10;}
	.st34{fill:none;stroke:#000000;stroke-width:0.4623;stroke-miterlimit:10;}
</style>
<g id="Arte">
	<g>
		<path class="st1" d="M4.06,2.26C3.64,2,3.26,1.87,3.05,1.61C2.69,1.14,2.26,0.79,1.74,1.13c-0.32,0.2-0.59,0.71-0.61,1.09
			C1.09,2.86,1.63,3.08,2.21,3.09C5.14,3.1,8.08,3.1,11.01,3.1c5.84,0,11.67,0,17.51-0.01c0.15,0,0.31,0,0.46,0
			c0.61,0,1.2-0.15,1.2-0.85c0-0.38-0.27-0.9-0.59-1.1c-0.57-0.36-1,0.03-1.37,0.53c-0.18,0.24-0.57,0.33-0.94,0.54
			c-0.07-1.27,0.56-2.04,1.59-2.18c1.19-0.16,2.13,0.49,2.4,1.67c0.25,1.1-0.43,2-2.11,2.57c0.29,1.19,0.5,2.44,0.91,3.61
			c0.87,2.48,0.84,4.81-0.32,7.24c-0.56,1.16-0.52,2.61-0.77,4.04c-8.8,0-17.77,0-26.73,0c-0.04-0.05-0.11-0.1-0.1-0.14
			c0.16-1.99-0.39-3.82-1.21-5.61C0.22,11.85,0.57,10.26,1,8.7c0.4-1.45,0.78-2.9,1.16-4.31C0.2,3.39-0.27,2.68,0.13,1.45
			c0.35-1.06,1.26-1.6,2.38-1.42C3.48,0.2,4.07,0.93,4.06,2.26z M12.9,4.19c-0.21,4.03-0.62,7.98,0.05,11.9c0.75,0,1.45,0,2.14,0
			c0-4.01,0-7.94,0-11.9C14.35,4.19,13.68,4.19,12.9,4.19z M18.37,16.13c0.63-4.04,0.29-7.98,0.03-11.9c-0.8,0-1.49,0-2.17,0
			c0,4,0,7.93,0,11.9C16.97,16.13,17.64,16.13,18.37,16.13z M19.65,4.19c0,4.02,0,7.94,0,11.96c0.4,0,0.89-0.04,1.37,0.01
			c0.58,0.06,0.69-0.25,0.82-0.73c1.02-3.77,0.24-7.49-0.2-11.25C20.9,4.19,20.23,4.19,19.65,4.19z M9.67,4.2
			c-0.44,4-1.39,7.94,0.08,11.89c0.66,0,1.35,0,1.91,0c0-4,0-7.92,0-11.89C11.1,4.2,10.43,4.2,9.67,4.2z M8.7,16.13
			c-1.46-4.02-0.46-7.95-0.1-11.92c-0.8,0-1.49,0-2.16,0C6.17,5.68,6.05,7.14,5.63,8.5c-0.83,2.69-0.03,5.13,0.79,7.63
			C7.1,16.13,7.74,16.13,8.7,16.13z M22.71,4.2c0.23,2.07,0.59,4.02,0.62,5.98c0.03,1.97-0.26,3.94-0.41,5.94c0.65,0,1.32,0,1.97,0
			c1.47-4.2,1.45-6.76-0.05-11.92C24.18,4.2,23.51,4.2,22.71,4.2z M4.99,16.15c-0.24-2.03-0.72-4-0.65-5.96
			c0.07-1.99,0.67-3.96,1.05-6c-0.84,0-1.51,0-2.14,0C2.91,5.6,2.67,7,2.21,8.32c-0.77,2.21-0.76,4.28,0.35,6.4
			c0.81,1.53,0.7,1.59,2.49,1.38C5.08,16.1,5.11,16.08,4.99,16.15z M26.31,16.1c1.73,0.22,1.73,0.22,2.41-1.4
			c0.21-0.51,0.53-1,0.62-1.53c0.16-0.95,0.39-1.97,0.22-2.88c-0.39-2.04-1.01-4.04-1.54-6.05c-0.63,0-1.32,0-2.11,0
			c0.39,2.05,0.99,4.01,1.06,5.98C27.03,12.16,26.55,14.13,26.31,16.1z M3.17,18.18c8.37,0,16.66,0,25,0
			c-0.02-0.35-0.04-0.65-0.06-0.95c-8.35,0-16.63,0-24.94,0C3.17,17.57,3.17,17.84,3.17,18.18z"/>
	</g>
</g>
<g id="Guias" class="st31">
</g>
</svg>
