<?xml version="1.0" encoding="utf-8"?>
<!-- Generator: Adobe Illustrator 25.0.1, SVG Export Plug-In . SVG Version: 6.00 Build 0)  -->
<svg version="1.1" xmlns="http://www.w3.org/2000/svg" xmlns:xlink="http://www.w3.org/1999/xlink" x="0px" y="0px"
	 viewBox="0 0 45.03 39.78" style="enable-background:new 0 0 45.03 39.78;" xml:space="preserve">
<style type="text/css">
	.st0{fill:#FFFFFF;}
	.st1{fill:#EF251B;}
	.st2{clip-path:url(#SVGID_2_);}
	.st3{opacity:0.6;}
	.st4{fill:none;stroke:#FFFFFF;stroke-width:0.6;stroke-miterlimit:10;}
	.st5{clip-path:url(#SVGID_14_);}
	.st6{opacity:0.69;fill:#FFFFFF;}
	.st7{fill:none;stroke:#000000;stroke-width:0.6;stroke-miterlimit:10;}
	.st8{fill:#48B577;}
	.st9{fill:none;stroke:#000000;stroke-width:0.7126;stroke-miterlimit:10;}
	.st10{fill:none;stroke:#000000;stroke-width:1.081;stroke-linecap:round;stroke-linejoin:round;stroke-miterlimit:10;}
	.st11{opacity:0.76;fill:#FFFFFF;}
	.st12{fill:none;stroke:#000000;stroke-width:1.4614;stroke-linecap:round;stroke-linejoin:round;stroke-miterlimit:10;}
	.st13{fill:none;stroke:#FFFFFF;stroke-width:3.4909;stroke-linecap:round;stroke-linejoin:round;stroke-miterlimit:10;}
	.st14{fill:none;stroke:#000000;stroke-width:0.5;stroke-miterlimit:10;}
	.st15{fill:none;stroke:#FFFFFF;stroke-width:0.7126;stroke-miterlimit:10;}
	.st16{fill:#FFD400;}
	.st17{fill:#141A7F;}
	.st18{fill:#D80A00;}
	.st19{clip-path:url(#SVGID_54_);}
	.st20{fill:#FFFFFF;stroke:#48B577;stroke-width:0.9214;stroke-miterlimit:10;}
	.st21{opacity:0.76;fill:#FFFFFF;stroke:#48B577;stroke-miterlimit:10;}
	.st22{opacity:0.76;fill:none;stroke:#000000;stroke-width:0.8296;stroke-miterlimit:10;}
	.st23{fill:none;stroke:#EF251B;stroke-width:2.3908;stroke-miterlimit:10;}
	.st24{fill:#DBDBDB;}
	.st25{fill-rule:evenodd;clip-rule:evenodd;fill:#EF251B;}
	.st26{fill-rule:evenodd;clip-rule:evenodd;fill:#FFFFFF;}
	.st27{fill:none;stroke:#000000;stroke-width:0.418;stroke-miterlimit:10;}
	.st28{fill:none;stroke:#E62C23;stroke-width:1.0624;stroke-miterlimit:10;}
	.st29{fill:none;stroke:#000000;stroke-width:0.5312;stroke-miterlimit:10;}
	.st30{fill:none;stroke:#E62C23;stroke-width:1.1168;stroke-miterlimit:10;}
	.st31{display:none;}
	.st32{display:inline;}
	.st33{fill:none;stroke:#000000;stroke-width:0.4774;stroke-miterlimit:10;}
	.st34{fill:none;stroke:#000000;stroke-width:0.4623;stroke-miterlimit:10;}
</style>
<g id="Arte">
	<g>
		<g>
			<path class="st1" d="M11.84,25.52c0,0.4,0,0.72,0,1.03c0,3.88,0,7.77,0,11.65c0,1.09-0.32,1.41-1.38,1.42
				c-2.05,0.01-4.1,0.01-6.15,0c-1.06,0-1.41-0.34-1.41-1.4c-0.01-3.91,0-7.82,0-11.73c0-0.29,0-0.58,0-0.97
				c-0.51,0-0.94,0.02-1.36-0.01c-0.79-0.06-1.37-0.45-1.44-1.26C0.01,23.13,0,22,0,20.87c0-1.96,0.03-3.93,0.04-5.89
				c0.02-3.02,1.89-4.91,4.89-4.91c1.7,0,3.4-0.01,5.1,0c2.7,0.02,4.65,1.94,4.67,4.64c0.02,2.96,0.03,5.93-0.01,8.89
				c-0.02,1.49-0.49,1.91-1.96,1.92C12.47,25.52,12.21,25.52,11.84,25.52z M1.4,24.16c3.91,0,7.71,0.01,11.51-0.02
				c0.16,0,0.45-0.36,0.45-0.56c0.03-3.02,0.06-6.04-0.01-9.06c-0.04-1.85-1.41-3.08-3.27-3.11c-1.81-0.02-3.61-0.03-5.42,0
				c-1.94,0.03-3.25,1.35-3.26,3.28C1.39,17.81,1.4,20.93,1.4,24.16z M10.46,38.23c0-4.25,0-8.44,0-12.65c-2.09,0-4.12,0-6.19,0
				c0,4.24,0,8.42,0,12.65c0.81,0,1.58,0,2.42,0c0-0.38,0-0.7,0-1.02c0-2.48,0-4.96,0-7.43c0-0.52-0.04-1.13,0.71-1.11
				c0.69,0.02,0.65,0.59,0.65,1.08c0,2.53,0,5.06,0,7.6c0,0.29,0,0.57,0,0.88C8.92,38.23,9.69,38.23,10.46,38.23z"/>
			<path class="st1" d="M39.5,28.52c0,0.4,0,0.69,0,0.98c0,2.83,0,5.66,0,8.5c0,1.29-0.35,1.62-1.64,1.63c-1.32,0-2.64,0.01-3.96,0
				c-1.07-0.01-1.46-0.39-1.46-1.46c-0.01-2.89,0-5.77,0-8.66c0-0.29,0-0.58,0-0.98c-1.4,0-2.71,0-4.02,0
				c-1.48,0-1.78-0.41-1.31-1.83c1.45-4.4,2.91-8.79,4.37-13.18c0.72-2.17,2.38-3.43,4.48-3.44c2.08-0.01,3.77,1.28,4.49,3.43
				c1.48,4.44,2.95,8.89,4.43,13.33c0.4,1.2,0.06,1.68-1.19,1.69C42.34,28.52,40.99,28.52,39.5,28.52z M43.53,27.15
				c-0.1-0.34-0.17-0.62-0.27-0.89c-0.58-1.71-1.17-3.41-1.74-5.12c-0.8-2.43-1.59-4.86-2.38-7.3c-0.29-0.89-0.8-1.58-1.62-2.03
				c-1.85-1.01-4.04-0.1-4.74,2c-1.42,4.23-2.81,8.48-4.22,12.72c-0.06,0.19-0.09,0.39-0.14,0.62
				C33.48,27.15,38.46,27.15,43.53,27.15z M38.11,38.25c0-3.26,0-6.45,0-9.69c-0.49,0-0.93,0-1.41,0c0,3.25,0,6.45,0,9.69
				C37.19,38.25,37.61,38.25,38.11,38.25z M33.82,28.55c0,3.27,0,6.46,0,9.67c0.5,0,0.95,0,1.4,0c0-3.25,0-6.44,0-9.67
				C34.73,28.55,34.31,28.55,33.82,28.55z"/>
			<path class="st1" d="M36.01,9.26c-2.45,0.02-4.38-1.88-4.39-4.32c-0.02-2.42,1.93-4.39,4.34-4.39c2.38,0,4.33,1.92,4.37,4.29
				C40.37,7.25,38.43,9.24,36.01,9.26z M38.97,4.94c0.01-1.68-1.33-3.04-3-3.05c-1.64-0.01-2.99,1.31-3.03,2.94
				c-0.04,1.67,1.3,3.06,2.96,3.09C37.58,7.96,38.96,6.61,38.97,4.94z"/>
			<path class="st1" d="M7.36,9.26C4.93,9.25,3,7.31,3.03,4.88c0.02-2.42,2-4.36,4.41-4.33c2.37,0.03,4.3,1.98,4.31,4.36
				C11.75,7.32,9.79,9.26,7.36,9.26z M10.38,4.94c0.01-1.7-1.31-3.04-2.99-3.05c-1.67,0-3.04,1.36-3.03,3.02
				c0,1.63,1.34,2.98,2.97,3.01C8.99,7.96,10.37,6.61,10.38,4.94z"/>
		</g>
		<path class="st1" d="M21.82,39.78L21.82,39.78c-0.3,0-0.54-0.25-0.54-0.54V0.54c0-0.3,0.25-0.54,0.54-0.54l0,0
			c0.3,0,0.54,0.25,0.54,0.54v38.69C22.37,39.53,22.12,39.78,21.82,39.78z"/>
	</g>
</g>
<g id="Guias" class="st31">
</g>
</svg>
