<?xml version="1.0" encoding="utf-8"?>
<!-- Generator: Adobe Illustrator 25.0.1, SVG Export Plug-In . SVG Version: 6.00 Build 0)  -->
<svg version="1.1" xmlns="http://www.w3.org/2000/svg" xmlns:xlink="http://www.w3.org/1999/xlink" x="0px" y="0px"
	 viewBox="0 0 30.49 30.48" style="enable-background:new 0 0 30.49 30.48;" xml:space="preserve">
<style type="text/css">
	.st0{fill:#FFFFFF;}
	.st1{fill:#EF251B;}
	.st2{clip-path:url(#SVGID_2_);}
	.st3{opacity:0.6;}
	.st4{fill:none;stroke:#FFFFFF;stroke-width:0.6;stroke-miterlimit:10;}
	.st5{clip-path:url(#SVGID_14_);}
	.st6{opacity:0.69;fill:#FFFFFF;}
	.st7{fill:none;stroke:#000000;stroke-width:0.6;stroke-miterlimit:10;}
	.st8{fill:#48B577;}
	.st9{fill:none;stroke:#000000;stroke-width:0.7126;stroke-miterlimit:10;}
	.st10{fill:none;stroke:#000000;stroke-width:1.081;stroke-linecap:round;stroke-linejoin:round;stroke-miterlimit:10;}
	.st11{opacity:0.76;fill:#FFFFFF;}
	.st12{fill:none;stroke:#000000;stroke-width:1.4614;stroke-linecap:round;stroke-linejoin:round;stroke-miterlimit:10;}
	.st13{fill:none;stroke:#FFFFFF;stroke-width:3.4909;stroke-linecap:round;stroke-linejoin:round;stroke-miterlimit:10;}
	.st14{fill:none;stroke:#000000;stroke-width:0.5;stroke-miterlimit:10;}
	.st15{fill:none;stroke:#FFFFFF;stroke-width:0.7126;stroke-miterlimit:10;}
	.st16{fill:#FFD400;}
	.st17{fill:#141A7F;}
	.st18{fill:#D80A00;}
	.st19{clip-path:url(#SVGID_54_);}
	.st20{fill:#FFFFFF;stroke:#48B577;stroke-width:0.9214;stroke-miterlimit:10;}
	.st21{opacity:0.76;fill:#FFFFFF;stroke:#48B577;stroke-miterlimit:10;}
	.st22{opacity:0.76;fill:none;stroke:#000000;stroke-width:0.8296;stroke-miterlimit:10;}
	.st23{fill:none;stroke:#EF251B;stroke-width:2.3908;stroke-miterlimit:10;}
	.st24{fill:#DBDBDB;}
	.st25{fill-rule:evenodd;clip-rule:evenodd;fill:#EF251B;}
	.st26{fill-rule:evenodd;clip-rule:evenodd;fill:#FFFFFF;}
	.st27{fill:none;stroke:#000000;stroke-width:0.418;stroke-miterlimit:10;}
	.st28{fill:none;stroke:#E62C23;stroke-width:1.0624;stroke-miterlimit:10;}
	.st29{fill:none;stroke:#000000;stroke-width:0.5312;stroke-miterlimit:10;}
	.st30{fill:none;stroke:#E62C23;stroke-width:1.1168;stroke-miterlimit:10;}
	.st31{display:none;}
	.st32{display:inline;}
	.st33{fill:none;stroke:#000000;stroke-width:0.4774;stroke-miterlimit:10;}
	.st34{fill:none;stroke:#000000;stroke-width:0.4623;stroke-miterlimit:10;}
</style>
<g id="Arte">
	<g>
		<path class="st1" d="M30.49,14.7c-0.01,0-0.02,0.01-0.03,0.01c-0.27,0.49-0.59,0.7-0.99,0.63c-0.44-0.07-0.7-0.37-0.78-0.93
			c-0.57,0-1.14,0-1.74,0c-0.38,2.8-1.75,4.95-4.25,6.34c0.41,1.21,0.82,2.42,1.22,3.63c0.55,1.62,1.09,3.25,1.63,4.87
			c0.14,0.43-0.01,0.84-0.36,1.07c-0.34,0.21-0.79,0.19-1.07-0.1c-0.13-0.14-0.23-0.32-0.29-0.51c-0.33-0.93-0.64-1.88-0.95-2.81
			c-0.03-0.07-0.05-0.15-0.08-0.23c-5.02,0-10.04,0-15.09,0c-0.16,0.48-0.32,0.96-0.49,1.45c-0.2,0.59-0.39,1.19-0.6,1.77
			c-0.17,0.45-0.62,0.67-1.06,0.55c-0.43-0.12-0.72-0.53-0.66-0.97c0.02-0.12,0.06-0.23,0.1-0.34c0.9-2.69,1.81-5.39,2.71-8.08
			c0.03-0.09,0.06-0.19,0.09-0.3c-1.2-0.63-2.17-1.5-2.91-2.62c-0.74-1.12-1.18-2.35-1.32-3.7c-0.58,0-1.15,0-1.75,0
			c-0.02,0.1-0.04,0.21-0.08,0.32C1.6,15.15,1.2,15.4,0.79,15.35c-0.41-0.05-0.77-0.4-0.78-0.81c-0.02-0.68-0.02-1.37,0-2.05
			c0.01-0.42,0.37-0.76,0.78-0.81c0.41-0.05,0.81,0.2,0.95,0.61c0.03,0.1,0.05,0.21,0.08,0.32c0.55,0,1.1,0,1.68,0
			c0-0.8,0-1.6,0-2.4C2.85,10.07,2.51,9.7,2.57,9.19c0.06-0.52,0.45-0.8,1.13-0.8c7.72,0,15.44,0,23.16,0
			c0.63,0,1.03,0.31,1.06,0.84c0.03,0.51-0.32,0.87-0.94,0.96c0,0.8,0,1.6,0,2.41c0.56,0,1.12,0,1.58,0
			c0.19-0.29,0.31-0.58,0.52-0.76c0.39-0.33,0.99-0.19,1.26,0.26c0.05,0.07,0.09,0.15,0.13,0.22C30.49,13.11,30.49,13.91,30.49,14.7
			z M5.31,10.19c0,1.26-0.02,2.49,0.01,3.72c0.01,0.47,0.1,0.95,0.23,1.4c0.69,2.51,2.91,4.49,5.76,4.45
			c2.68-0.04,5.36-0.01,8.03-0.01c1,0,1.95-0.24,2.8-0.76c1.95-1.2,2.93-2.99,3.03-5.25c0.05-1.12,0.01-2.24,0.01-3.36
			c0-0.07-0.02-0.13-0.02-0.19C18.54,10.19,11.94,10.19,5.31,10.19z M8.31,24.87c4.64,0,9.23,0,13.87,0
			c-0.4-1.18-0.79-2.34-1.15-3.44c-0.69,0.04-1.33,0.12-1.97,0.12c-3.19-0.04-6.38,0.12-9.59-0.1C9.09,22.54,8.7,23.69,8.31,24.87z"
			/>
		<path class="st1" d="M15.48,0c0.51,0.24,0.67,0.64,0.66,1.2c-0.03,1.49,0,2.97-0.01,4.46c0,0.68-0.61,1.12-1.21,0.88
			c-0.35-0.14-0.57-0.42-0.57-0.8c-0.01-1.63-0.01-3.25,0-4.88c0-0.44,0.3-0.68,0.65-0.87C15.17,0,15.33,0,15.48,0z"/>
		<path class="st1" d="M12.57,4.33c0,0.45,0,0.89,0,1.34c-0.01,0.55-0.39,0.94-0.9,0.94c-0.5-0.01-0.88-0.4-0.88-0.93
			c-0.01-0.89-0.01-1.78,0-2.67c0-0.53,0.39-0.92,0.89-0.92c0.5,0,0.89,0.38,0.9,0.91C12.57,3.44,12.57,3.89,12.57,4.33z"/>
		<path class="st1" d="M17.93,4.35c0-0.45,0-0.89,0-1.34c0.01-0.53,0.39-0.92,0.88-0.92c0.5,0,0.89,0.39,0.9,0.91
			c0.01,0.9,0.01,1.8,0,2.7c0,0.52-0.4,0.91-0.9,0.91c-0.5,0-0.88-0.4-0.88-0.93C17.92,5.24,17.93,4.79,17.93,4.35z"/>
	</g>
</g>
<g id="Guias" class="st31">
</g>
</svg>
