<?xml version="1.0" encoding="utf-8"?>
<!-- Generator: Adobe Illustrator 25.0.1, SVG Export Plug-In . SVG Version: 6.00 Build 0)  -->
<svg version="1.1" xmlns="http://www.w3.org/2000/svg" xmlns:xlink="http://www.w3.org/1999/xlink" x="0px" y="0px"
	 viewBox="0 0 38.92 38.96" style="enable-background:new 0 0 38.92 38.96;" xml:space="preserve">
<style type="text/css">
	.st0{fill:#FFFFFF;}
	.st1{fill:#EF251B;}
	.st2{clip-path:url(#SVGID_2_);}
	.st3{opacity:0.6;}
	.st4{fill:none;stroke:#FFFFFF;stroke-width:0.6;stroke-miterlimit:10;}
	.st5{clip-path:url(#SVGID_14_);}
	.st6{opacity:0.69;fill:#FFFFFF;}
	.st7{fill:none;stroke:#000000;stroke-width:0.6;stroke-miterlimit:10;}
	.st8{fill:#48B577;}
	.st9{fill:none;stroke:#000000;stroke-width:0.7126;stroke-miterlimit:10;}
	.st10{fill:none;stroke:#000000;stroke-width:1.081;stroke-linecap:round;stroke-linejoin:round;stroke-miterlimit:10;}
	.st11{opacity:0.76;fill:#FFFFFF;}
	.st12{fill:none;stroke:#000000;stroke-width:1.4614;stroke-linecap:round;stroke-linejoin:round;stroke-miterlimit:10;}
	.st13{fill:none;stroke:#FFFFFF;stroke-width:3.4909;stroke-linecap:round;stroke-linejoin:round;stroke-miterlimit:10;}
	.st14{fill:none;stroke:#000000;stroke-width:0.5;stroke-miterlimit:10;}
	.st15{fill:none;stroke:#FFFFFF;stroke-width:0.7126;stroke-miterlimit:10;}
	.st16{fill:#FFD400;}
	.st17{fill:#141A7F;}
	.st18{fill:#D80A00;}
	.st19{clip-path:url(#SVGID_54_);}
	.st20{fill:#FFFFFF;stroke:#48B577;stroke-width:0.9214;stroke-miterlimit:10;}
	.st21{opacity:0.76;fill:#FFFFFF;stroke:#48B577;stroke-miterlimit:10;}
	.st22{opacity:0.76;fill:none;stroke:#000000;stroke-width:0.8296;stroke-miterlimit:10;}
	.st23{fill:none;stroke:#EF251B;stroke-width:2.3908;stroke-miterlimit:10;}
	.st24{fill:#DBDBDB;}
	.st25{fill-rule:evenodd;clip-rule:evenodd;fill:#EF251B;}
	.st26{fill-rule:evenodd;clip-rule:evenodd;fill:#FFFFFF;}
	.st27{fill:none;stroke:#000000;stroke-width:0.418;stroke-miterlimit:10;}
	.st28{fill:none;stroke:#E62C23;stroke-width:1.0624;stroke-miterlimit:10;}
	.st29{fill:none;stroke:#000000;stroke-width:0.5312;stroke-miterlimit:10;}
	.st30{fill:none;stroke:#E62C23;stroke-width:1.1168;stroke-miterlimit:10;}
	.st31{display:none;}
	.st32{display:inline;}
	.st33{fill:none;stroke:#000000;stroke-width:0.4774;stroke-miterlimit:10;}
	.st34{fill:none;stroke:#000000;stroke-width:0.4623;stroke-miterlimit:10;}
</style>
<g id="Arte">
	<g>
		<path class="st1" d="M6.02,38.96c-0.36-0.67-0.11-0.96,0.6-0.96c0.28,0,0.57,0,0.9,0c0-3.2,0-6.3,0-9.45
			c-4.34-0.71-7.12-3.1-7.49-7.61c-0.27-3.38,1.3-6.03,4.33-7.56c3.44-1.75,6.64-1.05,9.51,1.49c0.54-0.41,0.67-0.84,0.42-1.53
			c-0.67-1.88-0.23-3.62,0.85-5.25c0.16-0.25,0.3-0.63,0.23-0.89c-0.84-3.24,0.89-6.14,4.25-6.95c2.54-0.61,4.83-0.08,6.65,1.86
			c1.27,1.35,1.73,2.98,1.19,4.8c-0.15,0.49-0.12,0.84,0.19,1.26c1.18,1.66,1.42,3.48,0.79,5.42c-0.08,0.23-0.09,0.6,0.04,0.77
			c0.9,1.21,1.43,2.55,1.52,3.96c1.14-0.08,2.27-0.34,3.34-0.2c2.93,0.36,4.84,2.27,5.47,5.21c0.02,0.08,0.08,0.14,0.13,0.22
			c0,0.52,0,1.04,0,1.56c-0.05,0.13-0.11,0.27-0.14,0.41c-0.58,2.74-2.47,4.61-5.2,5.13c-0.19,0.04-0.37,0.08-0.54,0.12
			c0,2.44,0,4.81,0,7.24c0.36,0,0.65-0.02,0.94,0c0.77,0.05,0.87,0.27,0.44,0.96c-1.27,0-2.54,0-3.81,0
			c-0.08-0.23-0.16-0.45-0.23-0.68c0.52-0.15,1.04-0.3,1.56-0.45c0-2.36,0-4.74,0-7.11c-3.27-0.53-5.17-2.41-5.8-5.49
			c-1.43,0.41-2.83,0.81-4.27,1.22c0,3.78,0,7.62,0,11.54c0.36,0,0.64-0.01,0.93,0c0.77,0.04,0.87,0.21,0.54,0.96
			c-1.33,0-2.66,0-3.98,0c-0.54-1.72,1.12-0.52,1.5-1.29c0-3.63,0-7.46,0-11.37c-2.07-0.16-3.94-0.86-5.58-2.2
			c-1.48,2.49-3.5,3.98-6.32,4.34c-0.18,0.02-0.43,0.47-0.44,0.72c-0.04,1.79-0.02,3.58-0.02,5.37c0,1.12,0,2.24,0,3.45
			c0.39,0,0.67,0,0.95,0c0.73,0.01,0.97,0.3,0.55,0.96C8.68,38.96,7.35,38.96,6.02,38.96z M21.86,25.34
			c0.62-0.09,1.17-0.13,1.68-0.26c5.09-1.33,7.24-6.58,3.95-10.41c-0.18-0.21-0.23-0.71-0.12-0.98c0.85-1.99,0.52-3.78-0.84-5.4
			c-0.33-0.39-0.34-0.71-0.16-1.17c0.69-1.74,0.28-3.46-1.13-4.71c-1.43-1.28-3.15-1.69-5-1.33c-3.54,0.68-5.01,3.9-3.8,6.26
			c0.12,0.22-0.06,0.71-0.25,0.96c-1.01,1.3-1.6,2.77-1.09,4.35c0.39,1.21,0.53,2.18-0.59,3c1.55,2.26,1.98,4.61,1.27,7.16
			c-0.04,0.15,0.03,0.42,0.15,0.53c1.4,1.25,3.03,1.9,4.98,1.96c0-0.41,0-0.73,0-1.04c0.01-5.14,0.03-10.27,0.04-15.41
			c0-0.23-0.04-0.48,0.03-0.69c0.07-0.18,0.28-0.42,0.43-0.43c0.16-0.01,0.39,0.21,0.47,0.39c0.09,0.2,0.05,0.45,0.04,0.68
			c-0.02,3.49-0.05,6.98-0.07,10.47C21.85,21.26,21.86,23.24,21.86,25.34z M8.5,24.32c0.72-0.69,1.22-1.23,1.8-1.69
			c0.26-0.21,0.66-0.25,1-0.37c-0.11,0.34-0.13,0.75-0.34,1c-0.53,0.61-1.1,1.2-1.73,1.69c-0.93,0.71-0.77,1.6-0.63,2.53
			c3.67-0.1,6.72-3.5,6.59-7.26c-0.14-3.82-3.53-6.97-7.32-6.79c-4.06,0.18-7.12,3.51-6.9,7.46c0.22,4.1,3.91,6.68,6.51,6.55
			c0.38-2.48,0.35-4.82-2.11-6.35c-0.14-0.09-0.3-0.22-0.36-0.36c-0.11-0.25-0.16-0.54-0.23-0.81c0.29,0.04,0.67-0.02,0.87,0.14
			c0.63,0.52,1.2,1.12,1.94,1.85c0-0.94-0.05-1.66,0.02-2.36c0.03-0.33,0.29-0.64,0.45-0.96c0.15,0.32,0.37,0.63,0.45,0.96
			c0.08,0.33,0.02,0.69,0.02,1.04C8.5,21.73,8.5,22.9,8.5,24.32z M32.97,27.09c0.52-0.5,0.82-0.86,1.19-1.11
			c0.26-0.18,0.63-0.2,0.95-0.29c-0.09,0.31-0.09,0.68-0.27,0.91c-0.36,0.45-0.79,0.85-1.24,1.21c-0.66,0.52-0.78,1.15-0.52,1.94
			c2.24-0.35,3.83-1.52,4.56-3.64c0.73-2.12,0.24-4.07-1.39-5.62c-1.6-1.53-3.54-1.86-5.61-1.14c-0.33,0.11-0.7,0.51-0.79,0.85
			c-0.39,1.5-1.18,2.73-2.27,3.81c-0.26,0.26-0.44,0.74-0.41,1.1c0.21,2.39,2.25,4.33,4.83,4.61c0-0.32,0-0.63,0-0.95
			c0-1.7-0.02-3.41,0.02-5.11c0.01-0.29,0.31-0.56,0.48-0.84c0.16,0.29,0.44,0.57,0.45,0.86C33.01,24.73,32.97,25.79,32.97,27.09z"
			/>
		<path class="st1" d="M27.34,18.54c-0.01,2.49-1.67,3.26-3.56,3.26c-0.21,0-0.55-0.3-0.62-0.52c-0.71-2.36,0.97-4.41,3.42-4.18
			C27.6,17.19,27.18,18.08,27.34,18.54z M26.23,18.04c-1.93,0.31-2.57,1.18-2.09,2.77C25.96,20.63,26.72,19.66,26.23,18.04z"/>
	</g>
</g>
<g id="Guias" class="st31">
</g>
</svg>
