<?xml version="1.0" encoding="utf-8"?>
<!-- Generator: Adobe Illustrator 25.0.1, SVG Export Plug-In . SVG Version: 6.00 Build 0)  -->
<svg version="1.1" xmlns="http://www.w3.org/2000/svg" xmlns:xlink="http://www.w3.org/1999/xlink" x="0px" y="0px"
	 viewBox="0 0 30.17 30.17" style="enable-background:new 0 0 30.17 30.17;" xml:space="preserve">
<style type="text/css">
	.st0{fill:#FFFFFF;}
	.st1{fill:#EF251B;}
	.st2{clip-path:url(#SVGID_2_);}
	.st3{opacity:0.6;}
	.st4{fill:none;stroke:#FFFFFF;stroke-width:0.6;stroke-miterlimit:10;}
	.st5{clip-path:url(#SVGID_14_);}
	.st6{opacity:0.69;fill:#FFFFFF;}
	.st7{fill:none;stroke:#000000;stroke-width:0.6;stroke-miterlimit:10;}
	.st8{fill:#48B577;}
	.st9{fill:none;stroke:#000000;stroke-width:0.7126;stroke-miterlimit:10;}
	.st10{fill:none;stroke:#000000;stroke-width:1.081;stroke-linecap:round;stroke-linejoin:round;stroke-miterlimit:10;}
	.st11{opacity:0.76;fill:#FFFFFF;}
	.st12{fill:none;stroke:#000000;stroke-width:1.4614;stroke-linecap:round;stroke-linejoin:round;stroke-miterlimit:10;}
	.st13{fill:none;stroke:#FFFFFF;stroke-width:3.4909;stroke-linecap:round;stroke-linejoin:round;stroke-miterlimit:10;}
	.st14{fill:none;stroke:#000000;stroke-width:0.5;stroke-miterlimit:10;}
	.st15{fill:none;stroke:#FFFFFF;stroke-width:0.7126;stroke-miterlimit:10;}
	.st16{fill:#FFD400;}
	.st17{fill:#141A7F;}
	.st18{fill:#D80A00;}
	.st19{clip-path:url(#SVGID_54_);}
	.st20{fill:#FFFFFF;stroke:#48B577;stroke-width:0.9214;stroke-miterlimit:10;}
	.st21{opacity:0.76;fill:#FFFFFF;stroke:#48B577;stroke-miterlimit:10;}
	.st22{opacity:0.76;fill:none;stroke:#000000;stroke-width:0.8296;stroke-miterlimit:10;}
	.st23{fill:none;stroke:#EF251B;stroke-width:2.3908;stroke-miterlimit:10;}
	.st24{fill:#DBDBDB;}
	.st25{fill-rule:evenodd;clip-rule:evenodd;fill:#EF251B;}
	.st26{fill-rule:evenodd;clip-rule:evenodd;fill:#FFFFFF;}
	.st27{fill:none;stroke:#000000;stroke-width:0.418;stroke-miterlimit:10;}
	.st28{fill:none;stroke:#E62C23;stroke-width:1.0624;stroke-miterlimit:10;}
	.st29{fill:none;stroke:#000000;stroke-width:0.5312;stroke-miterlimit:10;}
	.st30{fill:none;stroke:#E62C23;stroke-width:1.1168;stroke-miterlimit:10;}
	.st31{display:none;}
	.st32{display:inline;}
	.st33{fill:none;stroke:#000000;stroke-width:0.4774;stroke-miterlimit:10;}
	.st34{fill:none;stroke:#000000;stroke-width:0.4623;stroke-miterlimit:10;}
</style>
<g id="Arte">
	<g>
		<path class="st1" d="M30.17,15.09c0,8.33-6.77,15.08-15.13,15.08C6.72,30.17-0.01,23.37,0,14.99C0.01,6.72,6.81,0,15.16,0
			C23.42,0,30.17,6.79,30.17,15.09z M15.06,28.8c7.55,0,13.73-6.13,13.74-13.64c0.01-7.61-6.11-13.79-13.66-13.79
			C7.52,1.36,1.37,7.5,1.37,15.09C1.37,22.63,7.52,28.79,15.06,28.8z"/>
		<path class="st1" d="M4.81,11.64c-0.01-4.53,3.66-8.19,8.22-8.2c4.5-0.01,8.22,3.66,8.23,8.12c0.01,4.58-3.66,8.32-8.18,8.33
			C8.49,19.89,4.82,16.23,4.81,11.64z M19.89,11.68c0.01-3.73-3.05-6.82-6.73-6.88c-3.75-0.06-6.95,2.96-6.98,6.72
			c-0.04,3.89,3,6.98,6.84,7C16.77,18.54,19.88,15.45,19.89,11.68z"/>
		<path class="st1" d="M11.26,11.09c-0.45-0.25-0.81-0.55-1.04-0.96c-0.57-1.03-0.21-2.34,0.89-2.99c1.18-0.69,2.44-0.72,3.68-0.17
			c0.77,0.34,1.21,0.97,1.26,1.82c0.05,0.86-0.35,1.51-1.08,1.96c-0.05,0.03-0.11,0.07-0.16,0.11c-0.01,0-0.01,0.02-0.02,0.03
			c0.2,0.12,0.41,0.22,0.61,0.35c1.4,0.98,1.32,3.07-0.15,4c-0.73,0.46-1.54,0.6-2.38,0.59c-0.67-0.01-1.32-0.13-1.92-0.46
			c-0.77-0.43-1.25-1.07-1.28-1.97c-0.03-0.94,0.41-1.62,1.2-2.1C10.98,11.24,11.1,11.18,11.26,11.09z M13.05,14.39
			c0.88,0,1.4-0.67,1.16-1.5c-0.13-0.46-0.47-0.73-0.89-0.91c-0.17-0.07-0.38-0.15-0.54-0.12c-0.63,0.12-1.05,0.78-0.97,1.46
			C11.87,13.94,12.39,14.39,13.05,14.39z M11.93,9.01c-0.01,0.55,0.7,1.25,1.26,1.23c0.05,0,0.11-0.03,0.16-0.05
			c0.29-0.13,0.52-0.34,0.65-0.63c0.18-0.4,0.1-0.92-0.19-1.23c-0.29-0.31-0.81-0.4-1.27-0.22C12.16,8.26,11.94,8.59,11.93,9.01z"/>
	</g>
</g>
<g id="Guias" class="st31">
</g>
</svg>
