<?xml version="1.0" encoding="utf-8"?>
<!-- Generator: Adobe Illustrator 26.1.0, SVG Export Plug-In . SVG Version: 6.00 Build 0)  -->
<svg version="1.1" id="Arte" xmlns="http://www.w3.org/2000/svg" xmlns:xlink="http://www.w3.org/1999/xlink" x="0px" y="0px"
	 viewBox="0 0 65.9 65.9" style="enable-background:new 0 0 65.9 65.9;" xml:space="preserve">
<style type="text/css">
	.st0{fill:#EF251B;}
</style>
<path class="st0" d="M32.9,65.9C14.7,65.9,0,51.1,0,32.9S14.8,0,33,0s32.9,14.8,32.9,33l0,0C65.9,51.2,51.1,65.9,32.9,65.9z
	 M32.9,2.9c-16.6,0-30,13.5-30,30.1S16.4,63,33,63s30-13.5,30-30.1S49.5,2.9,32.9,2.9L32.9,2.9z"/>
<path class="st0" d="M33,48.7c-5.2,0-10.2-2.2-13.8-6c-0.6-0.5-0.8-1.4-0.3-2c0.1-0.2,0.3-0.3,0.5-0.4c0.6-0.3,1.3-0.2,1.7,0.3
	c0.6,0.6,1.2,1.2,1.9,1.7c5.6,4.3,11.6,4.7,17.8,1.5c1.1-0.6,2.1-1.4,3-2.2c0.3-0.2,0.5-0.5,0.8-0.7c0.9-0.8,1.7-1,2.4-0.3
	s0.5,1.5-0.4,2.4C43,46.6,38.1,48.7,33,48.7z"/>
<path class="st0" d="M21.5,22.9c3.8,0,6.9,2.9,7.2,6.6c0.1,1.1-0.4,1.9-1.3,2s-1.5-0.5-1.6-1.7c-0.2-2.4-2.2-4.1-4.6-4
	c-2.1,0.1-3.8,1.8-4,3.8c0,0.2,0,0.4-0.1,0.6c-0.1,0.7-0.7,1.3-1.4,1.2h-0.1c-0.8-0.1-1.3-0.7-1.2-1.5c0-1.7,0.6-3.3,1.7-4.6
	C17.4,23.9,19.4,22.9,21.5,22.9z"/>
<path class="st0" d="M51.5,29.3c0,1.5-0.4,2.1-1.2,2.2s-1.5-0.4-1.6-1.5c-0.1-1.6-0.9-3-2.3-3.7c-2.1-1.1-4.7-0.3-5.8,1.8
	c-0.3,0.5-0.4,1.1-0.5,1.6c-0.1,1.5-1.2,2.2-2.3,1.5c-0.5-0.3-0.7-0.9-0.6-1.5c0.1-2.6,1.6-4.9,3.9-6.1c2.3-1.3,5.1-1.1,7.2,0.5
	C50.2,25.3,51.4,27.2,51.5,29.3z"/>
</svg>
