<svg xmlns="http://www.w3.org/2000/svg" viewBox="0 0 188.42 188.33"><defs><style>.cls-1{isolation:isolate;}.cls-2{mix-blend-mode:multiply;}.cls-3{fill:#ef251b;}</style></defs><g class="cls-1"><g id="Arte"><g class="cls-2"><path class="cls-3" d="M94.11,188.33a94.17,94.17,0,1,1,94.31-94A94.29,94.29,0,0,1,94.11,188.33Zm0-180.1C46.64,8.35,8,47.07,8.23,94.3a86,86,0,0,0,172-.17C180.16,46.75,141.44,8.1,94.13,8.23Z"/><path class="cls-3" d="M94.45,139.27c-15.67-.44-28.78-6-39.49-17.07-2.44-2.52-2.14-5.68.59-7a4,4,0,0,1,4.81.89c1.77,1.59,3.42,3.33,5.31,4.76,16.09,12.21,33.18,13.36,51,4.23,3.07-1.58,5.67-4.08,8.44-6.2a25.58,25.58,0,0,0,2.14-2c2.56-2.44,5-2.75,6.77-.89s1.28,4.39-1.1,6.81C122.26,133.56,109.23,138.81,94.45,139.27Z"/><path class="cls-3" d="M61.37,65.51c10.77,0,19.39,7.95,20.48,18.89.33,3.26-1,5.34-3.64,5.57s-4.31-1.49-4.59-4.78a12.23,12.23,0,0,0-24.38-.39c-.07.55-.1,1.11-.22,1.66C48.46,89,47,90.2,44.62,90S41,88.16,41.05,85.59a18.87,18.87,0,0,1,5-13A20.34,20.34,0,0,1,61.37,65.51Z"/><path class="cls-3" d="M147.29,83.66c.16,4.32-1.08,6-3.44,6.29-2.56.28-4.24-1.18-4.57-4.27-.5-4.62-2.41-8.28-6.6-10.54a12.23,12.23,0,0,0-17.87,9.77c-.33,4.36-3.34,6.38-6.5,4.38-1.59-1-1.88-2.58-1.77-4.21.51-7.81,4.18-13.72,11.16-17.29s14.09-3.1,20.7,1.29C144.08,72.86,147,78.27,147.29,83.66Z"/></g></g></g></svg>