<svg id="Arte" xmlns="http://www.w3.org/2000/svg" viewBox="0 0 65.92 65.89"><defs><style>.cls-1{fill:#fff;}</style></defs><path class="cls-1" d="M32.93,65.89A32.95,32.95,0,1,1,65.92,33,33,33,0,0,1,32.93,65.89Zm0-63A30.07,30.07,0,1,0,63.05,32.94,30.12,30.12,0,0,0,32.93,2.88Z"/><path class="cls-1" d="M33.05,48.73a19.25,19.25,0,0,1-13.82-6,1.46,1.46,0,0,1,.2-2.47,1.43,1.43,0,0,1,1.69.31c.62.56,1.2,1.17,1.86,1.67,5.63,4.27,11.61,4.67,17.84,1.48a21.1,21.1,0,0,0,3-2.17,10,10,0,0,0,.75-.71c.89-.85,1.74-1,2.37-.31s.45,1.54-.39,2.38A19,19,0,0,1,33.05,48.73Z"/><path class="cls-1" d="M21.47,22.92a7.16,7.16,0,0,1,7.17,6.61c.11,1.14-.36,1.87-1.27,1.95s-1.51-.52-1.61-1.67a4.28,4.28,0,0,0-8.53-.14c0,.19,0,.39-.08.58a1.34,1.34,0,0,1-1.54,1.23A1.37,1.37,0,0,1,14.36,30a6.58,6.58,0,0,1,1.74-4.56A7.08,7.08,0,0,1,21.47,22.92Z"/><path class="cls-1" d="M51.54,29.27c.05,1.51-.38,2.11-1.21,2.2s-1.48-.41-1.6-1.49a4.39,4.39,0,0,0-2.31-3.69,4.28,4.28,0,0,0-6.25,3.42c-.11,1.52-1.17,2.23-2.27,1.53a1.45,1.45,0,0,1-.62-1.47,6.9,6.9,0,0,1,3.9-6.05,6.76,6.76,0,0,1,7.24.45A6.59,6.59,0,0,1,51.54,29.27Z"/></svg>