<svg id="Arte" xmlns="http://www.w3.org/2000/svg" viewBox="0 0 17.81 17.8"><path d="M8.89,17.8a8.9,8.9,0,1,1,8.92-8.88A8.91,8.91,0,0,1,8.89,17.8Zm0-17A8.12,8.12,0,1,0,17,8.9,8.13,8.13,0,0,0,8.9.78Z"/><path d="M8.93,13.16a5.23,5.23,0,0,1-3.74-1.61.4.4,0,0,1,.06-.67A.38.38,0,0,1,5.7,11c.17.15.33.31.51.45a4.24,4.24,0,0,0,4.82.4,5.6,5.6,0,0,0,.79-.59A1.24,1.24,0,0,0,12,11c.24-.23.47-.26.64-.08s.12.41-.11.64A5.15,5.15,0,0,1,8.93,13.16Z"/><path d="M5.8,6.19A1.94,1.94,0,0,1,7.74,8c0,.31-.1.5-.35.52S7,8.36,7,8.05A1.16,1.16,0,0,0,4.65,8a.78.78,0,0,1,0,.16.36.36,0,0,1-.41.33.37.37,0,0,1-.34-.41,1.74,1.74,0,0,1,.47-1.23A1.93,1.93,0,0,1,5.8,6.19Z"/><path d="M13.92,7.91c0,.41-.1.57-.32.59s-.4-.11-.44-.4a1.17,1.17,0,0,0-.62-1A1.16,1.16,0,0,0,10.85,8c0,.41-.31.6-.61.41a.4.4,0,0,1-.17-.4,1.86,1.86,0,0,1,1.06-1.63,1.83,1.83,0,0,1,1.95.12A1.76,1.76,0,0,1,13.92,7.91Z"/></svg>