<svg id="Arte" xmlns="http://www.w3.org/2000/svg" viewBox="0 0 65.92 65.89"><defs><style>.cls-1{fill:#fff;}</style></defs><path class="cls-1" d="M32.93,65.89A32.95,32.95,0,1,1,65.92,33,33,33,0,0,1,32.93,65.89Zm0-63A30.07,30.07,0,1,0,63.05,32.94,30.12,30.12,0,0,0,32.93,2.88Z"/><path class="cls-1" d="M28.41,45.4a3.38,3.38,0,0,1-1.83-1.14S19.47,37.15,17.33,35a1.85,1.85,0,0,1-.7-2,1.61,1.61,0,0,1,1.59-1.24,1.92,1.92,0,0,1,1.35.58c1.75,1.67,8,8.1,8.56,8.14.05,0,.33.09.38.09.5,0,.76-.29,1.12-.65,0,0,17.67-17.68,17.92-17.89a1.75,1.75,0,0,1,1.12-.4,1.69,1.69,0,0,1,1.18.47A1.74,1.74,0,0,1,50,24.46c-.21.26-19.72,19.78-19.72,19.78A3.44,3.44,0,0,1,28.41,45.4Z"/></svg>