<?xml version="1.0" encoding="utf-8"?>
<!-- Generator: Adobe Illustrator 26.1.0, SVG Export Plug-In . SVG Version: 6.00 Build 0)  -->
<svg version="1.1" id="Arte" xmlns="http://www.w3.org/2000/svg" xmlns:xlink="http://www.w3.org/1999/xlink" x="0px" y="0px"
	 viewBox="0 0 65.9 65.9" style="enable-background:new 0 0 65.9 65.9;" xml:space="preserve">
<style type="text/css">
	.st0{fill:#EF251B;}
</style>
<path class="st0" d="M32.9,65.9C14.7,65.9,0,51.1,0,32.9S14.8,0,33,0s32.9,14.8,32.9,33l0,0C65.9,51.2,51.1,65.9,32.9,65.9z
	 M32.9,2.9c-16.6,0-30,13.5-30,30.1S16.4,63,33,63s30-13.5,30-30.1S49.5,2.9,32.9,2.9L32.9,2.9z"/>
<path class="st0" d="M28.4,45.4c-0.7-0.2-1.4-0.6-1.8-1.1c0,0-7.1-7.1-9.2-9.3c-0.6-0.5-0.9-1.3-0.7-2c0.2-0.7,0.8-1.3,1.6-1.2
	c0.5,0,1,0.2,1.4,0.6c1.8,1.7,8,8.1,8.6,8.1c0,0,0.3,0.1,0.4,0.1c0.5,0,0.8-0.3,1.1-0.7c0,0,17.7-17.7,17.9-17.9
	c0.3-0.3,0.7-0.4,1.1-0.4c0.4,0,0.9,0.2,1.2,0.5c0.7,0.6,0.7,1.7,0.1,2.4c-0.2,0.3-19.7,19.8-19.7,19.8
	C29.8,44.8,29.1,45.2,28.4,45.4z"/>
</svg>
