<?xml version="1.0" encoding="utf-8"?>
<!-- Generator: Adobe Illustrator 25.0.1, SVG Export Plug-In . SVG Version: 6.00 Build 0)  -->
<svg version="1.1" xmlns="http://www.w3.org/2000/svg" xmlns:xlink="http://www.w3.org/1999/xlink" x="0px" y="0px"
	 viewBox="0 0 28.99 26.17" style="enable-background:new 0 0 28.99 26.17;" xml:space="preserve">
<style type="text/css">
	.st0{fill:#FFFFFF;}
	.st1{fill:#EF251B;}
	.st2{clip-path:url(#SVGID_2_);}
	.st3{opacity:0.6;}
	.st4{fill:none;stroke:#FFFFFF;stroke-width:0.6;stroke-miterlimit:10;}
	.st5{clip-path:url(#SVGID_14_);}
	.st6{opacity:0.69;fill:#FFFFFF;}
	.st7{fill:none;stroke:#000000;stroke-width:0.6;stroke-miterlimit:10;}
	.st8{fill:#48B577;}
	.st9{fill:none;stroke:#000000;stroke-width:0.7126;stroke-miterlimit:10;}
	.st10{fill:none;stroke:#000000;stroke-width:1.081;stroke-linecap:round;stroke-linejoin:round;stroke-miterlimit:10;}
	.st11{opacity:0.76;fill:#FFFFFF;}
	.st12{fill:none;stroke:#000000;stroke-width:1.4614;stroke-linecap:round;stroke-linejoin:round;stroke-miterlimit:10;}
	.st13{fill:none;stroke:#FFFFFF;stroke-width:3.4909;stroke-linecap:round;stroke-linejoin:round;stroke-miterlimit:10;}
	.st14{fill:none;stroke:#000000;stroke-width:0.5;stroke-miterlimit:10;}
	.st15{fill:none;stroke:#FFFFFF;stroke-width:0.7126;stroke-miterlimit:10;}
	.st16{fill:#FFD400;}
	.st17{fill:#141A7F;}
	.st18{fill:#D80A00;}
	.st19{clip-path:url(#SVGID_54_);}
	.st20{fill:#FFFFFF;stroke:#48B577;stroke-width:0.9214;stroke-miterlimit:10;}
	.st21{opacity:0.76;fill:#FFFFFF;stroke:#48B577;stroke-miterlimit:10;}
	.st22{opacity:0.76;fill:none;stroke:#000000;stroke-width:0.8296;stroke-miterlimit:10;}
	.st23{fill:none;stroke:#EF251B;stroke-width:2.3908;stroke-miterlimit:10;}
	.st24{fill:#DBDBDB;}
	.st25{fill-rule:evenodd;clip-rule:evenodd;fill:#EF251B;}
	.st26{fill-rule:evenodd;clip-rule:evenodd;fill:#FFFFFF;}
	.st27{fill:none;stroke:#000000;stroke-width:0.418;stroke-miterlimit:10;}
	.st28{fill:none;stroke:#E62C23;stroke-width:1.0624;stroke-miterlimit:10;}
	.st29{fill:none;stroke:#000000;stroke-width:0.5312;stroke-miterlimit:10;}
	.st30{fill:none;stroke:#E62C23;stroke-width:1.1168;stroke-miterlimit:10;}
	.st31{display:none;}
	.st32{display:inline;}
	.st33{fill:none;stroke:#000000;stroke-width:0.4774;stroke-miterlimit:10;}
	.st34{fill:none;stroke:#000000;stroke-width:0.4623;stroke-miterlimit:10;}
</style>
<g id="Arte">
	<g>
		<path class="st1" d="M1.13,25.07c8.99,0,17.8,0,26.67,0c0-5.18-0.11-10.25,0.03-15.31c0.14-5.05-1.1-5.77-5.16-6.75
			c-2.7-0.65-5.39-1.93-8.08-1.94C11.89,1.07,9.2,2.31,6.5,2.96C2.16,4.01,0.97,4.64,1.1,9.93C1.22,14.94,1.13,19.96,1.13,25.07z
			 M28.99,26.17H0c0,0,0.05-14.31,0.09-18.34c0.02-2.89,1.44-4.64,4.22-5.36c3.06-0.79,6.12-1.62,9.19-2.37
			c0.63-0.15,1.36-0.14,1.99,0.02c2.99,0.73,5.97,1.52,8.94,2.31c3.13,0.83,4.47,2.58,4.47,5.84
			C28.92,12.22,28.99,26.17,28.99,26.17z"/>
		<path class="st1" d="M17.4,11.03c-0.15,0.1-0.42,0.28-1.05,0.7c-0.47-1.91-0.88-3.61-1.29-5.25c-1.2,0.68-1.79,2.4-2.15,6.76
			c-0.58-0.82-1.11-1.58-1.59-2.25c-0.55,1.31-1.02,2.5-1.54,3.67c-0.88,1.99-0.67,3.84,0.7,5.53c0.29,0.36,0.63,0.68,1.16,1.24
			c-2.82,0-5.4,0.01-7.98-0.02c-0.19,0-0.38-0.33-0.57-0.5c0.22-0.19,0.44-0.54,0.67-0.55c1.2-0.06,2.4-0.03,3.6-0.03
			c0.51,0,1.02,0,1.67,0c-0.14-0.43-0.21-0.75-0.34-1.03c-0.81-1.87-0.67-3.75,0.36-5.41c0.99-1.6,1.08-3.02-0.34-4.85
			c1.33,0.38,2.26,0.65,3.22,0.93c0.61-1.25,1.12-2.72,1.99-3.93c0.87-1.21,2.09-2.17,3.25-3.15c-1.04,4.44-1.07,5.1-0.19,6.93
			c0.83-0.23,1.67-0.46,2.91-0.79c-1.52,1.92-0.97,3.41-0.03,5.04c1.13,1.95,0.75,4.05-0.28,6.28c1.91,0,3.64,0.02,5.37-0.01
			c0.79-0.02,1.14,0.21,0.8,1.08c-2.77,0-5.55,0-8.51,0c0.31-0.38,0.52-0.67,0.75-0.94c1.74-2,1.93-4.23,0.66-6.53
			C18.17,13.05,17.85,12.09,17.4,11.03z"/>
	</g>
</g>
<g id="Guias" class="st31">
</g>
</svg>
