<svg id="Arte" xmlns="http://www.w3.org/2000/svg" viewBox="0 0 50.04 50.04"><defs><style>.cls-1{fill:none;stroke:#ef251b;stroke-miterlimit:10;}.cls-2{fill:#ef251b;}</style></defs><circle class="cls-1" cx="25.02" cy="25.02" r="24.52"/><path class="cls-2" d="M25.38,42.56a4.79,4.79,0,0,1-3.08-1.07,4.92,4.92,0,0,1-1.75-2.84.61.61,0,0,0-.58-.46H13.39a1.89,1.89,0,0,1-1.85-1.13,1.81,1.81,0,0,1,.16-1.92,3.3,3.3,0,0,1,.51-.55,10.43,10.43,0,0,0,3.51-8.12v-.74c0-1.28,0-2.61.07-3.9a9.53,9.53,0,0,1,7-8.32c.35-.09.7-.16,1.07-.24l.56-.12a.59.59,0,0,0,.46-.58v-1c0-.76,0-1.52,0-2.28a.49.49,0,0,1,.48-.52.5.5,0,0,1,.25.07c.12.07.26.18.26.56v3.18a.6.6,0,0,0,.47.59l.5.1c.34.07.67.14,1,.23a9.39,9.39,0,0,1,7,7.91,23.15,23.15,0,0,1,.12,2.66c0,.5,0,1,0,1.5l0,.63a22,22,0,0,0,.18,2.55,9.07,9.07,0,0,0,2.07,4.53,15.58,15.58,0,0,0,1.36,1.44,2,2,0,0,1,.59,2.22,1.93,1.93,0,0,1-2,1.26h-6.5a.59.59,0,0,0-.56.39c-1,2.68-2.52,4-4.71,4ZM22.29,38.2a.6.6,0,0,0-.48.24.6.6,0,0,0-.1.52,3.8,3.8,0,0,0,3.65,2.61h.25A3.66,3.66,0,0,0,29,38.88a.55.55,0,0,0-.14-.47.59.59,0,0,0-.45-.21Zm15-1a1,1,0,0,0,1-.64,1,1,0,0,0-.44-1.23A11.08,11.08,0,0,1,34,27.7c-.08-1.06-.06-2.16,0-3.22V23A8.53,8.53,0,0,0,31,16.3a8.36,8.36,0,0,0-5.55-2.2,9.13,9.13,0,0,0-2.91.5,8.61,8.61,0,0,0-5.85,8.26v1.69c0,.77,0,1.55,0,2.33a11.2,11.2,0,0,1-2.93,7.54c-.16.18-.33.34-.5.51s-.37.35-.54.53a1.16,1.16,0,0,0-.3,1.11,1.06,1.06,0,0,0,.73.56,1.16,1.16,0,0,0,.39.08H37.28Z"/><path class="cls-2" d="M40.3,23.25l-.14,0a.52.52,0,0,1-.37-.54,17,17,0,0,0-.65-4.5,16.22,16.22,0,0,0-3.74-6.56l-.13-.13a2.43,2.43,0,0,1-.26-.29.48.48,0,0,1,0-.69.44.44,0,0,1,.32-.13.55.55,0,0,1,.37.17,17.56,17.56,0,0,1,2.95,3.94,18.18,18.18,0,0,1,2.16,7.74l-.06.28a2.46,2.46,0,0,1-.17.59A.39.39,0,0,1,40.3,23.25Z"/><path class="cls-2" d="M10.35,23.25a.48.48,0,0,1-.43-.4,5.42,5.42,0,0,1,0-.57V22a17.17,17.17,0,0,1,5-11.38.57.57,0,0,1,.42-.19.44.44,0,0,1,.32.13.45.45,0,0,1,.15.34.56.56,0,0,1-.18.41,16.64,16.64,0,0,0-3.39,5,15.87,15.87,0,0,0-1.33,6.14,2,2,0,0,1-.08.55.49.49,0,0,1-.42.29Z"/></svg>