<?xml version="1.0" encoding="utf-8"?>
<!-- Generator: Adobe Illustrator 25.0.1, SVG Export Plug-In . SVG Version: 6.00 Build 0)  -->
<svg version="1.1" xmlns="http://www.w3.org/2000/svg" xmlns:xlink="http://www.w3.org/1999/xlink" x="0px" y="0px"
	 viewBox="0 0 30.26 30.21" style="enable-background:new 0 0 30.26 30.21;" xml:space="preserve">
<style type="text/css">
	.st0{fill:#FFFFFF;}
	.st1{fill:#EF251B;}
	.st2{clip-path:url(#SVGID_2_);}
	.st3{opacity:0.6;}
	.st4{fill:none;stroke:#FFFFFF;stroke-width:0.6;stroke-miterlimit:10;}
	.st5{clip-path:url(#SVGID_14_);}
	.st6{opacity:0.69;fill:#FFFFFF;}
	.st7{fill:none;stroke:#000000;stroke-width:0.6;stroke-miterlimit:10;}
	.st8{fill:#48B577;}
	.st9{fill:none;stroke:#000000;stroke-width:0.7126;stroke-miterlimit:10;}
	.st10{fill:none;stroke:#000000;stroke-width:1.081;stroke-linecap:round;stroke-linejoin:round;stroke-miterlimit:10;}
	.st11{opacity:0.76;fill:#FFFFFF;}
	.st12{fill:none;stroke:#000000;stroke-width:1.4614;stroke-linecap:round;stroke-linejoin:round;stroke-miterlimit:10;}
	.st13{fill:none;stroke:#FFFFFF;stroke-width:3.4909;stroke-linecap:round;stroke-linejoin:round;stroke-miterlimit:10;}
	.st14{fill:none;stroke:#000000;stroke-width:0.5;stroke-miterlimit:10;}
	.st15{fill:none;stroke:#FFFFFF;stroke-width:0.7126;stroke-miterlimit:10;}
	.st16{fill:#FFD400;}
	.st17{fill:#141A7F;}
	.st18{fill:#D80A00;}
	.st19{clip-path:url(#SVGID_54_);}
	.st20{fill:#FFFFFF;stroke:#48B577;stroke-width:0.9214;stroke-miterlimit:10;}
	.st21{opacity:0.76;fill:#FFFFFF;stroke:#48B577;stroke-miterlimit:10;}
	.st22{opacity:0.76;fill:none;stroke:#000000;stroke-width:0.8296;stroke-miterlimit:10;}
	.st23{fill:none;stroke:#EF251B;stroke-width:2.3908;stroke-miterlimit:10;}
	.st24{fill:#DBDBDB;}
	.st25{fill-rule:evenodd;clip-rule:evenodd;fill:#EF251B;}
	.st26{fill-rule:evenodd;clip-rule:evenodd;fill:#FFFFFF;}
	.st27{fill:none;stroke:#000000;stroke-width:0.418;stroke-miterlimit:10;}
	.st28{fill:none;stroke:#E62C23;stroke-width:1.0624;stroke-miterlimit:10;}
	.st29{fill:none;stroke:#000000;stroke-width:0.5312;stroke-miterlimit:10;}
	.st30{fill:none;stroke:#E62C23;stroke-width:1.1168;stroke-miterlimit:10;}
	.st31{display:none;}
	.st32{display:inline;}
	.st33{fill:none;stroke:#000000;stroke-width:0.4774;stroke-miterlimit:10;}
	.st34{fill:none;stroke:#000000;stroke-width:0.4623;stroke-miterlimit:10;}
</style>
<g id="Arte">
	<g>
		<g>
			<path class="st1" d="M30.26,16.27c-0.26,1.2-0.43,2.42-0.79,3.58c-1.79,5.67-6.95,9.77-12.85,10.3
				C8.46,30.87,1.47,25.42,0.18,17.33c-1.27-7.94,4.39-15.8,12.3-17.07c0.5-0.08,1.01-0.17,1.51-0.25c0.76,0,1.52,0,2.29,0
				c0.13,0.03,0.25,0.09,0.38,0.1c6.13,0.65,11.18,4.79,12.94,10.69c0.31,1.04,0.45,2.13,0.67,3.19
				C30.26,14.74,30.26,15.51,30.26,16.27z M15.04,28.86c7.52-0.03,13.74-5.87,13.81-13.64c0.06-7.51-5.82-13.73-13.62-13.8
				C7.69,1.35,1.5,7.25,1.43,15.03C1.36,22.57,7.27,28.68,15.04,28.86z"/>
		</g>
		<g>
			<path class="st1" d="M8.47,21.88l5.81-6.32L8.76,9.56C8.63,9.42,8.54,9.28,8.54,9.08c0-0.36,0.35-0.65,0.77-0.65
				c0.29,0,0.48,0.11,0.64,0.28l5.36,5.89l5.32-5.84c0.19-0.2,0.38-0.34,0.67-0.34c0.38,0,0.71,0.31,0.71,0.65
				c0,0.17-0.06,0.31-0.19,0.45l-5.55,6.01l5.77,6.32c0.13,0.14,0.22,0.28,0.22,0.48c0,0.36-0.35,0.65-0.77,0.65
				c-0.29,0-0.48-0.11-0.64-0.28l-5.61-6.2l-5.58,6.15c-0.19,0.2-0.38,0.34-0.67,0.34c-0.38,0-0.71-0.31-0.71-0.65
				C8.28,22.16,8.35,22.02,8.47,21.88z"/>
		</g>
	</g>
</g>
<g id="Guias" class="st31">
</g>
</svg>
