<?xml version="1.0" encoding="utf-8"?>
<!-- Generator: Adobe Illustrator 26.1.0, SVG Export Plug-In . SVG Version: 6.00 Build 0)  -->
<svg version="1.1" id="Arte" xmlns="http://www.w3.org/2000/svg" xmlns:xlink="http://www.w3.org/1999/xlink" x="0px" y="0px"
	 viewBox="0 0 65.9 65.9" style="enable-background:new 0 0 65.9 65.9;" xml:space="preserve">
<style type="text/css">
	.st0{fill:#EF251B;}
</style>
<path class="st0" d="M32.9,65.9C14.7,65.9,0,51.1,0,32.9S14.8,0,33,0s32.9,14.8,32.9,33l0,0C65.9,51.2,51.1,65.9,32.9,65.9z
	 M32.9,2.9c-16.6,0-30,13.5-30,30.1S16.4,63,33,63s30-13.5,30-30.1S49.5,2.9,32.9,2.9L32.9,2.9z"/>
<path class="st0" d="M31,34.8h-9c-1,0.1-1.9-0.7-2-1.7s0.7-1.9,1.7-2c0.1,0,0.2,0,0.3,0h9v-8.9c0-1.1,0.9-1.9,1.9-1.9H33
	c1,0,1.9,0.8,1.9,1.9l0,0v8.9H44c1,0.1,1.8,1,1.7,2c-0.1,0.9-0.8,1.7-1.7,1.7h-9.1v8.9c0,1-0.8,1.9-1.9,1.9l0,0
	c-1.1,0-1.9-0.8-2-1.8v-0.1V34.8z"/>
</svg>
