<?xml version="1.0" encoding="utf-8"?>
<!-- Generator: Adobe Illustrator 25.0.1, SVG Export Plug-In . SVG Version: 6.00 Build 0)  -->
<svg version="1.1" xmlns="http://www.w3.org/2000/svg" xmlns:xlink="http://www.w3.org/1999/xlink" x="0px" y="0px"
	 viewBox="0 0 29.92 29.89" style="enable-background:new 0 0 29.92 29.89;" xml:space="preserve">
<style type="text/css">
	.st0{fill:#FFFFFF;}
	.st1{fill:#EF251B;}
	.st2{clip-path:url(#SVGID_2_);}
	.st3{opacity:0.6;}
	.st4{fill:none;stroke:#FFFFFF;stroke-width:0.6;stroke-miterlimit:10;}
	.st5{clip-path:url(#SVGID_14_);}
	.st6{opacity:0.69;fill:#FFFFFF;}
	.st7{fill:none;stroke:#000000;stroke-width:0.6;stroke-miterlimit:10;}
	.st8{fill:#48B577;}
	.st9{fill:none;stroke:#000000;stroke-width:0.7126;stroke-miterlimit:10;}
	.st10{fill:none;stroke:#000000;stroke-width:1.081;stroke-linecap:round;stroke-linejoin:round;stroke-miterlimit:10;}
	.st11{opacity:0.76;fill:#FFFFFF;}
	.st12{fill:none;stroke:#000000;stroke-width:1.4614;stroke-linecap:round;stroke-linejoin:round;stroke-miterlimit:10;}
	.st13{fill:none;stroke:#FFFFFF;stroke-width:3.4909;stroke-linecap:round;stroke-linejoin:round;stroke-miterlimit:10;}
	.st14{fill:none;stroke:#000000;stroke-width:0.5;stroke-miterlimit:10;}
	.st15{fill:none;stroke:#FFFFFF;stroke-width:0.7126;stroke-miterlimit:10;}
	.st16{fill:#FFD400;}
	.st17{fill:#141A7F;}
	.st18{fill:#D80A00;}
	.st19{clip-path:url(#SVGID_54_);}
	.st20{fill:#FFFFFF;stroke:#48B577;stroke-width:0.9214;stroke-miterlimit:10;}
	.st21{opacity:0.76;fill:#FFFFFF;stroke:#48B577;stroke-miterlimit:10;}
	.st22{opacity:0.76;fill:none;stroke:#000000;stroke-width:0.8296;stroke-miterlimit:10;}
	.st23{fill:none;stroke:#EF251B;stroke-width:2.3908;stroke-miterlimit:10;}
	.st24{fill:#DBDBDB;}
	.st25{fill-rule:evenodd;clip-rule:evenodd;fill:#EF251B;}
	.st26{fill-rule:evenodd;clip-rule:evenodd;fill:#FFFFFF;}
	.st27{fill:none;stroke:#000000;stroke-width:0.418;stroke-miterlimit:10;}
	.st28{fill:none;stroke:#E62C23;stroke-width:1.0624;stroke-miterlimit:10;}
	.st29{fill:none;stroke:#000000;stroke-width:0.5312;stroke-miterlimit:10;}
	.st30{fill:none;stroke:#E62C23;stroke-width:1.1168;stroke-miterlimit:10;}
	.st31{display:none;}
	.st32{display:inline;}
	.st33{fill:none;stroke:#000000;stroke-width:0.4774;stroke-miterlimit:10;}
	.st34{fill:none;stroke:#000000;stroke-width:0.4623;stroke-miterlimit:10;}
</style>
<g id="Arte">
	<g>
		<path class="st1" d="M29.92,14.97c0,4.62,0,9.24-0.01,13.86c0,0.22-0.06,0.44-0.13,0.65c-0.08,0.27-0.27,0.42-0.56,0.4
			c-0.28-0.02-0.46-0.2-0.55-0.44c-0.06-0.17-0.07-0.36-0.07-0.55c0-2.12,0-4.24,0-6.36c0-0.1,0-0.21,0-0.31
			c-0.01-0.19,0.01-0.4-0.24-0.44c-0.23-0.04-0.31,0.13-0.43,0.29c-0.61,0.82-1.18,1.67-1.86,2.42c-1.74,1.93-3.9,3.2-6.4,3.92
			c-2.01,0.58-4.06,0.72-6.11,0.32c-1.12-0.22-2.2-0.6-3.28-0.96c-0.64-0.21-0.84-0.65-0.61-1.08c0.18-0.35,0.55-0.37,1.16-0.1
			c2.06,0.92,4.22,1.21,6.46,0.98c1.7-0.17,3.3-0.67,4.78-1.51c2.4-1.37,4.21-3.28,5.36-5.81c0.39-0.86,0.68-1.74,0.89-2.66
			c0.09-0.41,0.01-0.68-0.3-0.99c-0.77-0.78-1.55-1.57-2.22-2.44c-1.84-2.4-2.42-5.06-1.53-8c0.2-0.67,0.2-0.67-0.33-1.08
			c-2.12-1.65-4.5-2.62-7.21-2.82c-2.67-0.2-5.1,0.48-7.39,1.79C9.03,4.24,8.89,4.49,8.9,4.87C8.92,5.7,8.91,6.53,8.92,7.36
			c0.01,1.31-0.55,2.38-1.5,3.23c-0.56,0.5-1.18,0.92-1.94,1.08c-0.33,0.07-0.43,0.28-0.42,0.59c0.02,0.87,0.03,1.75,0.04,2.62
			c0,0.28,0.12,0.44,0.37,0.58c0.44,0.23,0.87,0.49,1.14,0.95c0.24,0.42,0.39,0.87,0.39,1.36c0,3.2,0,6.41,0,9.61
			c0,1.79-1.67,2.71-3,2.46c-1.03-0.19-1.93-1.12-2.04-2.17c-0.02-0.23-0.02-0.46-0.02-0.69c-0.01-2.37-0.01-4.74-0.01-7.12
			c0-0.64,0-1.29,0.02-1.93c0.03-1.08,0.52-1.91,1.47-2.42c0.32-0.17,0.44-0.37,0.44-0.73c-0.02-0.89-0.01-1.79,0-2.68
			c0-0.28-0.1-0.42-0.37-0.49c-2.08-0.52-3.43-2.1-3.47-4.18c-0.04-2.21-0.01-4.41-0.01-6.62c0-0.08,0-0.17,0.02-0.25
			C0.09,0.25,0.31,0.03,0.6,0.01c0.32-0.03,0.52,0.16,0.63,0.42c0.08,0.18,0.09,0.4,0.09,0.61c0,2.08,0,4.16,0,6.24
			c0,1.26,0.56,2.19,1.65,2.81c0.12,0.07,0.26,0.14,0.4,0.17c0.28,0.06,0.44-0.05,0.47-0.34c0.02-0.19,0-0.37,0-0.56
			c0-2.73,0-5.45,0-8.18c0-0.19-0.01-0.38,0.01-0.56C3.9,0.24,4.14,0.02,4.46,0.02c0.33,0,0.57,0.21,0.61,0.58
			C5.1,0.76,5.09,0.93,5.09,1.1C5.08,4.01,5.08,6.92,5.07,9.83c0,0.42,0.2,0.56,0.6,0.41c1.28-0.48,2.07-1.82,1.99-3.22
			C7.6,6.11,7.64,5.19,7.64,4.28c0-1.06,0-2.12,0-3.18c0-0.19,0-0.38,0.04-0.56C7.76,0.17,8.02-0.02,8.35,0
			c0.29,0.02,0.5,0.23,0.54,0.59C8.91,0.9,8.9,1.22,8.9,1.53c0,0.19-0.01,0.38,0,0.56C8.95,2.57,9.12,2.68,9.56,2.5
			C9.63,2.47,9.7,2.43,9.78,2.39c1.35-0.68,2.77-1.1,4.27-1.28c1.37-0.17,2.73-0.22,4.1,0.02c2.2,0.39,4.23,1.2,6.04,2.54
			c0.85,0.63,0.86,0.63,1.49-0.24c0.87-1.2,1.85-2.3,3.06-3.18c0.25-0.18,0.49-0.33,0.8-0.18c0.3,0.14,0.39,0.41,0.39,0.72
			c0,0.15,0,0.29,0,0.44C29.92,5.81,29.92,10.39,29.92,14.97C29.92,14.97,29.92,14.97,29.92,14.97z M28.61,8.75
			C28.61,8.75,28.61,8.75,28.61,8.75c0-1.85,0-3.7,0-5.55c0-0.15,0.01-0.29-0.01-0.44c-0.05-0.3-0.25-0.39-0.49-0.22
			C28,2.61,27.92,2.71,27.83,2.8c-0.87,0.93-1.58,1.97-2.09,3.15c-0.57,1.29-0.75,2.63-0.49,4.01c0.34,1.84,1.34,3.33,2.58,4.68
			c0.14,0.15,0.4,0.33,0.56,0.3c0.31-0.06,0.22-0.4,0.22-0.63C28.61,12.45,28.61,10.6,28.61,8.75z M5.74,22.63c0-0.75,0-1.5,0-2.24
			c0-0.85,0-1.7,0-2.56c0-0.42-0.12-0.77-0.49-1.02c-0.44-0.3-0.92-0.41-1.4-0.13c-0.48,0.29-0.73,0.72-0.7,1.3
			c0.02,0.33,0.04,0.66,0.04,1c0,2.62,0,5.24,0,7.85c0,0.19-0.01,0.38,0.01,0.56c0.07,0.68,0.58,1.16,1.23,1.18
			c0.74,0.02,1.3-0.5,1.31-1.27C5.75,25.75,5.74,24.19,5.74,22.63z"/>
		<path class="st1" d="M9.57,15.03c-0.05-3.54,2.69-6.37,6.23-6.44c3.61-0.07,6.42,2.83,6.45,6.3c0.03,3.49-2.76,6.37-6.28,6.41
			C12.4,21.33,9.57,18.45,9.57,15.03z M10.84,14.89c-0.03,2.8,2.19,5.09,5.02,5.14c2.78,0.04,5.1-2.25,5.14-5.03
			c0.04-2.7-2.21-5.14-5.1-5.14C13.13,9.86,10.8,12.2,10.84,14.89z"/>
	</g>
</g>
<g id="Guias" class="st31">
</g>
</svg>
