<svg id="Capa_1" data-name="Capa 1" xmlns="http://www.w3.org/2000/svg" viewBox="0 0 95.96 83.19"><defs><style>.cls-1{fill:#484848;}</style></defs><path class="cls-1" d="M83.15,19.67a11.89,11.89,0,0,1-3.82,8.63Q60.16,47.38,41.06,66.53c-4.13,4.13-8.2,8.31-12.42,12.33a7.14,7.14,0,0,1-3.71,1.84c-7,.92-14.13,1.67-21.21,2.42A3.2,3.2,0,0,1,0,79.37c.76-7.16,1.54-14.31,2.45-21.44a5.78,5.78,0,0,1,1.57-3.12Q29.72,29,55.47,3.34C59.87-1,65.83-1.11,70.28,3.17c3.33,3.2,6.57,6.5,9.8,9.8A10,10,0,0,1,83.15,19.67ZM50,17.22a20.52,20.52,0,0,1-1.48,1.91C37,30.71,25.55,42.4,13.79,53.77c-3.56,3.44-5.93,6.92-5.95,12,0,3.5-.66,7-1,10.67,5.33-.61,10.31-1.08,15.24-1.82a7.34,7.34,0,0,0,3.83-1.91C38.62,60.09,51.29,47.36,64,34.7a10.64,10.64,0,0,1,2.38-1.37Zm5.26-4.94L70.78,27.82c.31-.3.82-.75,1.29-1.23,1.19-1.17,2.4-2.31,3.52-3.55,1.72-1.89,1.74-3.8,0-5.64q-4.81-5-9.8-9.8a3.65,3.65,0,0,0-5.48-.12C58.48,9.09,56.8,10.82,55.3,12.28Z"/><path class="cls-1" d="M67.32,76.85c8.33,0,16.67,0,25,0,2.17,0,3.68,1.4,3.63,3.21s-1.47,3-3.54,3.11c-.46,0-.91,0-1.37,0H43.3c-.45,0-.91,0-1.36,0-2.15-.12-3.42-1.3-3.44-3.15s1.24-3.16,3.58-3.17C50.49,76.83,58.9,76.85,67.32,76.85Z"/><path class="cls-1" d="M27.66,59.35c-1.22-1.21-2.59-2.6-3.82-3.82L48.34,31l3.64,4Z"/></svg>