<?xml version="1.0" encoding="utf-8"?>
<!-- Generator: Adobe Illustrator 25.0.1, SVG Export Plug-In . SVG Version: 6.00 Build 0)  -->
<svg version="1.1" xmlns="http://www.w3.org/2000/svg" xmlns:xlink="http://www.w3.org/1999/xlink" x="0px" y="0px"
	 viewBox="0 0 28.74 26.19" style="enable-background:new 0 0 28.74 26.19;" xml:space="preserve">
<style type="text/css">
	.st0{fill:#FFFFFF;}
	.st1{fill:#EF251B;}
	.st2{clip-path:url(#SVGID_2_);}
	.st3{opacity:0.6;}
	.st4{fill:none;stroke:#FFFFFF;stroke-width:0.6;stroke-miterlimit:10;}
	.st5{clip-path:url(#SVGID_14_);}
	.st6{opacity:0.69;fill:#FFFFFF;}
	.st7{fill:none;stroke:#000000;stroke-width:0.6;stroke-miterlimit:10;}
	.st8{fill:#48B577;}
	.st9{fill:none;stroke:#000000;stroke-width:0.7126;stroke-miterlimit:10;}
	.st10{fill:none;stroke:#000000;stroke-width:1.081;stroke-linecap:round;stroke-linejoin:round;stroke-miterlimit:10;}
	.st11{opacity:0.76;fill:#FFFFFF;}
	.st12{fill:none;stroke:#000000;stroke-width:1.4614;stroke-linecap:round;stroke-linejoin:round;stroke-miterlimit:10;}
	.st13{fill:none;stroke:#FFFFFF;stroke-width:3.4909;stroke-linecap:round;stroke-linejoin:round;stroke-miterlimit:10;}
	.st14{fill:none;stroke:#000000;stroke-width:0.5;stroke-miterlimit:10;}
	.st15{fill:none;stroke:#FFFFFF;stroke-width:0.7126;stroke-miterlimit:10;}
	.st16{fill:#FFD400;}
	.st17{fill:#141A7F;}
	.st18{fill:#D80A00;}
	.st19{clip-path:url(#SVGID_54_);}
	.st20{fill:#FFFFFF;stroke:#48B577;stroke-width:0.9214;stroke-miterlimit:10;}
	.st21{opacity:0.76;fill:#FFFFFF;stroke:#48B577;stroke-miterlimit:10;}
	.st22{opacity:0.76;fill:none;stroke:#000000;stroke-width:0.8296;stroke-miterlimit:10;}
	.st23{fill:none;stroke:#EF251B;stroke-width:2.3908;stroke-miterlimit:10;}
	.st24{fill:#DBDBDB;}
	.st25{fill-rule:evenodd;clip-rule:evenodd;fill:#EF251B;}
	.st26{fill-rule:evenodd;clip-rule:evenodd;fill:#FFFFFF;}
	.st27{fill:none;stroke:#000000;stroke-width:0.418;stroke-miterlimit:10;}
	.st28{fill:none;stroke:#E62C23;stroke-width:1.0624;stroke-miterlimit:10;}
	.st29{fill:none;stroke:#000000;stroke-width:0.5312;stroke-miterlimit:10;}
	.st30{fill:none;stroke:#E62C23;stroke-width:1.1168;stroke-miterlimit:10;}
	.st31{display:none;}
	.st32{display:inline;}
	.st33{fill:none;stroke:#000000;stroke-width:0.4774;stroke-miterlimit:10;}
	.st34{fill:none;stroke:#000000;stroke-width:0.4623;stroke-miterlimit:10;}
</style>
<g id="Arte">
	<g>
		<path class="st1" d="M2.14,22.82c0-0.14,0-0.28,0-0.43c0-6.71,0-13.42,0-20.13C2.14,0.91,3.04,0,4.41,0c6.65,0,13.31,0,19.96,0
			c1.32,0,2.22,0.91,2.22,2.24c0,6.71,0,13.42,0,20.13c0,0.56-0.07,0.51,0.53,0.52c0.37,0,0.74,0,1.11,0
			c0.35,0.01,0.49,0.14,0.5,0.49c0.01,0.77,0.01,1.53,0,2.3c0,0.36-0.16,0.5-0.52,0.51c-0.1,0-0.2,0-0.3,0c-9.05,0-18.1,0-27.16,0
			C0.07,26.19,0,26.11,0,25.44c0-0.61,0-1.22,0-1.82c0-0.66,0.06-0.72,0.74-0.73c0.43,0,0.86-0.01,1.28-0.01
			C2.05,22.87,2.08,22.85,2.14,22.82z M21.55,5.66c0,0.19,0,0.36,0,0.52c0,2.93,0,5.85,0,8.78c0,2.49,0,4.98,0,7.47
			c0,0.45,0,0.45,0.46,0.45c1.11,0,2.23,0,3.34,0c0.13,0,0.26-0.01,0.42-0.02c0-0.14,0-0.26,0-0.37c0-6.73,0-13.47,0-20.2
			c0-0.93-0.53-1.47-1.47-1.47c-6.63,0-13.27,0-19.9,0c-0.91,0-1.46,0.54-1.46,1.45c0,6.76,0,13.51-0.01,20.27
			c0,0.26,0.06,0.35,0.34,0.35c1.19-0.01,2.39-0.01,3.58-0.01c0.1,0,0.19-0.02,0.33-0.03c0-5.74,0-11.46,0-17.19
			C12,5.66,16.75,5.66,21.55,5.66z M8.02,6.48c0,5.48,0,10.91,0,16.37c1.99,0,3.95,0,5.93,0c0-5.47,0-10.91,0-16.37
			C11.96,6.48,10.01,6.48,8.02,6.48z M14.8,22.85c1.98,0,3.94,0,5.92,0c0-5.47,0-10.91,0-16.37c-1.98,0-3.94,0-5.92,0
			C14.8,11.94,14.8,17.39,14.8,22.85z M0.85,25.33c9.04,0,18.04,0,27.05,0c0-0.55,0-1.08,0-1.61c-9.03,0-18.03,0-27.05,0
			C0.85,24.27,0.85,24.79,0.85,25.33z"/>
		<path class="st1" d="M17.87,4.93c-0.15-0.12-0.31-0.18-0.38-0.3c-0.45-0.75-0.89-1.51-1.32-2.27C16,2.03,16.18,1.72,16.55,1.72
			c0.88-0.01,1.75-0.01,2.63,0c0.37,0.01,0.54,0.31,0.36,0.64c-0.43,0.76-0.87,1.52-1.32,2.27C18.15,4.74,18.01,4.81,17.87,4.93z
			 M17.24,2.56c0.21,0.37,0.4,0.69,0.62,1.07c0.22-0.38,0.41-0.7,0.62-1.07C18.04,2.56,17.67,2.56,17.24,2.56z"/>
		<path class="st1" d="M10.89,4.86c-0.43,0-0.85,0.01-1.28,0C9.19,4.85,9.02,4.56,9.22,4.2c0.42-0.74,0.84-1.48,1.28-2.22
			c0.21-0.36,0.56-0.36,0.77-0.01c0.44,0.73,0.86,1.47,1.28,2.22c0.2,0.36,0.04,0.66-0.38,0.67C11.74,4.87,11.31,4.86,10.89,4.86z
			 M10.27,4.02c0.43,0,0.8,0,1.23,0c-0.21-0.37-0.4-0.69-0.61-1.07C10.66,3.33,10.48,3.66,10.27,4.02z"/>
	</g>
</g>
<g id="Guias" class="st31">
</g>
</svg>
