<svg id="Arte" xmlns="http://www.w3.org/2000/svg" xmlns:xlink="http://www.w3.org/1999/xlink" viewBox="0 0 45.37 45.37"><defs><style>.cls-1{fill:none;}.cls-2{clip-path:url(#clip-path);}.cls-3{fill:#ef251b;}.cls-4{fill:#fff;fill-rule:evenodd;}</style><clipPath id="clip-path"><rect class="cls-1" x="-836.83" y="200.89" width="2043.29" height="709.46"/></clipPath></defs><g class="cls-2"><image width="3558" height="2372" transform="translate(-837.64 -114.59) scale(0.57)" xlink:href="../../Imagenes/beautiful-shot-cayo-cangrejo-providencia-colombia-with-cloudy-blue-sky.jpg"/></g><rect class="cls-3" width="45.37" height="45.37" rx="7.93"/><path class="cls-4" d="M19.3,23.24V37.65a.38.38,0,0,0,.38.38H25a.38.38,0,0,0,.38-.38V23h3.88a.36.36,0,0,0,.37-.34L30,18.24a.37.37,0,0,0-.38-.4H25.41V14.7a1.32,1.32,0,0,1,1.33-1.32h3a.38.38,0,0,0,.38-.38V8.59a.38.38,0,0,0-.38-.38H24.68a5.37,5.37,0,0,0-5.38,5.37v4.26H16.63a.37.37,0,0,0-.38.37v4.42a.38.38,0,0,0,.38.37H19.3Z"/></svg>