<?xml version="1.0" encoding="utf-8"?>
<!-- Generator: Adobe Illustrator 25.0.1, SVG Export Plug-In . SVG Version: 6.00 Build 0)  -->
<svg version="1.1" xmlns="http://www.w3.org/2000/svg" xmlns:xlink="http://www.w3.org/1999/xlink" x="0px" y="0px"
	 viewBox="0 0 30.24 30.23" style="enable-background:new 0 0 30.24 30.23;" xml:space="preserve">
<style type="text/css">
	.st0{fill:#FFFFFF;}
	.st1{fill:#EF251B;}
	.st2{clip-path:url(#SVGID_2_);}
	.st3{opacity:0.6;}
	.st4{fill:none;stroke:#FFFFFF;stroke-width:0.6;stroke-miterlimit:10;}
	.st5{clip-path:url(#SVGID_14_);}
	.st6{opacity:0.69;fill:#FFFFFF;}
	.st7{fill:none;stroke:#000000;stroke-width:0.6;stroke-miterlimit:10;}
	.st8{fill:#48B577;}
	.st9{fill:none;stroke:#000000;stroke-width:0.7126;stroke-miterlimit:10;}
	.st10{fill:none;stroke:#000000;stroke-width:1.081;stroke-linecap:round;stroke-linejoin:round;stroke-miterlimit:10;}
	.st11{opacity:0.76;fill:#FFFFFF;}
	.st12{fill:none;stroke:#000000;stroke-width:1.4614;stroke-linecap:round;stroke-linejoin:round;stroke-miterlimit:10;}
	.st13{fill:none;stroke:#FFFFFF;stroke-width:3.4909;stroke-linecap:round;stroke-linejoin:round;stroke-miterlimit:10;}
	.st14{fill:none;stroke:#000000;stroke-width:0.5;stroke-miterlimit:10;}
	.st15{fill:none;stroke:#FFFFFF;stroke-width:0.7126;stroke-miterlimit:10;}
	.st16{fill:#FFD400;}
	.st17{fill:#141A7F;}
	.st18{fill:#D80A00;}
	.st19{clip-path:url(#SVGID_54_);}
	.st20{fill:#FFFFFF;stroke:#48B577;stroke-width:0.9214;stroke-miterlimit:10;}
	.st21{opacity:0.76;fill:#FFFFFF;stroke:#48B577;stroke-miterlimit:10;}
	.st22{opacity:0.76;fill:none;stroke:#000000;stroke-width:0.8296;stroke-miterlimit:10;}
	.st23{fill:none;stroke:#EF251B;stroke-width:2.3908;stroke-miterlimit:10;}
	.st24{fill:#DBDBDB;}
	.st25{fill-rule:evenodd;clip-rule:evenodd;fill:#EF251B;}
	.st26{fill-rule:evenodd;clip-rule:evenodd;fill:#FFFFFF;}
	.st27{fill:none;stroke:#000000;stroke-width:0.418;stroke-miterlimit:10;}
	.st28{fill:none;stroke:#E62C23;stroke-width:1.0624;stroke-miterlimit:10;}
	.st29{fill:none;stroke:#000000;stroke-width:0.5312;stroke-miterlimit:10;}
	.st30{fill:none;stroke:#E62C23;stroke-width:1.1168;stroke-miterlimit:10;}
	.st31{display:none;}
	.st32{display:inline;}
	.st33{fill:none;stroke:#000000;stroke-width:0.4774;stroke-miterlimit:10;}
	.st34{fill:none;stroke:#000000;stroke-width:0.4623;stroke-miterlimit:10;}
</style>
<g id="Arte">
	<g>
		<path class="st1" d="M21.83,12.43c-3.14,3.15-6.25,6.27-9.42,9.45c0.36,0.38,0.74,0.79,1.13,1.19c0.41,0.42,0.83,0.83,1.26,1.24
			c0.66,0.64,0.65,1.65,0.09,2.29c-0.49,0.57-1.01,1.14-1.57,1.63c-0.6,0.52-1.51,0.75-2.3,0.1c-0.37-0.31-0.45-0.29-0.8,0.04
			c-0.42,0.41-0.84,0.83-1.24,1.26c-0.75,0.8-1.86,0.79-2.57,0.04c-0.57-0.59-1.16-1.16-1.74-1.73c-0.09-0.09-0.17-0.19-0.26-0.27
			c-0.42-0.38-0.51-0.38-0.94,0.02c-0.43,0.41-0.83,0.83-1.25,1.24c-0.39,0.38-0.76,0.43-1.05,0.15c-0.29-0.28-0.26-0.66,0.11-1.04
			c0.44-0.45,0.9-0.89,1.33-1.34c0.34-0.36,0.35-0.43,0.01-0.79c-0.45-0.47-0.92-0.92-1.38-1.38c-0.25-0.25-0.51-0.5-0.74-0.77
			c-0.7-0.85-0.67-1.68,0.08-2.48c0.38-0.39,0.78-0.76,1.17-1.15c0.45-0.46,0.45-0.46,0.09-0.99c-0.51-0.75-0.45-1.59,0.17-2.25
			c0.45-0.47,0.93-0.91,1.37-1.4c0.67-0.75,1.95-0.72,2.65,0.03c0.66,0.71,1.36,1.37,2.05,2.05c0.09,0.09,0.19,0.16,0.27,0.23
			c0.48-0.25,8.97-8.7,9.47-9.43c-0.39-0.4-0.78-0.83-1.19-1.24c-0.4-0.4-0.82-0.79-1.21-1.2c-0.68-0.72-0.69-1.71-0.01-2.44
			c0.49-0.52,0.99-1.03,1.52-1.51c0.62-0.57,1.5-0.6,2.21-0.11c0.51,0.35,0.51,0.35,0.94-0.07c0.39-0.38,0.77-0.78,1.16-1.16
			c0.84-0.83,1.66-0.86,2.55-0.06c0.59,0.53,1.14,1.12,1.71,1.67C25.75,2.48,26,2.7,26.3,2.97c0.31-0.29,0.59-0.53,0.85-0.79
			c0.33-0.32,0.64-0.67,0.98-0.98c0.32-0.29,0.71-0.27,0.96-0.01c0.23,0.25,0.23,0.6-0.06,0.91c-0.44,0.48-0.92,0.92-1.37,1.39
			c-0.4,0.41-0.4,0.53,0,0.94c0.47,0.48,0.96,0.94,1.44,1.41c0.24,0.24,0.48,0.47,0.69,0.74c0.61,0.77,0.59,1.54-0.06,2.28
			c-0.42,0.47-0.89,0.9-1.33,1.35c-0.37,0.39-0.37,0.41-0.07,0.84c0.58,0.83,0.51,1.68-0.2,2.39c-0.45,0.45-0.88,0.9-1.34,1.34
			c-0.79,0.74-1.82,0.71-2.58-0.05c-0.71-0.71-1.43-1.42-2.15-2.13C22,12.54,21.93,12.5,21.83,12.43z M27.49,12.14
			c-0.18-0.22-0.34-0.44-0.52-0.63c-2.27-2.27-4.55-4.54-6.82-6.81c-0.56-0.56-1.12-1.14-1.7-1.69c-0.28-0.27-0.44-0.28-0.71-0.02
			c-0.49,0.46-0.95,0.95-1.41,1.44c-0.17,0.18-0.16,0.38,0,0.57c0.08,0.09,0.18,0.18,0.27,0.27c1.51,1.52,3.02,3.04,4.54,4.55
			c1.31,1.31,2.62,2.61,3.93,3.91c0.4,0.4,0.51,0.41,0.89,0.06c0.41-0.39,0.81-0.79,1.21-1.2C27.27,12.46,27.36,12.32,27.49,12.14z
			 M11.43,20.85c3.16-3.14,6.29-6.26,9.43-9.44c-0.7-0.7-1.33-1.33-2-2.01c-0.22,0.19-0.42,0.33-0.59,0.5
			c-2.81,2.8-5.62,5.61-8.43,8.42c-0.16,0.16-0.28,0.34-0.43,0.53C10.08,19.53,10.7,20.14,11.43,20.85z M2.72,18.13
			c0.25,0.29,0.48,0.56,0.72,0.81c1.72,1.72,3.46,3.43,5.18,5.15c1.01,1.01,2.01,2.03,3.03,3.03c0.44,0.43,0.54,0.43,0.98,0
			c0.35-0.33,0.68-0.68,1.02-1.03c0.48-0.49,0.48-0.6,0-1.08c-1.51-1.52-3.02-3.03-4.54-4.55c-1.31-1.31-2.62-2.61-3.93-3.91
			c-0.43-0.42-0.57-0.43-0.99-0.03c-0.35,0.34-0.7,0.67-1.03,1.01C3.01,17.7,2.89,17.9,2.72,18.13z M28.95,7.63
			c-0.16-0.2-0.3-0.41-0.48-0.58c-1.06-1.08-2.13-2.15-3.2-3.22c-0.76-0.76-1.51-1.52-2.28-2.26c-0.35-0.34-0.5-0.33-0.86,0
			c-0.41,0.39-0.81,0.79-1.2,1.2c-0.36,0.38-0.36,0.49,0.03,0.88c1.66,1.67,3.32,3.34,4.98,5c0.25,0.25,0.51,0.5,0.77,0.74
			c0.19,0.18,0.4,0.23,0.61,0.02c0.46-0.46,0.93-0.92,1.38-1.38C28.8,7.94,28.85,7.8,28.95,7.63z M3.24,20.64
			c-0.13,0.07-0.26,0.11-0.34,0.19c-0.47,0.45-0.94,0.9-1.38,1.38c-0.27,0.28-0.25,0.46,0.03,0.77c0.31,0.34,0.65,0.66,0.98,0.98
			c1.53,1.53,3.06,3.06,4.58,4.59c0.06,0.06,0.12,0.12,0.18,0.17c0.31,0.25,0.48,0.26,0.77-0.02c0.43-0.4,0.84-0.82,1.25-1.25
			c0.35-0.37,0.35-0.44-0.02-0.82c-0.42-0.44-0.86-0.86-1.29-1.3c-1.45-1.46-2.9-2.92-4.36-4.37C3.51,20.85,3.38,20.76,3.24,20.64z"
			/>
	</g>
</g>
<g id="Guias" class="st31">
</g>
</svg>
