<?xml version="1.0" encoding="utf-8"?>
<!-- Generator: Adobe Illustrator 25.0.1, SVG Export Plug-In . SVG Version: 6.00 Build 0)  -->
<svg version="1.1" xmlns="http://www.w3.org/2000/svg" xmlns:xlink="http://www.w3.org/1999/xlink" x="0px" y="0px"
	 viewBox="0 0 30.07 55.66" style="enable-background:new 0 0 30.07 55.66;" xml:space="preserve">
<style type="text/css">
	.st0{fill:#FFFFFF;}
	.st1{fill:#EF251B;}
	.st2{clip-path:url(#SVGID_2_);}
	.st3{opacity:0.6;}
	.st4{fill:none;stroke:#FFFFFF;stroke-width:0.6;stroke-miterlimit:10;}
	.st5{clip-path:url(#SVGID_14_);}
	.st6{opacity:0.69;fill:#FFFFFF;}
	.st7{fill:none;stroke:#000000;stroke-width:0.6;stroke-miterlimit:10;}
	.st8{fill:#48B577;}
	.st9{fill:none;stroke:#000000;stroke-width:0.7126;stroke-miterlimit:10;}
	.st10{fill:none;stroke:#000000;stroke-width:1.081;stroke-linecap:round;stroke-linejoin:round;stroke-miterlimit:10;}
	.st11{opacity:0.76;fill:#FFFFFF;}
	.st12{fill:none;stroke:#000000;stroke-width:1.4614;stroke-linecap:round;stroke-linejoin:round;stroke-miterlimit:10;}
	.st13{fill:none;stroke:#FFFFFF;stroke-width:3.4909;stroke-linecap:round;stroke-linejoin:round;stroke-miterlimit:10;}
	.st14{fill:none;stroke:#000000;stroke-width:0.5;stroke-miterlimit:10;}
	.st15{fill:none;stroke:#FFFFFF;stroke-width:0.7126;stroke-miterlimit:10;}
	.st16{fill:#FFD400;}
	.st17{fill:#141A7F;}
	.st18{fill:#D80A00;}
	.st19{clip-path:url(#SVGID_54_);}
	.st20{fill:#FFFFFF;stroke:#48B577;stroke-width:0.9214;stroke-miterlimit:10;}
	.st21{opacity:0.76;fill:#FFFFFF;stroke:#48B577;stroke-miterlimit:10;}
	.st22{opacity:0.76;fill:none;stroke:#000000;stroke-width:0.8296;stroke-miterlimit:10;}
	.st23{fill:none;stroke:#EF251B;stroke-width:2.3908;stroke-miterlimit:10;}
	.st24{fill:#DBDBDB;}
	.st25{fill-rule:evenodd;clip-rule:evenodd;fill:#EF251B;}
	.st26{fill-rule:evenodd;clip-rule:evenodd;fill:#FFFFFF;}
	.st27{fill:none;stroke:#000000;stroke-width:0.418;stroke-miterlimit:10;}
	.st28{fill:none;stroke:#E62C23;stroke-width:1.0624;stroke-miterlimit:10;}
	.st29{fill:none;stroke:#000000;stroke-width:0.5312;stroke-miterlimit:10;}
	.st30{fill:none;stroke:#E62C23;stroke-width:1.1168;stroke-miterlimit:10;}
	.st31{display:none;}
	.st32{display:inline;}
	.st33{fill:none;stroke:#000000;stroke-width:0.4774;stroke-miterlimit:10;}
	.st34{fill:none;stroke:#000000;stroke-width:0.4623;stroke-miterlimit:10;}
</style>
<g id="Arte">
	<g>
		<path class="st1" d="M30.07,51.96c-1.02,0.05-1.83,0.09-2.78,0.13c-0.4,1.51-0.09,3.72-2.61,3.55c-2.06-0.14-2.01-1.84-2.12-3.47
			c-4.97,0-9.92,0-15.01,0c-0.19,1.57-0.05,3.54-2.39,3.47c-2.19-0.06-2.1-1.88-2.25-3.51C1.96,52.08,1.08,52.01,0,51.94
			C0,34.67,0,17.4,0,0c9.98,0,19.93,0,30.07,0C30.07,17.25,30.07,34.52,30.07,51.96z M28.83,18.9c-9.33,0-18.43,0-27.57,0
			c0,9.91,0,20.75,0,30.59c9.23,0,18.34,0,27.57,0C28.83,39.63,28.83,28.8,28.83,18.9z M1.27,17.21c9.3,0,18.4,0,27.57,0
			c0-5.35,0-10.52,0-15.84c-9.23,0-18.33,0-27.57,0C1.27,6.68,1.27,11.86,1.27,17.21z M1.32,50c0.01,0.13,0.02,0.26,0.03,0.38
			c9.14,0,18.27,0,27.41,0c0-0.13-0.01-0.26-0.01-0.38C19.61,50,10.47,50,1.32,50z"/>
		<path class="st1" d="M4.36,12.77l-0.26,0c-0.24,0-0.44-0.2-0.44-0.44V7.47c0-0.24,0.2-0.44,0.44-0.44l0.26,0
			c0.24,0,0.44,0.2,0.44,0.44v4.86C4.8,12.57,4.61,12.77,4.36,12.77z"/>
		<path class="st1" d="M4.13,39.45H3.76c-0.36,0-0.65-0.29-0.65-0.65V25.58c0-0.36,0.29-0.65,0.65-0.65h0.37
			c0.36,0,0.65,0.29,0.65,0.65V38.8C4.78,39.16,4.49,39.45,4.13,39.45z"/>
	</g>
</g>
<g id="Guias" class="st31">
</g>
</svg>
