<svg id="Arte" xmlns="http://www.w3.org/2000/svg" viewBox="0 0 68.17 68.13"><defs><style>.cls-1{fill:#ef251b;}</style></defs><path class="cls-1" d="M34.05,67a32.95,32.95,0,1,1,33-32.89A33,33,0,0,1,34.05,67Zm0-63A30.07,30.07,0,1,0,64.17,34.06,30.12,30.12,0,0,0,34.06,4Z"/><path class="cls-1" d="M29.53,46.52a3.38,3.38,0,0,1-1.83-1.14s-7.1-7.11-9.25-9.23a1.85,1.85,0,0,1-.7-2,1.62,1.62,0,0,1,1.59-1.24,1.92,1.92,0,0,1,1.35.58c1.75,1.67,8,8.1,8.56,8.14.05,0,.33.09.38.09.51,0,.76-.28,1.12-.65,0,0,17.67-17.68,17.92-17.89a1.82,1.82,0,0,1,1.12-.4,1.69,1.69,0,0,1,1.18.47,1.74,1.74,0,0,1,.13,2.34c-.21.26-19.72,19.78-19.72,19.78A3.41,3.41,0,0,1,29.53,46.52Z"/></svg>