<svg id="Arte" xmlns="http://www.w3.org/2000/svg" viewBox="0 0 68.84 68.8"><defs><style>.cls-1{fill:#ef251b;}.cls-2{fill:#fd3b34;}</style></defs><path class="cls-1" d="M34.38,67.35a32.95,32.95,0,1,1,33-32.89A33,33,0,0,1,34.38,67.35Zm0-63A30.07,30.07,0,1,0,64.5,34.39,30.13,30.13,0,0,0,34.39,4.33Z"/><path class="cls-2" d="M48.8,26.81s0,0,0,0,0,0,0,.12h0S48.8,26.83,48.8,26.81Z"/><path class="cls-2" d="M34.52,25a10.41,10.41,0,0,0-1.84.17c-3.35.69-6.05,3.37-7.61,6.86,0,.09-.43,1-.1,1.14S26.85,31.28,27.1,31A1,1,0,0,1,28,30.6a1.11,1.11,0,0,1,.83.41c.55.67-.08,1.3-.28,1.51L26.8,34.26a6.62,6.62,0,0,0-1.58,2.58c-.3.86-.09,1.1.18,1.24a.43.43,0,0,0,.14,0c.56.06,2.22-2.79,4.5-4.46a1.83,1.83,0,0,1,1-.47.94.94,0,0,1,.65.28c.71.68.11,1.34-.19,1.66l-1,.94C29.28,37.3,27,39.82,27,39.82a1.1,1.1,0,0,0,.09,1.62c.19.21.32.24.41.24a1.73,1.73,0,0,0,.77-.37l.15-.11c.65-.43,4.93-4,4.93-4a1.49,1.49,0,0,1,1-.53.91.91,0,0,1,.63.27,1,1,0,0,1,.36.71,1.54,1.54,0,0,1-.59,1.06s-1.52,1.47-2.14,2-3.07,2.53-3.07,2.53c-.62.51-.78.77-.45,1.22a.94.94,0,0,0,.75.48,1.24,1.24,0,0,0,.66-.24,32.4,32.4,0,0,0,5.42-4.09c2.46-2.43,2.49-2.74.58-5.64a3.7,3.7,0,0,1-.24-4.37c.36-.54.94-1.27,1.74-1.27a4.59,4.59,0,0,1,2.36,1.26A12.68,12.68,0,0,1,44,35a3.28,3.28,0,0,0,.06-1.43A9.68,9.68,0,0,0,34.52,25Z"/><path class="cls-2" d="M50.53,25.39,36.12,11.69a2.41,2.41,0,0,0-3.33,0L18.37,25.39a2.4,2.4,0,0,0-.75,1.75V50.88a2.41,2.41,0,0,0,1.86,2.35,20.51,20.51,0,0,0,4.6.53,16.59,16.59,0,0,0,10.37-3.43c5.71,4.45,12.32,3.53,15,2.9a2.41,2.41,0,0,0,1.85-2.35V27.14A2.4,2.4,0,0,0,50.53,25.39Zm-1.4,25.49a.26.26,0,0,1-.2.25c-2.32.55-8.06,1.35-13-2.39a35.75,35.75,0,0,0,4-4.37,11,11,0,0,0,2.77-6.81c.14-2.63-2-4.19-4-5.71-.87-.65-1.13.21-1.1.95s.72,1.44,1.15,2.11c1.35,2.1,1.27,3.58-.29,5.56a24.45,24.45,0,0,1-5.17,4.46c-3,2.17-2.53,1.61-.39,3.89C28,52.47,22.28,51.68,20,51.13a.26.26,0,0,1-.19-.25V27.14a.24.24,0,0,1,.08-.19l14.41-13.7a.26.26,0,0,1,.18-.07.24.24,0,0,1,.18.07L49.05,27a.27.27,0,0,1,.08.19Z"/></svg>