<svg id="Arte" xmlns="http://www.w3.org/2000/svg" viewBox="0 0 69.58 69.55"><defs><style>.cls-1{fill:#ef251b;}</style></defs><path class="cls-1" d="M34.76,67.72a32.95,32.95,0,1,1,33-32.89A33,33,0,0,1,34.76,67.72Zm0-63A30.07,30.07,0,1,0,64.88,34.77,30.12,30.12,0,0,0,34.76,4.71Z"/><path class="cls-1" d="M34.88,50.56a19.22,19.22,0,0,1-13.82-6A1.44,1.44,0,1,1,23,42.43c.62.56,1.2,1.17,1.86,1.67,5.62,4.27,11.61,4.67,17.84,1.48a21.1,21.1,0,0,0,3-2.17,10,10,0,0,0,.75-.71c.89-.85,1.74-1,2.37-.31s.45,1.53-.39,2.38A19.07,19.07,0,0,1,34.88,50.56Z"/><path class="cls-1" d="M23.3,24.75a7.16,7.16,0,0,1,7.17,6.61c.11,1.14-.36,1.87-1.27,2s-1.51-.52-1.61-1.67a4.28,4.28,0,0,0-8.53-.14c0,.19,0,.39-.08.58a1.34,1.34,0,0,1-1.54,1.23,1.37,1.37,0,0,1-1.25-1.53,6.58,6.58,0,0,1,1.74-4.56A7.08,7.08,0,0,1,23.3,24.75Z"/><path class="cls-1" d="M53.37,31.1c.05,1.51-.38,2.11-1.21,2.2s-1.48-.41-1.6-1.49a4.39,4.39,0,0,0-2.31-3.69A4.28,4.28,0,0,0,42,31.54c-.11,1.52-1.17,2.23-2.27,1.53a1.45,1.45,0,0,1-.62-1.47A6.87,6.87,0,0,1,43,25.55a6.76,6.76,0,0,1,7.24.45A6.58,6.58,0,0,1,53.37,31.1Z"/></svg>