<svg id="Arte" xmlns="http://www.w3.org/2000/svg" xmlns:xlink="http://www.w3.org/1999/xlink" viewBox="0 0 45.37 45.37"><defs><style>.cls-1{fill:none;}.cls-2{clip-path:url(#clip-path);}.cls-3{fill:#ef251b;}.cls-4{fill:#fff;}</style><clipPath id="clip-path"><rect class="cls-1" x="-959.15" y="200.89" width="2043.29" height="709.46"/></clipPath></defs><g class="cls-2"><image width="3558" height="2372" transform="translate(-959.96 -114.59) scale(0.57)" xlink:href="../../Imagenes/beautiful-shot-cayo-cangrejo-providencia-colombia-with-cloudy-blue-sky.jpg"/></g><rect class="cls-3" width="45.37" height="45.37" rx="7.93"/><path class="cls-4" d="M30.67,13a1.79,1.79,0,1,0,1.78,1.78A1.79,1.79,0,0,0,30.67,13Zm-7.94,2.29a7.49,7.49,0,1,0,7.5,7.49A7.5,7.5,0,0,0,22.73,15.32Zm0,12.29a4.8,4.8,0,1,1,4.8-4.8A4.81,4.81,0,0,1,22.73,27.61Zm15.13-11a9.15,9.15,0,0,0-9.15-9.14H16.65a9.14,9.14,0,0,0-9.14,9.14V28.65a9.14,9.14,0,0,0,9.14,9.14H28.71a9.15,9.15,0,0,0,9.15-9.14ZM35,28.65a6.28,6.28,0,0,1-6.28,6.27H16.65a6.28,6.28,0,0,1-6.28-6.27V16.58a6.28,6.28,0,0,1,6.28-6.27H28.71A6.28,6.28,0,0,1,35,16.58Z"/></svg>