<?xml version="1.0" encoding="utf-8"?>
<!-- Generator: Adobe Illustrator 25.0.1, SVG Export Plug-In . SVG Version: 6.00 Build 0)  -->
<svg version="1.1" xmlns="http://www.w3.org/2000/svg" xmlns:xlink="http://www.w3.org/1999/xlink" x="0px" y="0px"
	 viewBox="0 0 30.59 35.61" style="enable-background:new 0 0 30.59 35.61;" xml:space="preserve">
<style type="text/css">
	.st0{fill:#FFFFFF;}
	.st1{fill:#EF251B;}
	.st2{clip-path:url(#SVGID_2_);}
	.st3{opacity:0.6;}
	.st4{fill:none;stroke:#FFFFFF;stroke-width:0.6;stroke-miterlimit:10;}
	.st5{clip-path:url(#SVGID_14_);}
	.st6{opacity:0.69;fill:#FFFFFF;}
	.st7{fill:none;stroke:#000000;stroke-width:0.6;stroke-miterlimit:10;}
	.st8{fill:#48B577;}
	.st9{fill:none;stroke:#000000;stroke-width:0.7126;stroke-miterlimit:10;}
	.st10{fill:none;stroke:#000000;stroke-width:1.081;stroke-linecap:round;stroke-linejoin:round;stroke-miterlimit:10;}
	.st11{opacity:0.76;fill:#FFFFFF;}
	.st12{fill:none;stroke:#000000;stroke-width:1.4614;stroke-linecap:round;stroke-linejoin:round;stroke-miterlimit:10;}
	.st13{fill:none;stroke:#FFFFFF;stroke-width:3.4909;stroke-linecap:round;stroke-linejoin:round;stroke-miterlimit:10;}
	.st14{fill:none;stroke:#000000;stroke-width:0.5;stroke-miterlimit:10;}
	.st15{fill:none;stroke:#FFFFFF;stroke-width:0.7126;stroke-miterlimit:10;}
	.st16{fill:#FFD400;}
	.st17{fill:#141A7F;}
	.st18{fill:#D80A00;}
	.st19{clip-path:url(#SVGID_54_);}
	.st20{fill:#FFFFFF;stroke:#48B577;stroke-width:0.9214;stroke-miterlimit:10;}
	.st21{opacity:0.76;fill:#FFFFFF;stroke:#48B577;stroke-miterlimit:10;}
	.st22{opacity:0.76;fill:none;stroke:#000000;stroke-width:0.8296;stroke-miterlimit:10;}
	.st23{fill:none;stroke:#EF251B;stroke-width:2.3908;stroke-miterlimit:10;}
	.st24{fill:#DBDBDB;}
	.st25{fill-rule:evenodd;clip-rule:evenodd;fill:#EF251B;}
	.st26{fill-rule:evenodd;clip-rule:evenodd;fill:#FFFFFF;}
	.st27{fill:none;stroke:#000000;stroke-width:0.418;stroke-miterlimit:10;}
	.st28{fill:none;stroke:#E62C23;stroke-width:1.0624;stroke-miterlimit:10;}
	.st29{fill:none;stroke:#000000;stroke-width:0.5312;stroke-miterlimit:10;}
	.st30{fill:none;stroke:#E62C23;stroke-width:1.1168;stroke-miterlimit:10;}
	.st31{display:none;}
	.st32{display:inline;}
	.st33{fill:none;stroke:#000000;stroke-width:0.4774;stroke-miterlimit:10;}
	.st34{fill:none;stroke:#000000;stroke-width:0.4623;stroke-miterlimit:10;}
</style>
<g id="Arte">
	<g>
		<path class="st1" d="M30.59,35.61c-10.21,0-20.31,0-30.59,0C0,23.78,0,11.97,0,0c10.16,0,20.3,0,30.59,0
			C30.59,11.82,30.59,23.59,30.59,35.61z M29.38,32.58c0-7.97,0-15.77,0-23.63c-9.48,0-18.8,0-28.25,0c0,7.9,0,15.71,0,23.63
			C10.55,32.58,19.87,32.58,29.38,32.58z M1.12,7.55c9.52,0,18.86,0,28.29,0c0-2.2,0-4.24,0-6.39c-9.47,0-18.82,0-28.29,0
			C1.12,3.29,1.12,5.33,1.12,7.55z M1.39,33.92c0.01,0.11,0.01,0.23,0.02,0.34c9.24,0,18.48,0,27.72,0c0-0.11,0-0.23,0-0.34
			C19.88,33.92,10.63,33.92,1.39,33.92z"/>
		<path class="st1" d="M15.17,28.42c-4.67-0.05-8.32-3.8-8.25-8.48c0.07-4.55,3.82-8.25,8.35-8.24c4.61,0.01,8.4,3.83,8.36,8.44
			C23.59,24.8,19.85,28.46,15.17,28.42z M8.12,19.93c-0.08,4.01,3.03,7.26,6.99,7.32c4.01,0.06,7.23-3.02,7.31-7.01
			c0.08-3.95-3.04-7.24-7-7.37C11.53,12.74,8.2,15.96,8.12,19.93z"/>
		<path class="st1" d="M24.66,28.03c0.58,0,1.3-0.21,1.71,0.05c0.63,0.4,1.43,1.12,1.45,1.73c0.02,0.6-0.74,1.56-1.35,1.76
			c-1,0.32-2.24,0.41-3.23,0.1c-0.79-0.24-1.8-1.14-1.93-1.88c-0.2-1.13,0.77-1.81,2-1.8c0.45,0,0.9,0,1.36,0
			C24.66,28.01,24.66,28.02,24.66,28.03z M24.62,28.86c-0.04,0.09-0.08,0.19-0.13,0.28c-0.32,0-0.66-0.08-0.95,0.02
			c-0.37,0.12-0.7,0.38-1.05,0.59c0.35,0.27,0.68,0.61,1.07,0.8c0.26,0.12,0.65,0.1,0.94,0.02c0.71-0.2,1.4-0.49,2.09-0.73
			C25.94,29.51,25.28,29.18,24.62,28.86z"/>
		<path class="st1" d="M9.85,5.75c-0.96,0-1.94,0.08-2.89-0.04C6.59,5.67,6.28,5.18,5.93,4.9c0.33-0.22,0.66-0.62,1-0.63
			c1.93-0.06,3.85-0.06,5.78,0.01c0.32,0.01,0.63,0.45,0.94,0.69c-0.3,0.26-0.59,0.71-0.91,0.74C11.79,5.81,10.82,5.75,9.85,5.75z"
			/>
		<path class="st1" d="M24.55,6.82c-0.68-0.98-1.36-1.53-1.36-2.09c0-0.45,0.9-1.33,1.24-1.25c0.57,0.12,1.27,0.78,1.42,1.34
			C25.94,5.22,25.22,5.83,24.55,6.82z"/>
		<path class="st1" d="M15.2,25.68c-3.12-0.03-5.52-2.45-5.52-5.57c-0.01-3.16,2.57-5.74,5.67-5.68c3.03,0.06,5.54,2.59,5.57,5.63
			C20.94,23.19,18.39,25.7,15.2,25.68z M19.67,20.14c0.04-2.45-1.92-4.48-4.35-4.52c-2.42-0.04-4.44,1.96-4.47,4.41
			c-0.03,2.46,1.91,4.46,4.36,4.49C17.68,24.54,19.63,22.63,19.67,20.14z"/>
	</g>
</g>
<g id="Guias" class="st31">
</g>
</svg>
