<svg id="Arte" xmlns="http://www.w3.org/2000/svg" xmlns:xlink="http://www.w3.org/1999/xlink" viewBox="0 0 182.29 79.97"><defs><style>.cls-1{fill:none;}.cls-2{clip-path:url(#clip-path);}.cls-3{fill:#fd3b34;}</style><clipPath id="clip-path"><rect class="cls-1" x="-124.88" y="291.2" width="2043.29" height="709.46"/></clipPath></defs><g class="cls-2"><image width="3558" height="2372" transform="translate(-125.69 -24.28) scale(0.57)" xlink:href="../Dropbox/Cuentas/Aloja%20Colombia/Sitio/Imagenes/beautiful-shot-cayo-cangrejo-providencia-colombia-with-cloudy-blue-sky.jpg"/></g><path class="cls-3" d="M79.77,59.86v0A2.22,2.22,0,0,1,82,57.58,2.29,2.29,0,0,1,83.5,58a.47.47,0,0,1-.28.85.48.48,0,0,1-.29-.1,1.44,1.44,0,0,0-.89-.31,1.29,1.29,0,0,0-1.27,1.36h0A1.3,1.3,0,0,0,82,61.22a1.42,1.42,0,0,0,.95-.35.43.43,0,0,1,.28-.1.45.45,0,0,1,.45.44.43.43,0,0,1-.16.34A2.15,2.15,0,0,1,82,62.1,2.2,2.2,0,0,1,79.77,59.86Z"/><path class="cls-3" d="M84.12,59.86v0a2.32,2.32,0,0,1,4.64,0h0a2.32,2.32,0,0,1-4.64,0Zm3.64,0v0a1.33,1.33,0,0,0-1.33-1.37,1.31,1.31,0,0,0-1.31,1.36h0a1.33,1.33,0,0,0,1.33,1.38A1.31,1.31,0,0,0,87.76,59.86Z"/><path class="cls-3" d="M89.49,58.1a.48.48,0,0,1,1,0v3h1.78a.44.44,0,0,1,0,.88H90a.47.47,0,0,1-.48-.48Z"/><path class="cls-3" d="M92.78,59.86v0a2.32,2.32,0,0,1,4.64,0h0a2.32,2.32,0,0,1-4.64,0Zm3.64,0v0a1.33,1.33,0,0,0-1.33-1.37,1.31,1.31,0,0,0-1.31,1.36h0a1.33,1.33,0,0,0,1.33,1.38A1.31,1.31,0,0,0,96.42,59.86Z"/><path class="cls-3" d="M98.15,58.11a.48.48,0,0,1,.48-.48h.1a.5.5,0,0,1,.44.25l1.16,1.89,1.17-1.89a.48.48,0,0,1,.43-.25H102a.49.49,0,0,1,.48.48v3.47a.49.49,0,0,1-.48.49.48.48,0,0,1-.48-.49V59.41l-.84,1.29a.48.48,0,0,1-.4.25.47.47,0,0,1-.4-.25l-.83-1.27V61.6a.47.47,0,0,1-.47.47.46.46,0,0,1-.47-.47Z"/><path class="cls-3" d="M103.43,58.14a.48.48,0,0,1,.48-.48h1.55a1.57,1.57,0,0,1,1.14.39,1,1,0,0,1,.3.74h0a1,1,0,0,1-.57.94,1.08,1.08,0,0,1,.82,1.08h0c0,.8-.65,1.2-1.64,1.2h-1.6a.48.48,0,0,1-.48-.48Zm1.83,1.29c.42,0,.69-.14.69-.47h0c0-.29-.23-.45-.63-.45h-.95v.93Zm.25,1.76c.43,0,.68-.15.68-.48h0c0-.29-.22-.48-.71-.48h-1.11v1Z"/><path class="cls-3" d="M107.85,58.1a.49.49,0,0,1,1,0v3.48a.49.49,0,1,1-1,0Z"/><path class="cls-3" d="M109.54,61.41,111.06,58a.59.59,0,0,1,.56-.38h.06a.57.57,0,0,1,.55.38l1.53,3.44a.49.49,0,0,1,0,.19.46.46,0,0,1-.46.47.5.5,0,0,1-.46-.34l-.29-.68h-1.93l-.3.72a.48.48,0,0,1-.44.3.45.45,0,0,1-.45-.45A.56.56,0,0,1,109.54,61.41Zm2.7-1.21-.6-1.44L111,60.2Z"/><path class="cls-3" d="M138.07,31.36h-3c-.07,0-.12.05-.13.14V52.92a7.69,7.69,0,0,1-1.77,4.72,7.81,7.81,0,0,1-5.44,2.55,7.94,7.94,0,0,1-3.86-1,6.71,6.71,0,0,1-2.66-2.58,1.6,1.6,0,0,0-3,.71,1.55,1.55,0,0,0,.09.53h0a1.59,1.59,0,0,0,.16.32,7.67,7.67,0,0,0,2.11,2.58,11.07,11.07,0,0,0,7.4,2.62,11.19,11.19,0,0,0,4.32-1.11,10.63,10.63,0,0,0,6-10V31.5C138.2,31.42,138.15,31.38,138.07,31.36Z"/><path class="cls-3" d="M120.38,52.76a10.75,10.75,0,0,0,4.32-1.18q5.64-3.53,5.63-9.37a10.62,10.62,0,0,0-2-6.23,10.45,10.45,0,0,0-8.65-4.52A10.73,10.73,0,0,0,109,42.08a11.13,11.13,0,0,0,1.9,6.16q3.52,4.51,8.39,4.52Zm-8.19-10.55s.06,0,.06-.07l-.06-.13a10,10,0,0,1,.65-2.95q2.44-4.32,6.49-4.32H120a7.07,7.07,0,0,1,3.47,1q3.61,2.47,3.61,6v.65a7.1,7.1,0,0,1-.72,3q-2.41,4.19-6.75,4.19a7.53,7.53,0,0,1-7.4-7.4Z"/><path class="cls-3" d="M136.8,23.84a2.36,2.36,0,0,0-2.36,2.36v2.07a.29.29,0,0,0,.28.29h2.36c1.66,0,2-1.74,2.07-2.24V26.2A2.36,2.36,0,0,0,136.8,23.84Z"/><path class="cls-3" d="M98.65,41.82A10.79,10.79,0,0,0,97.4,37Q93.9,31.47,88,31.46h-.2a10.54,10.54,0,0,0-6,2q-4.45,3.48-4.46,8.39v.65a10.41,10.41,0,0,0,3.21,7.34,10.21,10.21,0,0,0,6.69,2.95h1.31a10.24,10.24,0,0,0,6.88-2.95v2a.82.82,0,0,0,0,.22,1.62,1.62,0,1,0,3.23,0,.43.43,0,0,1,0,0h0Zm-4.07,3.8q-2.42,3.93-6.29,3.93H87.7a6.44,6.44,0,0,1-2.94-.72,7.21,7.21,0,0,1-4.2-6.69,7,7,0,0,1,.85-3.47,7.31,7.31,0,0,1,6.56-4,8.47,8.47,0,0,1,2.75.53c3.14,1.48,4.72,3.8,4.72,6.94A7.59,7.59,0,0,1,94.58,45.62Z"/><path class="cls-3" d="M163.19,51.78v-10A10.79,10.79,0,0,0,161.94,37q-3.48-5.57-9.37-5.57h-.19a10.55,10.55,0,0,0-6,2q-4.46,3.48-4.46,8.39v.65a10.41,10.41,0,0,0,3.21,7.34,10.21,10.21,0,0,0,6.69,2.95h1.31A10.24,10.24,0,0,0,160,49.81v2.13h0v0a1.62,1.62,0,1,0,3.23,0A1.64,1.64,0,0,0,163.19,51.78Zm-4.06-6.16q-2.43,3.93-6.29,3.93h-.59a6.45,6.45,0,0,1-2.95-.72,7.21,7.21,0,0,1-4.2-6.69,6.9,6.9,0,0,1,.86-3.47,7.28,7.28,0,0,1,6.55-4,8.42,8.42,0,0,1,2.75.53c3.15,1.48,4.72,3.8,4.72,6.94A7.7,7.7,0,0,1,159.13,45.62Z"/><path class="cls-3" d="M105.7,22.62c-.13-1.23-.7-1.84-1.71-1.84s-1.4.59-1.57,1.77V52a.09.09,0,0,0,0,.06,1.61,1.61,0,0,0,3.22,0,.09.09,0,0,0,0-.07Z"/><path class="cls-3" d="M60.18,32.07s0,0,0,0,0,0,0,.16v0A.28.28,0,0,1,60.18,32.07Z"/><path class="cls-3" d="M42.09,29.73a12.18,12.18,0,0,0-2.33.22c-4.24.88-7.67,4.27-9.65,8.68,0,.12-.53,1.27-.11,1.45.47.34,2.37-2.34,2.69-2.76a1.23,1.23,0,0,1,1.11-.44,1.39,1.39,0,0,1,1.05.52c.7.84-.09,1.65-.35,1.91l-2.19,2.2a8.65,8.65,0,0,0-2,3.27c-.37,1.08-.1,1.39.23,1.57a.59.59,0,0,0,.19,0c.71.08,2.8-3.53,5.7-5.64a2.22,2.22,0,0,1,1.28-.6,1.15,1.15,0,0,1,.82.35c.91.86.14,1.7-.23,2.11L37,43.81c-1.52,1.55-4.45,4.74-4.45,4.74a1.39,1.39,0,0,0,.11,2.06c.24.27.41.3.52.3a2.08,2.08,0,0,0,1-.47l.2-.13c.82-.55,6.24-5.13,6.24-5.13a1.91,1.91,0,0,1,1.23-.67,1.17,1.17,0,0,1,.79.34,1.24,1.24,0,0,1,.46.9,2,2,0,0,1-.75,1.35S40.38,49,39.59,49.64s-3.89,3.21-3.89,3.21c-.78.64-1,1-.57,1.54a1.18,1.18,0,0,0,.95.61,1.59,1.59,0,0,0,.84-.3,41.34,41.34,0,0,0,6.86-5.18c3.12-3.08,3.16-3.48.74-7.15-1.31-2-1.42-3.86-.31-5.53.46-.69,1.19-1.61,2.21-1.61s2.49,1.2,3,1.6a15.84,15.84,0,0,1,4.71,5.65,4.25,4.25,0,0,0,.08-1.81A12.27,12.27,0,0,0,42.09,29.73Z"/><path class="cls-3" d="M62.37,30.27,44.11,12.92a3.07,3.07,0,0,0-4.22,0L21.63,30.27a3.11,3.11,0,0,0-.95,2.22V62.56a3.06,3.06,0,0,0,2.35,3,25.8,25.8,0,0,0,5.84.67A21,21,0,0,0,42,61.86c7.23,5.64,15.61,4.47,19,3.68a3.06,3.06,0,0,0,2.35-3V32.49A3.11,3.11,0,0,0,62.37,30.27ZM60.59,62.56a.32.32,0,0,1-.25.32c-2.94.7-10.21,1.72-16.47-3a44.75,44.75,0,0,0,5-5.53c1.86-2.42,3.44-5,3.5-8.62.18-3.34-2.51-5.32-5.08-7.24-1.09-.82-1.43.27-1.39,1.2.05,1.1.91,1.82,1.46,2.68,1.71,2.66,1.6,4.53-.37,7A30.73,30.73,0,0,1,40.48,55c-3.77,2.74-3.21,2-.49,4.93-6.23,4.62-13.41,3.61-16.33,2.92a.33.33,0,0,1-.25-.32V32.49a.32.32,0,0,1,.11-.24L41.77,14.9a.34.34,0,0,1,.46,0L60.49,32.25a.35.35,0,0,1,.1.24Z"/></svg>