<?xml version="1.0" encoding="utf-8"?>
<!-- Generator: Adobe Illustrator 25.0.1, SVG Export Plug-In . SVG Version: 6.00 Build 0)  -->
<svg version="1.1" id="Capa_1" xmlns="http://www.w3.org/2000/svg" xmlns:xlink="http://www.w3.org/1999/xlink" x="0px" y="0px"
	 viewBox="0 0 397.64 152.59" style="enable-background:new 0 0 397.64 152.59;" xml:space="preserve">
<style type="text/css">
	.st0{fill:#FD3B34;}
</style>
<path class="st0" d="M165.17,133.83L165.17,133.83c-0.09-3.41,2.6-6.25,6.01-6.34c0.07,0,0.13,0,0.2,0c1.49-0.11,2.96,0.3,4.18,1.17
	c0.58,0.43,0.71,1.24,0.29,1.83c-0.25,0.34-0.65,0.54-1.07,0.54c-0.29,0-0.58-0.1-0.81-0.28c-0.71-0.56-1.58-0.86-2.48-0.86
	c-1.98,0.03-3.57,1.66-3.54,3.64c0,0.05,0,0.1,0,0.14l0,0c-0.19,1.99,1.27,3.75,3.26,3.94c0.05,0,0.11,0.01,0.16,0.01
	c0.97,0.01,1.91-0.34,2.64-0.97c0.22-0.18,0.49-0.28,0.78-0.28c0.68,0,1.24,0.54,1.25,1.22c0,0.37-0.16,0.72-0.45,0.95
	c-1.16,1.04-2.68,1.59-4.23,1.53c-3.38,0.05-6.16-2.66-6.21-6.04C165.17,133.96,165.17,133.89,165.17,133.83z"/>
<path class="st0" d="M177.28,133.83L177.28,133.83c0-3.57,2.89-6.46,6.46-6.45c3.56,0,6.45,2.89,6.45,6.45l0,0
	c0,3.57-2.89,6.46-6.46,6.45C180.17,140.28,177.28,137.39,177.28,133.83z M187.41,133.83L187.41,133.83
	c0.06-2.04-1.55-3.75-3.59-3.81c-0.04,0-0.08,0-0.11,0c-2.01,0-3.65,1.63-3.65,3.64c0,0.05,0,0.09,0,0.14l0,0
	c-0.08,2.04,1.52,3.76,3.56,3.84c0.05,0,0.09,0,0.14,0c2.01,0,3.65-1.63,3.65-3.64C187.42,133.94,187.41,133.89,187.41,133.83z"/>
<path class="st0" d="M192.23,128.93c0-0.77,0.62-1.39,1.39-1.39s1.39,0.62,1.39,1.39v8.35h4.95c0.68,0,1.22,0.55,1.22,1.22
	s-0.55,1.22-1.22,1.22h-6.32c-0.72,0.02-1.32-0.56-1.34-1.28c0-0.02,0-0.04,0-0.06L192.23,128.93z"/>
<path class="st0" d="M201.38,133.83L201.38,133.83c0-3.57,2.89-6.46,6.46-6.45c3.56,0,6.45,2.89,6.45,6.45l0,0
	c0,3.57-2.89,6.46-6.46,6.45C204.28,140.28,201.39,137.39,201.38,133.83z M211.52,133.83L211.52,133.83
	c0.06-2.04-1.55-3.75-3.59-3.81c-0.04,0-0.08,0-0.11,0c-2.01,0-3.65,1.63-3.65,3.64c0,0.05,0,0.09,0,0.14l0,0
	c-0.08,2.04,1.52,3.76,3.56,3.84c0.05,0,0.09,0,0.14,0c2.01,0,3.65-1.63,3.65-3.64C211.52,133.94,211.52,133.89,211.52,133.83z"/>
<path class="st0" d="M216.33,128.96c0-0.74,0.6-1.34,1.34-1.34l0,0h0.28c0.5-0.01,0.97,0.26,1.22,0.7l3.23,5.26l3.26-5.26
	c0.24-0.44,0.7-0.7,1.2-0.7h0.19c0.73,0.01,1.32,0.6,1.34,1.34v9.66c0,0.74-0.59,1.35-1.34,1.36c-0.74,0-1.34-0.6-1.34-1.34
	c0-0.01,0-0.02,0-0.03v-6.04l-2.34,3.59c-0.22,0.41-0.65,0.67-1.11,0.7c-0.47-0.02-0.89-0.28-1.11-0.7l-2.31-3.53v6.04
	c0,0.72-0.59,1.31-1.31,1.31l0,0c-0.71,0.02-1.29-0.54-1.31-1.25c0-0.02,0-0.04,0-0.06L216.33,128.96z"/>
<path class="st0" d="M231.03,129.04c0-0.74,0.6-1.34,1.34-1.34l0,0h4.31c1.16-0.07,2.3,0.32,3.17,1.09
	c0.55,0.54,0.85,1.29,0.84,2.06l0,0c0.04,1.11-0.58,2.14-1.59,2.62c1.37,0.34,2.32,1.59,2.28,3.01l0,0c0,2.23-1.81,3.34-4.56,3.34
	h-4.45c-0.74,0-1.34-0.6-1.34-1.34l0,0V129.04z M236.12,132.63c1.17,0,1.92-0.39,1.92-1.31l0,0c0-0.81-0.64-1.25-1.75-1.25h-2.64
	v2.59L236.12,132.63z M236.82,137.53c1.2,0,1.89-0.42,1.89-1.34l0,0c0-0.81-0.61-1.34-1.98-1.34h-3.09v2.78L236.82,137.53z"/>
<path class="st0" d="M243.33,128.93c0-0.77,0.62-1.39,1.39-1.39s1.39,0.62,1.39,1.39v9.69c0,0.77-0.62,1.39-1.39,1.39
	s-1.39-0.62-1.39-1.39V128.93z"/>
<path class="st0" d="M248.03,138.14l4.23-9.49c0.25-0.65,0.87-1.07,1.56-1.06h0.17c0.69-0.02,1.3,0.41,1.53,1.06l4.26,9.57
	c0.03,0.17,0.03,0.35,0,0.53c0.02,0.71-0.55,1.29-1.25,1.31c-0.01,0-0.02,0-0.03,0c-0.58-0.02-1.09-0.39-1.28-0.95l-0.81-1.89h-5.37
	l-0.84,2c-0.2,0.5-0.69,0.83-1.22,0.84c-0.69,0-1.25-0.56-1.25-1.25C247.78,138.57,247.88,138.34,248.03,138.14z M255.55,134.78
	l-1.67-4.01l-1.78,4.01H255.55z"/>
<path class="st0" d="M327.44,54.5h-8.35c-0.19,0-0.33,0.14-0.36,0.39v59.62c-0.12,4.81-1.85,9.44-4.93,13.14
	c-3.9,4.29-9.35,6.85-15.14,7.1c-3.76,0-7.46-0.96-10.74-2.78c-3.09-1.65-5.66-4.14-7.4-7.18c-1.19-2.15-3.9-2.94-6.05-1.75
	c-1.37,0.75-2.24,2.17-2.3,3.73c0,0.5,0.08,1,0.25,1.48l0,0c0.11,0.31,0.26,0.61,0.45,0.89c1.41,2.8,3.41,5.25,5.87,7.18
	c5.74,4.87,13.07,7.46,20.6,7.29c4.17-0.21,8.26-1.26,12.02-3.09c10.61-5.12,17.17-16.06,16.7-27.83V54.91
	C327.81,54.67,327.67,54.56,327.44,54.5z"/>
<path class="st0" d="M278.21,114.07c4.19-0.24,8.29-1.36,12.02-3.28c10.47-6.55,15.69-15.24,15.67-26.08
	c0.02-6.22-1.93-12.29-5.57-17.34c-5.45-7.91-14.47-12.62-24.08-12.58c-16.32,0.08-29.56,13.24-29.73,29.56
	c0.03,6.11,1.87,12.08,5.29,17.15c6.53,8.37,14.32,12.56,23.35,12.58L278.21,114.07z M255.41,84.7c0,0,0.17,0,0.17-0.19l-0.17-0.36
	c0.18-2.81,0.79-5.58,1.81-8.21c4.53-8.02,10.55-12.02,18.06-12.02h1.86c3.41,0.08,6.73,1.04,9.66,2.78
	c6.7,4.58,10.05,10.15,10.05,16.7v1.81c-0.05,2.9-0.73,5.75-2,8.35c-4.47,7.77-10.73,11.66-18.79,11.66
	c-11.29-0.19-20.4-9.3-20.6-20.6L255.41,84.7z"/>
<path class="st0" d="M323.91,33.57c-3.63,0-6.57,2.94-6.57,6.57l0,0v5.76c0,0.44,0.34,0.79,0.78,0.81h6.57
	c4.62,0,5.57-4.84,5.76-6.23v-0.33C330.45,36.52,327.53,33.59,323.91,33.57z"/>
<path class="st0" d="M217.72,83.62c-0.1-4.68-1.29-9.28-3.48-13.42c-6.49-10.26-15.22-15.4-26.16-15.42h-0.56
	c-6.01,0.1-11.83,2.05-16.7,5.57c-8.26,6.46-12.4,14.24-12.41,23.35v1.81c0.13,7.73,3.35,15.08,8.93,20.43
	c4.98,4.94,11.61,7.87,18.62,8.21h3.65c7.19-0.22,14.03-3.16,19.15-8.21v5.57c-0.03,0.2-0.03,0.41,0,0.61
	c-0.2,2.48,1.66,4.65,4.14,4.85c2.48,0.2,4.65-1.66,4.85-4.14c0.02-0.24,0.02-0.47,0-0.71l0,0l0,0L217.72,83.62z M206.39,94.19
	c-4.49,7.29-10.33,10.94-17.51,10.94h-1.64c-2.85-0.01-5.65-0.7-8.18-2c-7.25-3.33-11.84-10.64-11.69-18.62
	c-0.06-3.37,0.76-6.7,2.37-9.66c3.49-6.87,10.56-11.18,18.26-11.13c2.62,0.06,5.2,0.56,7.65,1.48c8.74,4.12,13.14,10.58,13.14,19.32
	C208.78,87.88,207.95,91.2,206.39,94.19z"/>
<path class="st0" d="M397.36,111.34V83.51c-0.12-4.64-1.31-9.2-3.48-13.3c-6.46-10.34-15.15-15.5-26.08-15.5h-0.53
	c-6.01,0.1-11.83,2.05-16.7,5.57c-8.28,6.46-12.41,14.24-12.41,23.35v1.81c0.13,7.73,3.35,15.08,8.93,20.43
	c4.98,4.94,11.61,7.87,18.62,8.21h3.65c7.18-0.23,14.01-3.16,19.12-8.21v5.93l0,0l0,0c-0.2,2.48,1.66,4.65,4.14,4.85
	c2.48,0.2,4.65-1.66,4.85-4.14c0.02-0.24,0.02-0.47,0-0.71C397.44,111.63,397.41,111.49,397.36,111.34z M386.06,94.19
	c-4.51,7.29-10.34,10.94-17.51,10.94h-1.64c-2.86-0.01-5.67-0.69-8.21-2c-7.25-3.33-11.84-10.64-11.69-18.62
	c-0.06-3.37,0.76-6.71,2.39-9.66c3.47-6.87,10.53-11.19,18.23-11.13c2.62,0.06,5.2,0.56,7.65,1.48
	c8.77,4.12,13.14,10.58,13.14,19.32C388.41,87.88,387.6,91.2,386.06,94.19z"/>
<path class="st0" d="M237.35,30.18c-0.36-3.42-1.95-5.12-4.76-5.12s-3.9,1.64-4.37,4.93v81.97c-0.02,0.05-0.02,0.11,0,0.17
	c0,2.47,2.01,4.48,4.48,4.48s4.48-2.01,4.48-4.48l0,0c0.03-0.06,0.03-0.13,0-0.19L237.35,30.18z"/>
<path class="st0" d="M110.65,56.48L110.65,56.48c0,0,0,0,0,0.45l0,0C110.6,56.78,110.6,56.62,110.65,56.48z"/>
<path class="st0" d="M60.3,49.97c-2.18,0-4.35,0.2-6.49,0.61c-11.8,2.45-21.35,11.89-26.86,24.16c0,0.33-1.48,3.53-0.31,4.04
	c1.31,0.95,6.6-6.51,7.49-7.68c0.75-0.91,1.92-1.38,3.09-1.22c1.14,0.03,2.21,0.56,2.92,1.45c1.95,2.34-0.25,4.59-0.97,5.32
	l-6.1,6.12c-2.51,2.58-4.42,5.69-5.57,9.1c-1.03,3.01-0.28,3.87,0.64,4.37c0.18,0.03,0.35,0.03,0.53,0
	c1.98,0.22,7.79-9.83,15.87-15.7c0.97-0.93,2.22-1.52,3.56-1.67c0.86,0,1.68,0.36,2.28,0.97c2.53,2.39,0.39,4.73-0.64,5.87
	l-3.62,3.45c-4.23,4.31-12.39,13.19-12.39,13.19c-1.51,1.51-1.5,3.96,0.01,5.47c0.09,0.09,0.19,0.18,0.29,0.26
	c0.67,0.75,1.14,0.84,1.45,0.84c1.03-0.18,1.99-0.63,2.78-1.31l0.56-0.36c2.28-1.53,17.37-14.28,17.37-14.28
	c0.86-1.03,2.09-1.7,3.42-1.86c0.83,0.02,1.61,0.36,2.2,0.95c0.76,0.62,1.23,1.53,1.28,2.51c-0.16,1.48-0.92,2.84-2.09,3.76
	c0,0-5.48,5.29-7.68,7.07c-2.2,1.78-10.83,8.93-10.83,8.93c-2.17,1.78-2.78,2.78-1.59,4.29c0.54,0.98,1.53,1.62,2.64,1.7
	c0.84-0.05,1.65-0.34,2.34-0.84c6.85-4.13,13.25-8.96,19.09-14.42c8.68-8.57,8.8-9.69,2.06-19.9c-3.65-5.57-3.95-10.74-0.86-15.39
	c1.28-1.92,3.31-4.48,6.15-4.48s6.93,3.34,8.35,4.45c5.54,4.14,10.03,9.53,13.11,15.73c0.44-1.64,0.51-3.36,0.22-5.04
	C92.15,63.17,77.64,50.08,60.3,49.97z"/>
<path class="st0" d="M116.74,51.47L65.92,3.18c-3.29-3.12-8.45-3.12-11.75,0L3.35,51.47c-1.68,1.62-2.63,3.85-2.64,6.18v83.7
	c-0.03,3.97,2.68,7.43,6.54,8.35c5.33,1.24,10.78,1.86,16.25,1.86c13.21,0.19,26.09-4.1,36.55-12.16
	c20.12,15.7,43.45,12.44,52.88,10.24c3.86-0.92,6.57-4.38,6.54-8.35V57.65C119.43,55.3,118.45,53.07,116.74,51.47z M111.79,141.34
	c0.01,0.42-0.28,0.8-0.7,0.89c-8.18,1.95-28.42,4.79-45.84-8.35c5.06-4.73,9.71-9.88,13.92-15.39c5.18-6.74,9.57-13.92,9.74-23.99
	c0.5-9.3-6.99-14.81-14.14-20.15c-3.03-2.28-3.98,0.75-3.87,3.34c0.14,3.06,2.53,5.07,4.06,7.46c4.76,7.4,4.45,12.61-1.03,19.48
	c-5.27,6.05-11.37,11.32-18.12,15.67c-10.49,7.63-8.93,5.57-1.36,13.72C37.11,146.88,17.12,144.07,9,142.15
	c-0.41-0.1-0.7-0.47-0.7-0.89V57.65c0-0.26,0.11-0.5,0.31-0.67l50.8-48.29c0.36-0.33,0.92-0.33,1.28,0l50.82,48.29
	c0.18,0.18,0.27,0.42,0.28,0.67L111.79,141.34L111.79,141.34z"/>
</svg>
