<?xml version="1.0" encoding="utf-8"?>
<!-- Generator: Adobe Illustrator 25.0.1, SVG Export Plug-In . SVG Version: 6.00 Build 0)  -->
<svg version="1.1" id="Capa_1" xmlns="http://www.w3.org/2000/svg" xmlns:xlink="http://www.w3.org/1999/xlink" x="0px" y="0px"
	 viewBox="0 0 281.82 104.26" style="enable-background:new 0 0 281.82 104.26;" xml:space="preserve">
<style type="text/css">
	.st0{fill:#FD3B34;}
</style>
<g>
	<g>
		<path class="st0" d="M224.25,30.89h-6.9c-0.18,0-0.28,0.1-0.3,0.3v49.06c0,3.68-1.35,7.28-4.05,10.8c-4,3.9-8.15,5.85-12.45,5.85
			c-3.13,0-6.08-0.75-8.85-2.25c-2.46-1.28-4.49-3.26-6.09-5.91c-0.6-1.21-1.85-2.04-3.29-2.04c-2.03,0-3.67,1.65-3.67,3.67
			c0,0.42,0.07,0.82,0.2,1.2c0,0,0,0,0,0c0.01,0.01,0.01,0.02,0.02,0.03c0.09,0.26,0.21,0.5,0.36,0.73c1.02,2.06,1.79,3.1,4.82,5.91
			c6.04,5.58,14.3,6.06,16.95,6c2.65-0.06,6.28-0.85,9.9-2.55c9.1-4.9,13.65-12.55,13.65-22.95V31.19
			C224.55,31.01,224.45,30.91,224.25,30.89z"/>
		<path class="st0" d="M183.75,79.87c2.72,0,6.03-0.9,9.9-2.7c8.6-5.38,12.9-12.53,12.9-21.45c0-5.23-1.5-9.98-4.5-14.25
			c-5.23-6.9-11.83-10.35-19.8-10.35c-5.2,0-9.95,1.5-14.25,4.5c-6.9,5.33-10.35,11.93-10.35,19.8c0,4.98,1.45,9.68,4.35,14.1
			c5.38,6.9,11.78,10.35,19.2,10.35H183.75z M164.99,55.72c0.1,0,0.15-0.05,0.15-0.15l-0.15-0.3c0-1.55,0.5-3.8,1.5-6.75
			c3.73-6.6,8.68-9.9,14.85-9.9h1.5c2.63,0,5.28,0.75,7.95,2.25c5.5,3.78,8.25,8.38,8.25,13.8v1.5c0,2.25-0.55,4.55-1.65,6.9
			c-3.68,6.4-8.83,9.6-15.45,9.6c-3.73,0-7.33-1.35-10.8-4.05C167.04,64.8,164.99,60.49,164.99,55.72z"/>
		<path class="st0" d="M221.34,13.66c-2.98,0-5.4,2.42-5.4,5.4c0,0.11,0,4.75,0,4.75c0,0.47,0.43,0.65,0.65,0.65h5.4
			c3.8,0,4.68-3.99,4.74-5.13c0-0.02,0.01-0.21,0.01-0.27C226.74,16.08,224.33,13.66,221.34,13.66z"/>
		<path class="st0" d="M133.99,54.82c0-3.48-0.95-7.13-2.85-10.95c-5.33-8.5-12.48-12.75-21.45-12.75h-0.45c-4.8,0-9.4,1.5-13.8,4.5
			c-6.8,5.33-10.2,11.73-10.2,19.2v1.5c0,6.1,2.45,11.7,7.35,16.8c5.1,4.5,10.2,6.75,15.3,6.75h3c5.5,0,10.75-2.25,15.75-6.75v4.51
			c-0.02,0.17-0.04,0.34-0.04,0.52c0,2.04,1.65,3.7,3.7,3.7c2.04,0,3.7-1.65,3.7-3.7c0-0.04,0-0.07-0.01-0.11
			c0-0.01,0.01-0.02,0.01-0.04V54.82z M124.69,63.52c-3.7,6-8.5,9-14.4,9h-1.35c-2.33,0-4.58-0.55-6.75-1.65
			c-6.4-3.45-9.6-8.55-9.6-15.3c0-3,0.65-5.65,1.95-7.95c3.6-6.1,8.6-9.15,15-9.15c1.9,0,4,0.4,6.3,1.2c7.2,3.4,10.8,8.7,10.8,15.9
			C126.64,58.32,125.99,60.97,124.69,63.52z"/>
		<path class="st0" d="M281.78,77.63V54.82c0-3.48-0.95-7.13-2.85-10.95c-5.33-8.5-12.48-12.75-21.45-12.75h-0.45
			c-4.8,0-9.4,1.5-13.8,4.5c-6.8,5.33-10.2,11.73-10.2,19.2v1.5c0,6.1,2.45,11.7,7.35,16.8c5.1,4.5,10.2,6.75,15.3,6.75h3
			c5.5,0,10.75-2.25,15.75-6.75v4.87c0,0.02,0,0.03,0.01,0.04c0,0.04-0.01,0.07-0.01,0.11c0,2.04,1.65,3.7,3.7,3.7
			c2.04,0,3.7-1.65,3.7-3.7C281.82,77.97,281.8,77.8,281.78,77.63z M272.48,63.52c-3.7,6-8.5,9-14.4,9h-1.35
			c-2.33,0-4.58-0.55-6.75-1.65c-6.4-3.45-9.6-8.55-9.6-15.3c0-3,0.65-5.65,1.95-7.95c3.6-6.1,8.6-9.15,15-9.15c1.9,0,4,0.4,6.3,1.2
			c7.2,3.4,10.8,8.7,10.8,15.9C274.43,58.32,273.78,60.97,272.48,63.52z"/>
		<path class="st0" d="M150.14,10.86c-0.3-2.8-1.6-4.2-3.9-4.2c-2.03,0-3.23,1.35-3.6,4.05v67.52c0,0.05,0.03,0.1,0.07,0.14
			c0.12,1.93,1.72,3.47,3.68,3.47c1.96,0,3.56-1.53,3.68-3.45c0.04-0.05,0.07-0.1,0.07-0.15V10.86z"/>
	</g>
	<g>
		<path class="st0" d="M62.43,31.61c-0.01-0.03-0.01-0.05-0.02-0.08c-0.02-0.02-0.02,0.06,0.04,0.25c0-0.01,0-0.02,0-0.03
			C62.45,31.7,62.44,31.65,62.43,31.61z"/>
		<path class="st0" d="M33.84,27.9c-1.22,0-2.46,0.12-3.67,0.36C23.46,29.64,18.03,35,14.91,41.98c-0.06,0.18-0.85,2-0.18,2.28
			c0.74,0.54,3.75-3.7,4.26-4.35c0.41-0.57,1.09-0.73,1.76-0.7c0.65,0.03,1.22,0.28,1.66,0.81c1.1,1.33-0.15,2.61-0.56,3.03
			l-3.45,3.47c-1.42,1.44-2.49,3.18-3.18,5.18c-0.58,1.71-0.17,2.2,0.36,2.47c0.11,0.06,0.21,0.09,0.3,0.09
			c1.12,0.13,4.43-5.58,9.01-8.92c0.51-0.4,1.22-0.94,2.03-0.94c0.48,0,0.92,0.18,1.3,0.55c1.43,1.37,0.22,2.69-0.37,3.33
			l-2.07,1.89c-2.41,2.46-7.04,7.49-7.04,7.49c-0.91,1.05-0.85,2.08,0.17,3.25c0.38,0.43,0.65,0.48,0.83,0.48
			c0.43,0,0.96-0.36,1.54-0.75l0.31-0.21c1.3-0.87,9.87-8.11,9.87-8.11c0.51-0.47,1.13-1.05,1.94-1.05c0.45,0,0.87,0.18,1.26,0.54
			c0.47,0.43,0.71,0.91,0.72,1.43c0.02,0.89-0.65,1.58-1.19,2.13c0,0-3.04,2.94-4.29,4.02c-1.39,1.19-6.15,5.07-6.15,5.07
			c-1.23,1.01-1.55,1.53-0.9,2.43c0.46,0.64,0.96,0.96,1.51,0.96c0.39,0,0.84-0.16,1.32-0.47c3.49-2.23,7.5-4.88,10.85-8.19
			c4.92-4.87,4.99-5.5,1.17-11.3c-2.08-3.16-2.25-6.1-0.5-8.74c0.73-1.1,1.88-2.56,3.49-2.55c1.83,0,3.94,1.89,4.72,2.53
			c2.88,2.34,5.69,5.11,7.44,8.94c0.31-0.97,0.22-1.87,0.12-2.86C52,35.5,43.59,27.9,33.84,27.9z"/>
		<path class="st0" d="M65.9,28.76L37.04,1.33c-1.87-1.78-4.8-1.78-6.67,0L1.51,28.76C0.55,29.67,0,30.95,0,32.27v47.54
			c0,2.25,1.53,4.19,3.72,4.71c2.07,0.49,5.33,1.07,9.22,1.07c6.12,0,13.78-1.43,20.76-6.88c11.42,8.92,24.67,7.07,29.98,5.81
			c2.19-0.52,3.72-2.45,3.72-4.71V32.27C67.4,30.95,66.86,29.67,65.9,28.76z M63.09,79.81c0,0.24-0.16,0.45-0.4,0.51
			c-4.64,1.1-16.13,2.71-26.03-4.79c2.9-2.7,5.55-5.61,7.96-8.74c2.94-3.83,5.45-7.87,5.54-13.64c0.27-5.28-3.97-8.4-8.03-11.43
			c-1.73-1.3-2.27,0.43-2.2,1.9c0.08,1.74,1.43,2.88,2.3,4.23c2.71,4.21,2.53,7.16-0.58,11.13c-2.87,3.66-6.64,6.24-10.35,8.93
			c-5.96,4.33-5.08,3.21-0.78,7.78C20.68,83,9.32,81.41,4.71,80.31c-0.23-0.06-0.4-0.26-0.4-0.51V32.27c0-0.14,0.06-0.28,0.16-0.38
			L33.34,4.46c0.1-0.1,0.23-0.14,0.36-0.14c0.13,0,0.26,0.05,0.36,0.14l28.86,27.43c0.1,0.1,0.16,0.24,0.16,0.38V79.81z"/>
	</g>
</g>
</svg>
