<svg id="Arte" xmlns="http://www.w3.org/2000/svg" viewBox="0 0 69.18 67.3"><defs><style>.cls-1{fill:#ef251b;}.cls-2{fill:none;}</style></defs><path class="cls-1" d="M34.51,66.59a32.95,32.95,0,1,1,33-32.89A33,33,0,0,1,34.51,66.59Zm0-63A30.07,30.07,0,1,0,64.63,33.63,30.11,30.11,0,0,0,34.52,3.58Z"/><path class="cls-2" d="M24.78,39.88a3,3,0,0,0,1.13,2.81q1.85,1.56,3.56,3.25c.67.67,1.3,1,2.16.4.05,0,.12,0,.17-.07a9.4,9.4,0,0,0,3.11-2,5.35,5.35,0,0,0,1.57-2.79c.28-1.79-.86-5.08-3.33-6a4,4,0,0,0-3.65.06c-.24.14-.49.24-.73.37a5.75,5.75,0,0,1-4,.87C24.77,37.87,24.86,38.88,24.78,39.88Z"/><path class="cls-2" d="M46.08,48.71c.4-2.61.86-5.21,1.26-7.82a9.16,9.16,0,0,0-.68-4.56,26.32,26.32,0,0,0-2.95-4.95c-2.39-3.78-4.82-7.53-7.21-11.3-1-1.52-1.88-3.08-2.82-4.62a2.39,2.39,0,0,0-.23-.26,4.16,4.16,0,0,0-1.09,2.17A6.07,6.07,0,0,0,33,21.9c1.2,2.12,2.48,4.19,3.73,6.28l.3.46a1,1,0,0,1,0,1.23,1.05,1.05,0,0,1-1.14.35c-1.29-.21-2.58-.49-3.88-.59a9,9,0,0,0-5.35,1c-1.21.7-2.31,1.61-3.57,2.49a17.19,17.19,0,0,0,1.5,1.35,2.37,2.37,0,0,0,2.49,0c.76-.34,1.47-.76,2.23-1.09a5.93,5.93,0,0,1,4.74.27A7.23,7.23,0,0,1,38,38a7.13,7.13,0,0,1,.46,4.08,7.35,7.35,0,0,1-1.76,3.31,12.11,12.11,0,0,1-5,3.17c-1.89.76-1.66.6-3.06-.6-1.55-1.34-3-2.76-4.54-4.15a3.82,3.82,0,0,1-1.37-3.54c.07-.56,0-1.15,0-1.72a1.26,1.26,0,0,0-.5-1.22c-.5-.38-1-.79-1.56-1.27-.24.89-.48,1.63-.63,2.39a15.86,15.86,0,0,0-.61,3.87,7.58,7.58,0,0,0,2.2,5.19c1.65,1.7,3.28,3.41,4.81,5.2a16.85,16.85,0,0,1,2,3.1q2.47,4.64,4.84,9.34c.61,0,1.22.06,1.84.06a31.17,31.17,0,0,0,10.31-1.76,17.71,17.71,0,0,1-.23-2.07A58.65,58.65,0,0,1,46.08,48.71Z"/><path class="cls-2" d="M66.32,34.07A31.16,31.16,0,1,0,30.89,64.93c-.46-.92-.94-1.82-1.41-2.73-1.18-2.32-2.43-4.61-3.71-6.88a13.13,13.13,0,0,0-1.63-2.1c-1.2-1.32-2.4-2.64-3.67-3.88a9.82,9.82,0,0,1-2.77-9.82c.31-1.38.66-2.75,1.08-4.1a1.78,1.78,0,0,1,1.47-1.48,6.06,6.06,0,0,1,.92,0c-.08-.14-.14-.28-.22-.41a1,1,0,0,1,.19-1.41,20.57,20.57,0,0,1,5.63-3.88,13.11,13.11,0,0,1,5.38-.74c.57,0,1.13.08,1.8.12-.51-.82-1-1.58-1.44-2.35a16.16,16.16,0,0,1-2.18-4.69A7.45,7.45,0,0,1,31.76,14a6.05,6.05,0,0,1,1.79-1.25c.47-.25,1,0,1.28.56.77,1.33,1.55,2.64,2.39,4.06.06-.2.1-.3.12-.4a6.4,6.4,0,0,1,1.25-2.83,4.45,4.45,0,0,1,3.88-1.63c1,0,1,0,1,1l.6,6.8c0,.1,0,.19.07.35a9.21,9.21,0,0,1,4.39-1c0,.95,0,1.92,0,2.89q-.09,5.1-.2,10.21c0,.21,0,.42,0,.63a5.74,5.74,0,0,0,.49,2.76,11.69,11.69,0,0,1,.39,6.45c-.74,4-1.38,8-1.73,12.08A55.35,55.35,0,0,0,47.27,61a8.89,8.89,0,0,0,.21,1.72A31.18,31.18,0,0,0,66.32,34.07Z"/><path class="cls-2" d="M44.41,23.26c.14,1.73.31,3.45.49,5.17a3.82,3.82,0,0,0,.24,1.27,14.14,14.14,0,0,0,1,1.58l.13,0c.08-3.08.21-6.15.18-9.35-.69.31-1.26.53-1.8.82A.64.64,0,0,0,44.41,23.26Z"/><path class="cls-2" d="M39.75,16.2a9.32,9.32,0,0,0-.52,4.22,1,1,0,0,0,.16.37q1.26,2,2.55,4c.14.23.31.45.47.68l.09,0c-.33-3.6-.66-7.19-1-10.82A2.43,2.43,0,0,0,39.75,16.2Z"/><path class="cls-1" d="M47.46,54.66c.35-4.06,1-8.08,1.73-12.08a11.69,11.69,0,0,0-.39-6.45,5.74,5.74,0,0,1-.49-2.76c0-.21,0-.42,0-.63q.11-5.12.2-10.21c0-1,0-1.94,0-2.89a9.21,9.21,0,0,0-4.39,1c0-.16-.06-.25-.07-.35l-.6-6.8c-.09-1-.08-.94-1-1a4.45,4.45,0,0,0-3.88,1.63,6.4,6.4,0,0,0-1.25,2.83c0,.1-.06.2-.12.4-.84-1.42-1.62-2.73-2.39-4.06-.31-.52-.81-.81-1.28-.56A6.05,6.05,0,0,0,31.76,14a7.45,7.45,0,0,0-1.43,6.65,16.16,16.16,0,0,0,2.18,4.69c.45.77.93,1.53,1.44,2.35-.67,0-1.23-.1-1.8-.12a13.11,13.11,0,0,0-5.38.74,20.57,20.57,0,0,0-5.63,3.88A1,1,0,0,0,21,33.57c.08.13.14.27.22.41a6.06,6.06,0,0,0-.92,0,1.78,1.78,0,0,0-1.47,1.48c-.42,1.35-.77,2.72-1.08,4.1a9.82,9.82,0,0,0,2.77,9.82c1.27,1.24,2.47,2.56,3.67,3.88a13.13,13.13,0,0,1,1.63,2.1c1.28,2.27,2.53,4.56,3.71,6.88.47.91.95,1.81,1.41,2.73q1.2.16,2.43.24Q31,60.46,28.48,55.83a16.85,16.85,0,0,0-2-3.1c-1.53-1.79-3.16-3.5-4.81-5.2a7.58,7.58,0,0,1-2.2-5.19,15.86,15.86,0,0,1,.61-3.87c.15-.76.39-1.5.63-2.39.59.48,1.06.89,1.56,1.27a1.26,1.26,0,0,1,.5,1.22c0,.57.05,1.16,0,1.72a3.82,3.82,0,0,0,1.37,3.54c1.51,1.39,3,2.81,4.54,4.15,1.4,1.2,1.17,1.36,3.06.6a12.11,12.11,0,0,0,5-3.17,7.35,7.35,0,0,0,1.76-3.31A7.13,7.13,0,0,0,38,38a7.23,7.23,0,0,0-4-4.38,5.93,5.93,0,0,0-4.74-.27c-.76.33-1.47.75-2.23,1.09a2.37,2.37,0,0,1-2.49,0,17.19,17.19,0,0,1-1.5-1.35c1.26-.88,2.36-1.79,3.57-2.49a9,9,0,0,1,5.35-1c1.3.1,2.59.38,3.88.59A1.05,1.05,0,0,0,37,29.87a1,1,0,0,0,0-1.23l-.3-.46C35.51,26.09,34.23,24,33,21.9a6.07,6.07,0,0,1-.67-4.53,4.16,4.16,0,0,1,1.09-2.17,2.39,2.39,0,0,1,.23.26c.94,1.54,1.85,3.1,2.82,4.62,2.39,3.77,4.82,7.52,7.21,11.3a26.32,26.32,0,0,1,2.95,4.95,9.16,9.16,0,0,1,.68,4.56c-.4,2.61-.86,5.21-1.26,7.82a58.65,58.65,0,0,0-.84,12.69,17.71,17.71,0,0,0,.23,2.07c.68-.24,1.36-.5,2-.78A8.89,8.89,0,0,1,47.27,61,55.35,55.35,0,0,1,47.46,54.66ZM28.77,35.94c.24-.13.49-.23.73-.37a4,4,0,0,1,3.65-.06c2.47.92,3.61,4.21,3.33,6a5.35,5.35,0,0,1-1.57,2.79,9.4,9.4,0,0,1-3.11,2c-.05,0-.12,0-.17.07-.86.63-1.49.27-2.16-.4q-1.71-1.69-3.56-3.25a3,3,0,0,1-1.13-2.81c.08-1,0-2,0-3.07A5.75,5.75,0,0,0,28.77,35.94ZM42.41,25.51c-.16-.23-.33-.45-.47-.68q-1.29-2-2.55-4a1,1,0,0,1-.16-.37,9.32,9.32,0,0,1,.52-4.22,2.43,2.43,0,0,1,1.76-1.55c.33,3.63.66,7.22,1,10.82Zm3.88,5.75-.13,0a14.14,14.14,0,0,1-1-1.58,3.82,3.82,0,0,1-.24-1.27c-.18-1.72-.35-3.44-.49-5.17a.64.64,0,0,1,.26-.53c.54-.29,1.11-.51,1.8-.82C46.5,25.11,46.37,28.18,46.29,31.26Z"/></svg>