<?xml version="1.0" encoding="utf-8"?>
<!-- Generator: Adobe Illustrator 25.0.1, SVG Export Plug-In . SVG Version: 6.00 Build 0)  -->
<svg version="1.1" xmlns="http://www.w3.org/2000/svg" xmlns:xlink="http://www.w3.org/1999/xlink" x="0px" y="0px"
	 viewBox="0 0 32.99 32.27" style="enable-background:new 0 0 32.99 32.27;" xml:space="preserve">
<style type="text/css">
	.st0{fill:#FFFFFF;}
	.st1{fill:#EF251B;}
	.st2{clip-path:url(#SVGID_2_);}
	.st3{opacity:0.6;}
	.st4{fill:none;stroke:#FFFFFF;stroke-width:0.6;stroke-miterlimit:10;}
	.st5{clip-path:url(#SVGID_14_);}
	.st6{opacity:0.69;fill:#FFFFFF;}
	.st7{fill:none;stroke:#000000;stroke-width:0.6;stroke-miterlimit:10;}
	.st8{fill:#48B577;}
	.st9{fill:none;stroke:#000000;stroke-width:0.7126;stroke-miterlimit:10;}
	.st10{fill:none;stroke:#000000;stroke-width:1.081;stroke-linecap:round;stroke-linejoin:round;stroke-miterlimit:10;}
	.st11{opacity:0.76;fill:#FFFFFF;}
	.st12{fill:none;stroke:#000000;stroke-width:1.4614;stroke-linecap:round;stroke-linejoin:round;stroke-miterlimit:10;}
	.st13{fill:none;stroke:#FFFFFF;stroke-width:3.4909;stroke-linecap:round;stroke-linejoin:round;stroke-miterlimit:10;}
	.st14{fill:none;stroke:#000000;stroke-width:0.5;stroke-miterlimit:10;}
	.st15{fill:none;stroke:#FFFFFF;stroke-width:0.7126;stroke-miterlimit:10;}
	.st16{fill:#FFD400;}
	.st17{fill:#141A7F;}
	.st18{fill:#D80A00;}
	.st19{clip-path:url(#SVGID_54_);}
	.st20{fill:#FFFFFF;stroke:#48B577;stroke-width:0.9214;stroke-miterlimit:10;}
	.st21{opacity:0.76;fill:#FFFFFF;stroke:#48B577;stroke-miterlimit:10;}
	.st22{opacity:0.76;fill:none;stroke:#000000;stroke-width:0.8296;stroke-miterlimit:10;}
	.st23{fill:none;stroke:#EF251B;stroke-width:2.3908;stroke-miterlimit:10;}
	.st24{fill:#DBDBDB;}
	.st25{fill-rule:evenodd;clip-rule:evenodd;fill:#EF251B;}
	.st26{fill-rule:evenodd;clip-rule:evenodd;fill:#FFFFFF;}
	.st27{fill:none;stroke:#000000;stroke-width:0.418;stroke-miterlimit:10;}
	.st28{fill:none;stroke:#E62C23;stroke-width:1.0624;stroke-miterlimit:10;}
	.st29{fill:none;stroke:#000000;stroke-width:0.5312;stroke-miterlimit:10;}
	.st30{fill:none;stroke:#E62C23;stroke-width:1.1168;stroke-miterlimit:10;}
	.st31{display:none;}
	.st32{display:inline;}
	.st33{fill:none;stroke:#000000;stroke-width:0.4774;stroke-miterlimit:10;}
	.st34{fill:none;stroke:#000000;stroke-width:0.4623;stroke-miterlimit:10;}
</style>
<g id="Arte">
	<g>
		<path class="st1" d="M8.44,11.53c0-2.55,0-5.1,0-7.65c0-1.14,0.42-2.1,1.27-2.87c1.15-1.04,2.5-1.26,3.91-0.75
			c1.37,0.49,2.19,1.54,2.48,2.98c0.04,0.22,0.05,0.46,0.03,0.69c-0.03,0.37-0.26,0.58-0.62,0.62c-0.36,0.04-0.69-0.18-0.77-0.54
			c-0.06-0.25-0.07-0.5-0.13-0.74c-0.25-1.03-1.19-1.81-2.22-1.86c-1.02-0.05-2.14,0.7-2.44,1.68c-0.1,0.32-0.14,0.68-0.14,1.02
			c-0.02,1.17-0.01,2.34,0,3.51c0,0.73,0.11,0.83,0.84,0.83c3.61,0.01,7.21,0,10.82,0c0.32,0,0.64,0.01,0.96,0
			c0.6-0.02,0.72-0.13,0.73-0.74c0.01-1.24,0.02-2.48,0-3.72c-0.02-1.51,0.62-2.65,1.89-3.45c1.62-1.03,4.02-0.53,5.09,1.07
			c0.41,0.62,0.73,1.27,0.72,2.04c-0.01,0.59-0.19,0.86-0.63,0.89c-0.42,0.03-0.69-0.25-0.75-0.79c-0.11-0.93-0.55-1.61-1.39-2.08
			c-1.45-0.82-3.23,0.36-3.46,1.64c-0.06,0.34-0.09,0.68-0.09,1.03c0,4.91,0,9.82,0,14.74c0,0.23,0.01,0.46-0.03,0.69
			c-0.06,0.36-0.32,0.57-0.66,0.58c-0.34,0-0.61-0.21-0.66-0.57c-0.03-0.25-0.01-0.5-0.02-0.76c-0.02-0.66-0.11-0.76-0.76-0.77
			c-0.8-0.01-1.61,0-2.41,0c-1.79-0.01-3.58-0.04-5.37-0.04c-1.38,0-2.75,0.03-4.13,0.05c-0.58,0.01-0.66,0.1-0.69,0.69
			c-0.01,0.27,0,0.55-0.03,0.82c-0.05,0.38-0.29,0.58-0.64,0.59c-0.35,0-0.61-0.2-0.68-0.56c-0.03-0.16-0.03-0.32-0.03-0.48
			C8.43,16.72,8.43,14.12,8.44,11.53C8.43,11.53,8.44,11.53,8.44,11.53z M16.46,16.85c0.16,0,0.32,0,0.48,0c1.83,0,3.67,0,5.5-0.01
			c0.62,0,0.71-0.09,0.72-0.72c0.01-0.41,0.01-0.83,0-1.24c-0.01-0.78-0.1-0.86-0.88-0.86c-2.06,0-4.12,0-6.18,0
			c-1.81,0-3.62,0-5.43,0c-0.76,0-0.85,0.1-0.87,0.88c0,0.32,0,0.64,0,0.96c0.01,0.96,0.03,0.98,0.95,0.98
			C12.66,16.86,14.56,16.85,16.46,16.85z M23.04,9.89c-0.21-0.01-0.34-0.03-0.48-0.03c-4,0-7.99,0-11.99,0
			c-0.09,0-0.18,0.01-0.28,0.01c-0.32-0.01-0.47,0.18-0.47,0.47c-0.01,0.6-0.02,1.2,0,1.79c0.02,0.41,0.14,0.49,0.57,0.51
			c0.11,0.01,0.23,0,0.34,0c2.62,0,5.24,0.01,7.86,0.01c1.28,0,2.57,0,3.85-0.01c0.63,0,0.7-0.08,0.72-0.72
			c0.01-0.44,0.03-0.87,0.01-1.31C23.17,10.36,23.09,10.13,23.04,9.89z"/>
		<path class="st1" d="M26.73,32.25c-0.83,0-1.66-0.49-2.36-1.23c-0.35-0.37-0.67-0.75-1.01-1.13c-0.95-1.06-2.27-1.07-3.23-0.02
			c-0.34,0.37-0.65,0.77-0.99,1.14c-1.54,1.64-3.62,1.67-5.21,0.07c-0.36-0.36-0.67-0.75-1-1.13c-1.04-1.19-2.4-1.15-3.41,0.05
			c-0.56,0.66-1.08,1.37-1.87,1.8c-1.13,0.61-2.25,0.62-3.34-0.02c-0.46-0.27-0.84-0.69-1.24-1.07c-0.29-0.29-0.54-0.62-0.82-0.93
			c-0.37-0.41-0.82-0.65-1.38-0.68c-0.07,0-0.14-0.01-0.21-0.02C0.21,29-0.03,28.72,0.01,28.33c0.03-0.34,0.3-0.6,0.72-0.61
			c0.88-0.02,1.68,0.24,2.31,0.89c0.42,0.43,0.81,0.87,1.2,1.32c0.39,0.45,0.85,0.78,1.44,0.87c0.73,0.1,1.36-0.14,1.85-0.69
			c0.4-0.44,0.81-0.87,1.2-1.33c1.08-1.26,3.25-1.44,4.5-0.44c0.36,0.28,0.67,0.63,0.98,0.96c0.3,0.31,0.57,0.67,0.89,0.96
			c0.83,0.76,1.9,0.78,2.74,0.03c0.41-0.37,0.75-0.8,1.11-1.22c0.57-0.66,1.24-1.15,2.13-1.3c1.24-0.2,2.32,0.1,3.19,1.03
			c0.36,0.39,0.71,0.78,1.06,1.18c0.97,1.12,2.36,1.14,3.34,0.04c0.4-0.44,0.78-0.9,1.2-1.33c0.6-0.63,1.35-0.94,2.21-0.97
			c0.21-0.01,0.47,0.05,0.64,0.17c0.4,0.27,0.34,0.86-0.08,1.08c-0.16,0.08-0.35,0.1-0.53,0.13c-0.54,0.08-1.01,0.31-1.37,0.72
			c-0.34,0.37-0.66,0.77-0.99,1.15C29.02,31.79,27.95,32.28,26.73,32.25z"/>
		<path class="st1" d="M27,26.67c-1.15,0.06-1.96-0.51-2.68-1.26c-0.36-0.38-0.7-0.79-1.05-1.18c-0.83-0.9-2.05-0.96-2.93-0.11
			c-0.45,0.43-0.84,0.91-1.25,1.38c-1.43,1.61-3.82,1.6-5.26-0.05c-0.36-0.41-0.72-0.84-1.1-1.23c-0.93-0.96-2.17-0.92-3.07,0.07
			c-0.35,0.39-0.69,0.8-1.05,1.18c-0.48,0.51-1.03,1-1.71,1.09c-0.62,0.08-1.28,0.24-1.93,0c-0.69-0.25-1.25-0.66-1.74-1.19
			c-0.36-0.39-0.71-0.78-1.05-1.19c-0.33-0.39-0.76-0.58-1.25-0.64c-0.11-0.01-0.23-0.01-0.34-0.04C0.2,23.41-0.03,23.1,0,22.76
			c0.03-0.31,0.3-0.62,0.65-0.6c0.49,0.04,1.02,0.09,1.46,0.29c0.75,0.35,1.33,0.95,1.81,1.63c0.33,0.47,0.72,0.86,1.32,1.05
			c0.89,0.28,1.63,0.07,2.26-0.57c0.42-0.42,0.82-0.87,1.19-1.33c0.97-1.18,3.23-1.52,4.56-0.43c0.46,0.37,0.82,0.86,1.25,1.27
			c0.34,0.34,0.66,0.72,1.07,0.95c0.75,0.42,1.52,0.33,2.18-0.24c0.43-0.38,0.79-0.83,1.17-1.26c0.51-0.58,1.08-1.06,1.85-1.26
			c1.36-0.35,2.54-0.04,3.53,0.97c0.34,0.34,0.63,0.72,0.95,1.09c0.43,0.51,0.95,0.87,1.63,0.92c0.81,0.07,1.4-0.35,1.9-0.93
			c0.36-0.41,0.71-0.84,1.1-1.23c0.62-0.63,1.39-0.96,2.28-0.96c0.5,0,0.79,0.24,0.81,0.65c0.02,0.41-0.22,0.68-0.74,0.72
			c-0.64,0.05-1.14,0.31-1.55,0.79c-0.3,0.35-0.6,0.7-0.91,1.03C29.02,26.15,28.15,26.76,27,26.67z"/>
		<path class="st1" d="M2.29,9.86c-0.48,0-0.96,0.02-1.44-0.01C0.64,9.84,0.4,9.76,0.24,9.62C-0.18,9.25-0.03,8.67,0.51,8.5
			C0.6,8.47,0.69,8.46,0.78,8.46c1,0,2.01,0,3.01,0c0.33,0,0.58,0.14,0.7,0.45C4.6,9.21,4.5,9.48,4.29,9.66
			C4.16,9.77,3.97,9.84,3.8,9.85C3.3,9.87,2.8,9.85,2.29,9.86C2.29,9.86,2.29,9.86,2.29,9.86z"/>
		<path class="st1" d="M30.7,9.86c-0.48,0-0.96,0.01-1.44,0c-0.47-0.01-0.77-0.26-0.8-0.66c-0.03-0.41,0.25-0.72,0.72-0.73
			c1.01-0.02,2.01-0.02,3.02,0c0.5,0.01,0.79,0.28,0.79,0.68c0,0.38-0.3,0.68-0.78,0.71C31.7,9.88,31.2,9.86,30.7,9.86z"/>
	</g>
</g>
<g id="Guias" class="st31">
</g>
</svg>
