<?xml version="1.0" encoding="utf-8"?>
<!-- Generator: Adobe Illustrator 25.0.1, SVG Export Plug-In . SVG Version: 6.00 Build 0)  -->
<svg version="1.1" xmlns="http://www.w3.org/2000/svg" xmlns:xlink="http://www.w3.org/1999/xlink" x="0px" y="0px"
	 viewBox="0 0 58.6 27" style="enable-background:new 0 0 58.6 27;" xml:space="preserve">
<style type="text/css">
	.st0{fill:#FFFFFF;}
	.st1{fill:#EF251B;}
	.st2{clip-path:url(#SVGID_2_);}
	.st3{opacity:0.6;}
	.st4{fill:none;stroke:#FFFFFF;stroke-width:0.6;stroke-miterlimit:10;}
	.st5{clip-path:url(#SVGID_14_);}
	.st6{opacity:0.69;fill:#FFFFFF;}
	.st7{fill:none;stroke:#000000;stroke-width:0.6;stroke-miterlimit:10;}
	.st8{fill:#48B577;}
	.st9{fill:none;stroke:#000000;stroke-width:0.7126;stroke-miterlimit:10;}
	.st10{fill:none;stroke:#000000;stroke-width:1.081;stroke-linecap:round;stroke-linejoin:round;stroke-miterlimit:10;}
	.st11{opacity:0.76;fill:#FFFFFF;}
	.st12{fill:none;stroke:#000000;stroke-width:1.4614;stroke-linecap:round;stroke-linejoin:round;stroke-miterlimit:10;}
	.st13{fill:none;stroke:#FFFFFF;stroke-width:3.4909;stroke-linecap:round;stroke-linejoin:round;stroke-miterlimit:10;}
	.st14{fill:none;stroke:#000000;stroke-width:0.5;stroke-miterlimit:10;}
	.st15{fill:none;stroke:#FFFFFF;stroke-width:0.7126;stroke-miterlimit:10;}
	.st16{fill:#FFD400;}
	.st17{fill:#141A7F;}
	.st18{fill:#D80A00;}
	.st19{clip-path:url(#SVGID_54_);}
	.st20{fill:#FFFFFF;stroke:#48B577;stroke-width:0.9214;stroke-miterlimit:10;}
	.st21{opacity:0.76;fill:#FFFFFF;stroke:#48B577;stroke-miterlimit:10;}
	.st22{opacity:0.76;fill:none;stroke:#000000;stroke-width:0.8296;stroke-miterlimit:10;}
	.st23{fill:none;stroke:#EF251B;stroke-width:2.3908;stroke-miterlimit:10;}
	.st24{fill:#DBDBDB;}
	.st25{fill-rule:evenodd;clip-rule:evenodd;fill:#EF251B;}
	.st26{fill-rule:evenodd;clip-rule:evenodd;fill:#FFFFFF;}
	.st27{fill:none;stroke:#000000;stroke-width:0.418;stroke-miterlimit:10;}
	.st28{fill:none;stroke:#E62C23;stroke-width:1.0624;stroke-miterlimit:10;}
	.st29{fill:none;stroke:#000000;stroke-width:0.5312;stroke-miterlimit:10;}
	.st30{fill:none;stroke:#E62C23;stroke-width:1.1168;stroke-miterlimit:10;}
	.st31{display:none;}
	.st32{display:inline;}
	.st33{fill:none;stroke:#000000;stroke-width:0.4774;stroke-miterlimit:10;}
	.st34{fill:none;stroke:#000000;stroke-width:0.4623;stroke-miterlimit:10;}
</style>
<g id="Arte">
	<g>
		<path class="st1" d="M0,17.4c0.24-1.04,0.62-2,1.41-2.75c0.99-0.95,2.19-1.33,3.54-1.34c0.95,0,1.9,0,2.9,0
			c0.08-0.36,0.14-0.72,0.24-1.05c0.64-2.01,2.3-3.29,4.44-3.31c3.58-0.03,7.17-0.04,10.75,0c2.38,0.02,4.16,1.58,4.6,3.91
			c0.02,0.13,0.05,0.26,0.08,0.42c0.88,0,1.75,0,2.6,0c0.2-0.61,0.33-1.26,0.62-1.82c0.86-1.64,2.28-2.5,4.12-2.51
			c3.58-0.04,7.17-0.04,10.75,0c2.38,0.03,4.13,1.57,4.58,3.92c0.02,0.13,0.05,0.26,0.09,0.45c0.97,0,1.94,0,2.91,0
			c1.61,0.01,3,0.53,3.99,1.86c1.07,1.43,1.27,3.02,0.56,4.64c-0.71,1.61-2,2.56-3.78,2.74c-0.38,0.04-0.76,0.06-1.19,0.09
			c0,0.86,0,1.72,0,2.57c0,0.23,0.01,0.46-0.01,0.69c-0.08,0.66-0.57,1.12-1.17,1.1c-0.61-0.02-1.07-0.49-1.09-1.17
			c-0.02-0.84-0.01-1.68-0.01-2.52c0-0.21,0-0.41,0-0.66c-14.43,0-28.81,0-43.25,0c0,0.94,0,1.87,0,2.8c0,0.23,0,0.46-0.05,0.68
			C7.5,26.64,7.04,26.99,6.54,27c-0.5,0.01-0.98-0.33-1.08-0.85c-0.08-0.44-0.07-0.91-0.08-1.36c-0.01-0.7,0-1.41,0-2.15
			c-0.36-0.03-0.67-0.05-0.99-0.07c-2.27-0.2-3.82-1.57-4.31-3.82C0.07,18.68,0.03,18.61,0,18.54C0,18.16,0,17.78,0,17.4z
			 M29.33,14.77c-8.05,0-16.1,0-24.14,0c-0.34,0-0.69,0.01-1.03,0.07c-2.27,0.36-3.41,2.9-2.17,4.83c0.74,1.14,1.86,1.47,3.16,1.47
			c16.1-0.01,32.19,0,48.29-0.01c0.3,0,0.61-0.02,0.91-0.06c2.1-0.25,3.38-2.5,2.48-4.41c-0.64-1.36-1.78-1.9-3.25-1.9
			C45.5,14.78,37.41,14.77,29.33,14.77z M26.41,13.27c0-1.54-1.42-2.85-3.14-2.86c-3.56-0.02-7.13-0.03-10.69,0.01
			c-0.56,0.01-1.18,0.19-1.68,0.46c-0.91,0.49-1.42,1.31-1.52,2.39C15.1,13.27,20.75,13.27,26.41,13.27z M32.18,13.27
			c5.67,0,11.33,0,17,0c-0.07-1.56-1.41-2.82-3.05-2.85c-1.96-0.03-3.92-0.01-5.89-0.01c-1.7,0-3.39-0.02-5.09,0.02
			C33.55,10.46,32.21,11.77,32.18,13.27z"/>
		<path class="st1" d="M52.88,1.5c-15.77,0-31.44,0-47.17,0c0,0.23,0,0.43,0,0.64c0,2.84,0,5.68,0,8.52c0,0.19,0.06,0.43-0.04,0.56
			c-0.19,0.25-0.44,0.56-0.7,0.61c-0.39,0.07-0.66-0.23-0.72-0.65c-0.02-0.15-0.01-0.3-0.01-0.46c0-3.2,0-6.41,0-9.61
			C4.23,0.22,4.44,0,5.33,0c15.98,0,31.96,0,47.94,0c0.86,0,1.08,0.22,1.08,1.08c0,3.43,0,6.86,0,10.3c0,0.17,0.04,0.39-0.05,0.5
			c-0.18,0.21-0.43,0.5-0.66,0.5c-0.23,0.01-0.52-0.25-0.68-0.47c-0.12-0.16-0.08-0.44-0.08-0.67c0-3.03,0-6.06,0-9.1
			C52.88,1.95,52.88,1.74,52.88,1.5z"/>
	</g>
</g>
<g id="Guias" class="st31">
</g>
</svg>
