<?xml version="1.0" encoding="utf-8"?>
<!-- Generator: Adobe Illustrator 25.0.1, SVG Export Plug-In . SVG Version: 6.00 Build 0)  -->
<svg version="1.1" xmlns="http://www.w3.org/2000/svg" xmlns:xlink="http://www.w3.org/1999/xlink" x="0px" y="0px"
	 viewBox="0 0 27.25 31.92" style="enable-background:new 0 0 27.25 31.92;" xml:space="preserve">
<style type="text/css">
	.st0{fill:#FFFFFF;}
	.st1{fill:#EF251B;}
	.st2{clip-path:url(#SVGID_2_);}
	.st3{opacity:0.6;}
	.st4{fill:none;stroke:#FFFFFF;stroke-width:0.6;stroke-miterlimit:10;}
	.st5{clip-path:url(#SVGID_14_);}
	.st6{opacity:0.69;fill:#FFFFFF;}
	.st7{fill:none;stroke:#000000;stroke-width:0.6;stroke-miterlimit:10;}
	.st8{fill:#48B577;}
	.st9{fill:none;stroke:#000000;stroke-width:0.7126;stroke-miterlimit:10;}
	.st10{fill:none;stroke:#000000;stroke-width:1.081;stroke-linecap:round;stroke-linejoin:round;stroke-miterlimit:10;}
	.st11{opacity:0.76;fill:#FFFFFF;}
	.st12{fill:none;stroke:#000000;stroke-width:1.4614;stroke-linecap:round;stroke-linejoin:round;stroke-miterlimit:10;}
	.st13{fill:none;stroke:#FFFFFF;stroke-width:3.4909;stroke-linecap:round;stroke-linejoin:round;stroke-miterlimit:10;}
	.st14{fill:none;stroke:#000000;stroke-width:0.5;stroke-miterlimit:10;}
	.st15{fill:none;stroke:#FFFFFF;stroke-width:0.7126;stroke-miterlimit:10;}
	.st16{fill:#FFD400;}
	.st17{fill:#141A7F;}
	.st18{fill:#D80A00;}
	.st19{clip-path:url(#SVGID_54_);}
	.st20{fill:#FFFFFF;stroke:#48B577;stroke-width:0.9214;stroke-miterlimit:10;}
	.st21{opacity:0.76;fill:#FFFFFF;stroke:#48B577;stroke-miterlimit:10;}
	.st22{opacity:0.76;fill:none;stroke:#000000;stroke-width:0.8296;stroke-miterlimit:10;}
	.st23{fill:none;stroke:#EF251B;stroke-width:2.3908;stroke-miterlimit:10;}
	.st24{fill:#DBDBDB;}
	.st25{fill-rule:evenodd;clip-rule:evenodd;fill:#EF251B;}
	.st26{fill-rule:evenodd;clip-rule:evenodd;fill:#FFFFFF;}
	.st27{fill:none;stroke:#000000;stroke-width:0.418;stroke-miterlimit:10;}
	.st28{fill:none;stroke:#E62C23;stroke-width:1.0624;stroke-miterlimit:10;}
	.st29{fill:none;stroke:#000000;stroke-width:0.5312;stroke-miterlimit:10;}
	.st30{fill:none;stroke:#E62C23;stroke-width:1.1168;stroke-miterlimit:10;}
	.st31{display:none;}
	.st32{display:inline;}
	.st33{fill:none;stroke:#000000;stroke-width:0.4774;stroke-miterlimit:10;}
	.st34{fill:none;stroke:#000000;stroke-width:0.4623;stroke-miterlimit:10;}
</style>
<g id="Arte">
	<g>
		<g>
			<path class="st1" d="M2.87,31.92l0-12.82l-2.07,2L0,20.08L13.65,6.7l13.6,13.38l-0.82,1.05l-1.94-1.81l0,12.6H2.87z M13.65,8.8
				c-0.16,0-0.32,0.05-0.45,0.17c0,0-0.15,0.12-0.19,0.17c0,0-6.32,6.2-8.56,8.39c-0.28,0.27-0.41,0.59-0.41,0.98
				c0.01,1.1,0,2.2,0,3.31l0,7.79c0,0.08,0.01,0.16,0.02,0.24c0.04,0.35,0.35,0.7,0.7,0.7h17.85c0.39,0,0.7-0.31,0.7-0.7v-2.4
				c0-2.94,0-5.88,0.01-8.83c0-0.4-0.14-0.73-0.43-1.02C21.04,15.77,14.14,9,14.14,9C14.01,8.87,13.83,8.8,13.65,8.8z"/>
			<path class="st1" d="M3.84,14.31c0-1.21-0.01-4.41,0.03-5.63c0.03-1.08,0.3-2.15,0.8-3.2c0.28-0.58,0.57-1.11,0.88-1.58
				c0.57-0.86,1.29-1.58,2.14-2.16c1.04-0.71,2.17-1.2,3.35-1.45C11.93,0.1,12.77,0,13.61,0c0.29,0,0.59,0.01,0.89,0.04
				c1.24,0.1,2.33,0.35,3.32,0.76c1.38,0.57,2.54,1.43,3.47,2.58c0.99,1.23,1.65,2.66,1.95,4.25c0.09,0.46,0.13,0.93,0.14,1.4
				c0.01,1.08,0.01,4.01,0.01,5.09l0,0.1c0,0-1.32-1.25-1.68-1.6c0,0,0.03-3.33-0.02-4.02c-0.07-1.04-0.4-2.06-1-3.09
				c-0.38-0.66-0.77-1.29-1.37-1.81c-0.85-0.73-1.84-1.3-2.96-1.7c-0.87-0.31-1.77-0.47-2.69-0.47c-0.74,0-1.49,0.1-2.24,0.31
				c-1.04,0.28-2.05,0.79-3.01,1.51C6.9,4.47,5.96,6.08,5.64,8.13c-0.1,0.64-0.12,4.42-0.13,4.69c-0.56,0.53-1.11,1.06-1.67,1.59
				V14.31z"/>
			<path class="st1" d="M13.02,24.89L13.02,24.89c0-0.91,0-1.79-0.01-2.68c0-0.27-0.12-0.56-0.32-0.76
				c-0.36-0.37-0.5-0.88-0.36-1.36c0.13-0.46,0.48-0.79,0.96-0.9c0.13-0.03,0.25-0.04,0.37-0.04c0.47,0,0.85,0.23,1.12,0.68
				c0.28,0.47,0.2,1.18-0.16,1.55c-0.27,0.28-0.4,0.6-0.4,0.99c0.01,0.79,0.01,1.59,0.01,2.39v0.14H13.02z"/>
		</g>
		<path class="st1" d="M12.33,25.59c0-1.14,0-2.26-0.01-3.37c0-0.09-0.05-0.21-0.12-0.28c-1.13-1.15-0.62-3.07,0.94-3.44
			c0.88-0.21,1.73,0.09,2.25,0.95c0.44,0.74,0.33,1.8-0.27,2.4c-0.15,0.15-0.2,0.29-0.2,0.49c0.01,1.07,0,2.14,0,3.24
			C14.09,25.59,13.18,25.59,12.33,25.59z"/>
	</g>
</g>
<g id="Guias" class="st31">
</g>
</svg>
