<?xml version="1.0" encoding="utf-8"?>
<!-- Generator: Adobe Illustrator 25.0.1, SVG Export Plug-In . SVG Version: 6.00 Build 0)  -->
<svg version="1.1" xmlns="http://www.w3.org/2000/svg" xmlns:xlink="http://www.w3.org/1999/xlink" x="0px" y="0px"
	 viewBox="0 0 35.62 35.53" style="enable-background:new 0 0 35.62 35.53;" xml:space="preserve">
<style type="text/css">
	.st0{fill:#FFFFFF;}
	.st1{fill:#EF251B;}
	.st2{clip-path:url(#SVGID_2_);}
	.st3{opacity:0.6;}
	.st4{fill:none;stroke:#FFFFFF;stroke-width:0.6;stroke-miterlimit:10;}
	.st5{clip-path:url(#SVGID_14_);}
	.st6{opacity:0.69;fill:#FFFFFF;}
	.st7{fill:none;stroke:#000000;stroke-width:0.6;stroke-miterlimit:10;}
	.st8{fill:#48B577;}
	.st9{fill:none;stroke:#000000;stroke-width:0.7126;stroke-miterlimit:10;}
	.st10{fill:none;stroke:#000000;stroke-width:1.081;stroke-linecap:round;stroke-linejoin:round;stroke-miterlimit:10;}
	.st11{opacity:0.76;fill:#FFFFFF;}
	.st12{fill:none;stroke:#000000;stroke-width:1.4614;stroke-linecap:round;stroke-linejoin:round;stroke-miterlimit:10;}
	.st13{fill:none;stroke:#FFFFFF;stroke-width:3.4909;stroke-linecap:round;stroke-linejoin:round;stroke-miterlimit:10;}
	.st14{fill:none;stroke:#000000;stroke-width:0.5;stroke-miterlimit:10;}
	.st15{fill:none;stroke:#FFFFFF;stroke-width:0.7126;stroke-miterlimit:10;}
	.st16{fill:#FFD400;}
	.st17{fill:#141A7F;}
	.st18{fill:#D80A00;}
	.st19{clip-path:url(#SVGID_54_);}
	.st20{fill:#FFFFFF;stroke:#48B577;stroke-width:0.9214;stroke-miterlimit:10;}
	.st21{opacity:0.76;fill:#FFFFFF;stroke:#48B577;stroke-miterlimit:10;}
	.st22{opacity:0.76;fill:none;stroke:#000000;stroke-width:0.8296;stroke-miterlimit:10;}
	.st23{fill:none;stroke:#EF251B;stroke-width:2.3908;stroke-miterlimit:10;}
	.st24{fill:#DBDBDB;}
	.st25{fill-rule:evenodd;clip-rule:evenodd;fill:#EF251B;}
	.st26{fill-rule:evenodd;clip-rule:evenodd;fill:#FFFFFF;}
	.st27{fill:none;stroke:#000000;stroke-width:0.418;stroke-miterlimit:10;}
	.st28{fill:none;stroke:#E62C23;stroke-width:1.0624;stroke-miterlimit:10;}
	.st29{fill:none;stroke:#000000;stroke-width:0.5312;stroke-miterlimit:10;}
	.st30{fill:none;stroke:#E62C23;stroke-width:1.1168;stroke-miterlimit:10;}
	.st31{display:none;}
	.st32{display:inline;}
	.st33{fill:none;stroke:#000000;stroke-width:0.4774;stroke-miterlimit:10;}
	.st34{fill:none;stroke:#000000;stroke-width:0.4623;stroke-miterlimit:10;}
</style>
<g id="Arte">
	<g>
		<path class="st1" d="M26.31,17.77c0,4.66-3.77,8.44-8.43,8.45c-4.67,0.01-8.45-3.79-8.46-8.47c-0.01-4.03,3.04-8.35,8.46-8.36
			C23.17,9.38,26.34,13.63,26.31,17.77z M17.89,11.02c-3.74-0.01-6.75,2.97-6.78,6.71c-0.02,3.76,2.97,6.79,6.73,6.8
			c3.76,0.01,6.77-2.99,6.78-6.75C24.62,14.03,21.62,11.03,17.89,11.02z"/>
		<path class="st1" d="M32.18,18.61c-0.81,0-1.62,0-2.43,0c-0.63,0-1.02-0.32-1.03-0.83c-0.01-0.51,0.39-0.86,1-0.86
			c1.63,0,3.26,0,4.9,0c0.62,0,1.01,0.34,1,0.85c-0.01,0.51-0.39,0.83-1.02,0.83C33.79,18.62,32.98,18.61,32.18,18.61z"/>
		<path class="st1" d="M3.47,16.93c0.82,0,1.65-0.01,2.47,0c0.58,0.01,0.96,0.36,0.95,0.86c-0.01,0.49-0.38,0.82-0.94,0.82
			c-1.68,0.01-3.36,0.01-5.03,0C0.36,18.61,0,18.27,0,17.77c0-0.5,0.35-0.84,0.91-0.85C1.76,16.92,2.61,16.93,3.47,16.93z"/>
		<path class="st1" d="M18.71,32.12c0,0.81,0,1.62,0,2.43c0,0.59-0.33,0.97-0.83,0.98c-0.5,0.01-0.85-0.37-0.85-0.96
			c-0.01-1.62,0-3.24,0-4.86c0-0.59,0.33-0.97,0.83-0.99c0.49-0.01,0.84,0.38,0.85,0.96C18.71,30.5,18.71,31.31,18.71,32.12z"/>
		<path class="st1" d="M18.71,3.38c0,0.79,0,1.59,0,2.38c0,0.64-0.31,1.02-0.83,1.03c-0.52,0.01-0.85-0.38-0.85-1
			c0-1.59,0-3.17,0-4.76c0-0.63,0.32-1.01,0.83-1.03c0.53-0.01,0.85,0.38,0.85,1.05C18.71,1.83,18.71,2.6,18.71,3.38z"/>
		<path class="st1" d="M26.09,25.16c0.3,0.16,0.56,0.23,0.72,0.4c1.22,1.2,2.43,2.41,3.64,3.62c0.36,0.37,0.36,0.87,0.02,1.21
			c-0.34,0.33-0.84,0.33-1.21-0.04c-1.22-1.2-2.42-2.42-3.63-3.63c-0.26-0.27-0.39-0.6-0.19-0.93
			C25.59,25.54,25.86,25.38,26.09,25.16z"/>
		<path class="st1" d="M10.47,26.08c-0.18,0.29-0.27,0.53-0.44,0.7c-1.17,1.19-2.35,2.36-3.53,3.54c-0.4,0.4-0.89,0.41-1.24,0.06
			c-0.35-0.35-0.33-0.84,0.06-1.24c1.19-1.19,2.38-2.38,3.57-3.57c0.28-0.28,0.63-0.43,0.97-0.2
			C10.09,25.53,10.25,25.82,10.47,26.08z"/>
		<path class="st1" d="M5.8,4.84c0.3,0.17,0.55,0.25,0.72,0.41c1.21,1.19,2.41,2.39,3.6,3.59c0.37,0.37,0.38,0.87,0.06,1.21
			c-0.33,0.35-0.86,0.35-1.24-0.03c-1.2-1.19-2.4-2.4-3.6-3.6C5.06,6.15,4.93,5.8,5.14,5.46C5.29,5.22,5.56,5.06,5.8,4.84z"/>
		<path class="st1" d="M26.09,10.41c-0.23-0.19-0.53-0.35-0.68-0.6c-0.2-0.33-0.09-0.69,0.19-0.97c1.02-1.02,2.04-2.04,3.07-3.07
			c0.2-0.2,0.39-0.41,0.6-0.59c0.36-0.31,0.81-0.31,1.14,0c0.34,0.32,0.38,0.82,0.04,1.17c-1.23,1.25-2.47,2.49-3.73,3.73
			C26.59,10.21,26.38,10.26,26.09,10.41z"/>
	</g>
</g>
<g id="Guias" class="st31">
</g>
</svg>
