<svg id="Arte" xmlns="http://www.w3.org/2000/svg" viewBox="0 0 50.04 50.04"><defs><style>.cls-1{fill:none;stroke:#ef251b;stroke-miterlimit:10;}.cls-2{fill:#ef251b;}</style></defs><circle class="cls-1" cx="25.02" cy="25.02" r="24.52"/><path class="cls-2" d="M32.9,38.86a3.86,3.86,0,0,1-1.06-2.93c0-2.42,0-4.84,0-7.27,0-.44.16-.65.5-.65a.45.45,0,0,1,.48.39,2,2,0,0,1,0,.43V36.3a2.5,2.5,0,0,0,5,.43,1.8,1.8,0,0,0,0-.4V30.1a1,1,0,0,0-1.12-1.16c-.63,0-1.26,0-1.89,0-.4,0-.62-.18-.62-.49s.21-.5.62-.5h2a2,2,0,0,1,2,1.91c0,2.22,0,4.44,0,6.66a3.5,3.5,0,0,1-3.36,3.35H16.21a3.53,3.53,0,0,1-3.71-3.69V11.9a2,2,0,0,1,2.16-2.17H30.77a2,2,0,0,1,2.07,1.91c0,.37-.15.57-.45.59s-.49-.15-.55-.51a1,1,0,0,0-1.16-1h-16a1,1,0,0,0-1.15,1.15q0,12.22,0,24.46A2.49,2.49,0,0,0,16,38.86H32.9Z"/><path class="cls-2" d="M24.13,20a6.6,6.6,0,1,1,6.53,6.58A6.59,6.59,0,0,1,24.13,20Zm6.56,5.57A5.59,5.59,0,1,0,25.13,20,5.6,5.6,0,0,0,30.69,25.61Z"/><path class="cls-2" d="M22.66,34.66h-5c-.12,0-.28,0-.36,0s-.33-.31-.33-.47.19-.35.34-.46.29,0,.43,0h10a1.8,1.8,0,0,1,.4,0,.45.45,0,0,1,.4.5.46.46,0,0,1-.41.46,1.83,1.83,0,0,1-.33,0Z"/><path class="cls-2" d="M22.66,29.39H17.72a2.3,2.3,0,0,1-.37,0,.46.46,0,0,1-.44-.47.49.49,0,0,1,.43-.52H27.79a1.22,1.22,0,0,1,.27,0,.48.48,0,0,1,.39.52.47.47,0,0,1-.41.46,2.3,2.3,0,0,1-.37,0Z"/><path class="cls-2" d="M19.52,18.08c-.66,0-1.32,0-2,0-.41,0-.65-.2-.64-.52s.24-.49.64-.49h4c.41,0,.66.21.65.52s-.25.49-.64.49C20.87,18.09,20.2,18.08,19.52,18.08Z"/><path class="cls-2" d="M19.55,22.72h2c.38,0,.62.21.62.52a.53.53,0,0,1-.6.49h-4.1c-.36,0-.59-.21-.58-.51s.23-.49.6-.5Z"/><path class="cls-2" d="M31.24,21.16a.57.57,0,0,0-.43-.58l-.39-.12a1.52,1.52,0,0,1-1.21-1.4,1.58,1.58,0,0,1,.85-1.65.42.42,0,0,0,.15-.26c.05-.33.22-.51.51-.5s.44.19.5.48a.54.54,0,0,0,.23.32,1.55,1.55,0,0,1,.77,1.2.53.53,0,0,1-.43.62.51.51,0,0,1-.57-.49.5.5,0,0,0-.48-.5.45.45,0,0,0-.5.36.61.61,0,0,0,.24.77c.21.09.43.14.64.21A1.52,1.52,0,0,1,32.22,21a1.56,1.56,0,0,1-1,1.66A.5.5,0,0,0,31,23a.48.48,0,0,1-.51.43.45.45,0,0,1-.47-.47.54.54,0,0,0-.26-.49,1.39,1.39,0,0,1-.56-1,.52.52,0,0,1,.41-.63c.28-.06.52.13.58.47s.15.5.44.5a1,1,0,0,0,.49-.25C31.22,21.44,31.21,21.28,31.24,21.16Z"/></svg>