<?xml version="1.0" encoding="utf-8"?>
<!-- Generator: Adobe Illustrator 25.0.1, SVG Export Plug-In . SVG Version: 6.00 Build 0)  -->
<svg version="1.1" xmlns="http://www.w3.org/2000/svg" xmlns:xlink="http://www.w3.org/1999/xlink" x="0px" y="0px"
	 viewBox="0 0 37.09 35.48" style="enable-background:new 0 0 37.09 35.48;" xml:space="preserve">
<style type="text/css">
	.st0{fill:#FFFFFF;}
	.st1{fill:#EF251B;}
	.st2{clip-path:url(#SVGID_2_);}
	.st3{opacity:0.6;}
	.st4{fill:none;stroke:#FFFFFF;stroke-width:0.6;stroke-miterlimit:10;}
	.st5{clip-path:url(#SVGID_14_);}
	.st6{opacity:0.69;fill:#FFFFFF;}
	.st7{fill:none;stroke:#000000;stroke-width:0.6;stroke-miterlimit:10;}
	.st8{fill:#48B577;}
	.st9{fill:none;stroke:#000000;stroke-width:0.7126;stroke-miterlimit:10;}
	.st10{fill:none;stroke:#000000;stroke-width:1.081;stroke-linecap:round;stroke-linejoin:round;stroke-miterlimit:10;}
	.st11{opacity:0.76;fill:#FFFFFF;}
	.st12{fill:none;stroke:#000000;stroke-width:1.4614;stroke-linecap:round;stroke-linejoin:round;stroke-miterlimit:10;}
	.st13{fill:none;stroke:#FFFFFF;stroke-width:3.4909;stroke-linecap:round;stroke-linejoin:round;stroke-miterlimit:10;}
	.st14{fill:none;stroke:#000000;stroke-width:0.5;stroke-miterlimit:10;}
	.st15{fill:none;stroke:#FFFFFF;stroke-width:0.7126;stroke-miterlimit:10;}
	.st16{fill:#FFD400;}
	.st17{fill:#141A7F;}
	.st18{fill:#D80A00;}
	.st19{clip-path:url(#SVGID_54_);}
	.st20{fill:#FFFFFF;stroke:#48B577;stroke-width:0.9214;stroke-miterlimit:10;}
	.st21{opacity:0.76;fill:#FFFFFF;stroke:#48B577;stroke-miterlimit:10;}
	.st22{opacity:0.76;fill:none;stroke:#000000;stroke-width:0.8296;stroke-miterlimit:10;}
	.st23{fill:none;stroke:#EF251B;stroke-width:2.3908;stroke-miterlimit:10;}
	.st24{fill:#DBDBDB;}
	.st25{fill-rule:evenodd;clip-rule:evenodd;fill:#EF251B;}
	.st26{fill-rule:evenodd;clip-rule:evenodd;fill:#FFFFFF;}
	.st27{fill:none;stroke:#000000;stroke-width:0.418;stroke-miterlimit:10;}
	.st28{fill:none;stroke:#E62C23;stroke-width:1.0624;stroke-miterlimit:10;}
	.st29{fill:none;stroke:#000000;stroke-width:0.5312;stroke-miterlimit:10;}
	.st30{fill:none;stroke:#E62C23;stroke-width:1.1168;stroke-miterlimit:10;}
	.st31{display:none;}
	.st32{display:inline;}
	.st33{fill:none;stroke:#000000;stroke-width:0.4774;stroke-miterlimit:10;}
	.st34{fill:none;stroke:#000000;stroke-width:0.4623;stroke-miterlimit:10;}
</style>
<g id="Arte">
	<g>
		<path class="st1" d="M32.22,14.29c1.06,1.16,0.98,2.8-0.21,3.86c0.63,0.45,1.26,0.9,1.89,1.34c0.69,0.49,1.37,0.97,2.06,1.46
			c1.52,1.08,1.51,3.21-0.01,4.28c-4.57,3.23-9.14,6.45-13.71,9.68c-1.06,0.75-2.16,0.76-3.22,0.01c-5.96-4.2-11.93-8.4-17.89-12.61
			C0.38,21.79,0,21.06,0,20.15c0-1.32,0-2.64,0-3.97c0-0.61,0.17-1.15,0.54-1.63c0.1-0.12,0.09-0.2,0.02-0.34
			c-0.42-0.79-0.64-1.61-0.4-2.5c0.16-0.6,0.51-1.08,1.02-1.44c2.28-1.61,4.56-3.22,6.83-4.83c2.31-1.63,4.61-3.26,6.92-4.88
			c1.05-0.74,2.15-0.75,3.2-0.01c4.58,3.23,9.16,6.46,13.74,9.69c1.35,0.96,1.54,2.68,0.43,3.93
			C32.28,14.21,32.25,14.25,32.22,14.29z M33.02,25.76c0.05-0.01,0.07-0.01,0.08-0.02c0.72-0.51,1.45-1.01,2.17-1.53
			c0.81-0.58,0.81-1.66-0.01-2.24c-1.36-0.97-2.73-1.94-4.09-2.91c-0.17-0.12-0.28-0.14-0.47-0.01c-4.05,2.87-8.11,5.74-12.17,8.6
			c-0.8,0.56-1.68,0.81-2.65,0.65c-0.73-0.12-1.37-0.44-1.96-0.86c-2.51-1.78-5.03-3.56-7.54-5.35c-1.12-0.79-2.24-1.59-3.36-2.38
			c-0.25-0.18-0.34-0.43-0.27-0.69c0.07-0.24,0.3-0.45,0.55-0.43c0.17,0.01,0.35,0.08,0.49,0.18c2.33,1.64,4.65,3.29,6.98,4.94
			c1.34,0.95,2.68,1.92,4.04,2.85c1.17,0.8,2.09,0.76,3.23-0.05c3.08-2.17,6.15-4.35,9.23-6.52c1.29-0.91,2.58-1.82,3.87-2.73
			c0.7-0.5,0.8-1.43,0.24-2.05c-0.13-0.14-0.23-0.15-0.38-0.03c-0.69,0.5-1.38,0.99-2.08,1.47c-0.14,0.1-0.35,0.15-0.52,0.14
			c-0.26-0.02-0.43-0.2-0.49-0.46c-0.06-0.28,0.06-0.5,0.29-0.66c1.01-0.71,2.02-1.42,3.03-2.14c0.8-0.57,0.8-1.68-0.01-2.25
			c-4.57-3.23-9.14-6.45-13.71-9.68C16.79,1.1,16.29,1.11,15.6,1.6c-3.04,2.15-6.08,4.3-9.13,6.44c-1.49,1.05-2.97,2.1-4.46,3.14
			c-0.3,0.21-0.54,0.47-0.67,0.82c-0.17,0.49,0.16,1.66,0.67,2.02c3.14,2.25,6.25,4.53,9.38,6.8c0.6,0.43,1.2,0.86,1.79,1.3
			c0.3,0.22,0.35,0.58,0.14,0.86c-0.2,0.27-0.55,0.33-0.85,0.14c-0.05-0.03-0.1-0.07-0.15-0.1c-3.28-2.38-6.55-4.76-9.83-7.15
			c-0.3-0.22-0.61-0.44-0.92-0.66c-0.25,0.28-0.36,0.59-0.36,0.94c0,1.3,0.01,2.61,0,3.91c-0.01,0.57,0.22,0.98,0.68,1.3
			c4.58,3.22,9.16,6.45,13.74,9.68c1.37,0.97,2.75,1.94,4.13,2.9c0.53,0.37,1.1,0.4,1.59,0.06c0.59-0.41,1.17-0.84,1.73-1.29
			c0.78-0.64,0.77-1.55,0.01-2.2c-0.3-0.25-0.35-0.61-0.12-0.89c0.21-0.26,0.57-0.3,0.88-0.08c0.39,0.29,0.68,0.65,0.85,1.11
			c0.09,0.26,0.15,0.54,0.23,0.82c0.03-0.02,0.07-0.03,0.11-0.06c0.71-0.52,1.44-1.02,2.14-1.56c0.77-0.6,0.76-1.56,0.01-2.18
			c-0.3-0.25-0.36-0.61-0.15-0.88c0.22-0.28,0.59-0.32,0.91-0.07c0.46,0.35,0.77,0.8,0.92,1.36c0.05,0.17,0.07,0.35,0.12,0.58
			c0.83-0.62,1.65-1.2,2.44-1.81c0.27-0.21,0.38-0.55,0.38-0.9c0.01-0.47-0.2-0.84-0.56-1.13c-0.31-0.24-0.35-0.6-0.13-0.88
			c0.21-0.27,0.57-0.3,0.87-0.08c0.12,0.09,0.23,0.18,0.33,0.29C32.73,24.6,32.95,25.14,33.02,25.76z"/>
		<path class="st1" d="M16.32,23.3c0,0.12,0,0.19,0,0.26c-0.02,0.37-0.27,0.63-0.62,0.62c-0.35,0-0.6-0.26-0.61-0.63
			c-0.01-0.62-0.12-1.21-0.36-1.78c-0.34-0.79-0.88-1.42-1.58-1.93C9.98,17.57,6.81,15.28,3.63,13c-0.03-0.02-0.06-0.04-0.08-0.06
			c-0.36-0.27-0.45-0.62-0.23-0.93c0.22-0.3,0.58-0.33,0.95-0.06c0.57,0.4,1.13,0.81,1.69,1.22c2.23,1.61,4.47,3.22,6.7,4.83
			c0.53,0.38,1.07,0.74,1.57,1.16C15.56,20.23,16.23,21.66,16.32,23.3z"/>
		<path class="st1" d="M17.81,23.19c0.12-0.16,0.2-0.36,0.36-0.46c1.81-1.29,3.64-2.58,5.46-3.86c0.34-0.24,0.69-0.48,1.03-0.72
			c0.33-0.23,0.7-0.2,0.91,0.09c0.22,0.3,0.13,0.67-0.21,0.91c-1.81,1.28-3.61,2.55-5.42,3.83c-0.37,0.26-0.74,0.53-1.12,0.78
			c-0.21,0.15-0.44,0.15-0.66,0.02C17.96,23.66,17.87,23.47,17.81,23.19z"/>
	</g>
</g>
<g id="Guias" class="st31">
</g>
</svg>
