<?xml version="1.0" encoding="utf-8"?>
<!-- Generator: Adobe Illustrator 25.0.1, SVG Export Plug-In . SVG Version: 6.00 Build 0)  -->
<svg version="1.1" xmlns="http://www.w3.org/2000/svg" xmlns:xlink="http://www.w3.org/1999/xlink" x="0px" y="0px"
	 viewBox="0 0 29.79 25.97" style="enable-background:new 0 0 29.79 25.97;" xml:space="preserve">
<style type="text/css">
	.st0{fill:#FFFFFF;}
	.st1{fill:#EF251B;}
	.st2{clip-path:url(#SVGID_2_);}
	.st3{opacity:0.6;}
	.st4{fill:none;stroke:#FFFFFF;stroke-width:0.6;stroke-miterlimit:10;}
	.st5{clip-path:url(#SVGID_14_);}
	.st6{opacity:0.69;fill:#FFFFFF;}
	.st7{fill:none;stroke:#000000;stroke-width:0.6;stroke-miterlimit:10;}
	.st8{fill:#48B577;}
	.st9{fill:none;stroke:#000000;stroke-width:0.7126;stroke-miterlimit:10;}
	.st10{fill:none;stroke:#000000;stroke-width:1.081;stroke-linecap:round;stroke-linejoin:round;stroke-miterlimit:10;}
	.st11{opacity:0.76;fill:#FFFFFF;}
	.st12{fill:none;stroke:#000000;stroke-width:1.4614;stroke-linecap:round;stroke-linejoin:round;stroke-miterlimit:10;}
	.st13{fill:none;stroke:#FFFFFF;stroke-width:3.4909;stroke-linecap:round;stroke-linejoin:round;stroke-miterlimit:10;}
	.st14{fill:none;stroke:#000000;stroke-width:0.5;stroke-miterlimit:10;}
	.st15{fill:none;stroke:#FFFFFF;stroke-width:0.7126;stroke-miterlimit:10;}
	.st16{fill:#FFD400;}
	.st17{fill:#141A7F;}
	.st18{fill:#D80A00;}
	.st19{clip-path:url(#SVGID_54_);}
	.st20{fill:#FFFFFF;stroke:#48B577;stroke-width:0.9214;stroke-miterlimit:10;}
	.st21{opacity:0.76;fill:#FFFFFF;stroke:#48B577;stroke-miterlimit:10;}
	.st22{opacity:0.76;fill:none;stroke:#000000;stroke-width:0.8296;stroke-miterlimit:10;}
	.st23{fill:none;stroke:#EF251B;stroke-width:2.3908;stroke-miterlimit:10;}
	.st24{fill:#DBDBDB;}
	.st25{fill-rule:evenodd;clip-rule:evenodd;fill:#EF251B;}
	.st26{fill-rule:evenodd;clip-rule:evenodd;fill:#FFFFFF;}
	.st27{fill:none;stroke:#000000;stroke-width:0.418;stroke-miterlimit:10;}
	.st28{fill:none;stroke:#E62C23;stroke-width:1.0624;stroke-miterlimit:10;}
	.st29{fill:none;stroke:#000000;stroke-width:0.5312;stroke-miterlimit:10;}
	.st30{fill:none;stroke:#E62C23;stroke-width:1.1168;stroke-miterlimit:10;}
	.st31{display:none;}
	.st32{display:inline;}
	.st33{fill:none;stroke:#000000;stroke-width:0.4774;stroke-miterlimit:10;}
	.st34{fill:none;stroke:#000000;stroke-width:0.4623;stroke-miterlimit:10;}
</style>
<g id="Arte">
	<g>
		<path class="st1" d="M14.88,0.01c4.35,0,8.7,0.01,13.05-0.01c0.65,0,1.2,0.13,1.54,0.72c0.13,0.22,0.22,0.48,0.28,0.74
			c0.05,0.22,0.02,0.45,0.02,0.68c0,4.22,0,8.45,0,12.67c0,1.51-0.03,3.02,0.02,4.53c0.03,0.97-0.6,1.92-1.88,1.88
			c-1.94-0.06-3.88-0.02-5.83-0.01c-0.17,0-0.33,0-0.5,0.01c-0.22,0.01-0.35,0.14-0.35,0.35c-0.02,0.87-0.05,1.74-0.04,2.61
			c0,0.34,0.16,0.47,0.52,0.48c0.72,0.01,1.45,0,2.17,0.01c0.08,0,0.17,0,0.25,0c0.55,0.01,0.89,0.26,0.88,0.66
			c0,0.4-0.33,0.65-0.89,0.65c-1.57-0.01-3.14-0.04-4.72-0.04c-1.64,0-3.27,0.03-4.91,0.04c-2.86,0.01-5.72,0-8.57,0
			c-0.21,0-0.42,0-0.62-0.03c-0.33-0.06-0.57-0.36-0.55-0.65c0.02-0.28,0.3-0.59,0.6-0.62c0.25-0.02,0.5-0.01,0.75-0.01
			c0.64,0,1.28,0.01,1.93,0c0.43-0.01,0.51-0.08,0.52-0.51c0.02-0.79,0.02-1.57,0.01-2.36c-0.01-0.51-0.07-0.57-0.58-0.58
			c-1.95-0.01-3.89-0.01-5.84-0.01c-0.23,0-0.46,0.01-0.68-0.01c-0.79-0.08-1.37-0.67-1.44-1.46c-0.01-0.16-0.01-0.33-0.01-0.5
			C0,13.46,0.01,7.68,0,1.91c0-0.49,0.08-0.94,0.4-1.34c0.26-0.32,0.59-0.52,1-0.55C1.65,0,1.9,0.01,2.14,0.01
			C6.39,0.01,10.63,0.01,14.88,0.01z M14.91,1.25c-4.23,0-8.45,0-12.68,0c-0.92,0-0.93,0-0.93,0.93c0,5.59,0,11.19,0,16.78
			c0,0.99,0,1,1,1c6.59,0,13.18,0,19.76,0c1.88,0,3.75,0,5.63,0c0.72,0,0.77-0.04,0.77-0.78c0-1.07,0-2.15,0-3.22
			c0-4.66,0-9.32,0-13.98c0-0.68-0.04-0.71-0.7-0.72c-0.1,0-0.21,0-0.31,0C23.28,1.25,19.09,1.25,14.91,1.25z M14.85,24.66
			C14.85,24.67,14.85,24.67,14.85,24.66c1.49,0,2.98,0.01,4.47,0c0.54,0,0.61-0.07,0.62-0.61c0.02-0.74,0.02-1.49,0-2.23
			c-0.01-0.54-0.08-0.61-0.62-0.61c-2.94,0-5.88,0-8.81,0c-0.61,0-0.68,0.07-0.69,0.67c-0.01,0.7-0.01,1.41,0,2.11
			c0.01,0.63,0.05,0.67,0.68,0.67C11.95,24.67,13.4,24.66,14.85,24.66z"/>
		<path class="st1" d="M16.95,6.7c0.06,0.04,0.22,0.1,0.31,0.22c0.14,0.18,0.24,0.39,0.33,0.59c0.54,1.25,1.07,2.51,1.6,3.77
			c0.04,0.1,0.07,0.2,0.12,0.29c0.2,0.36,0.44,0.37,0.63-0.01c0.26-0.54,0.49-1.09,0.73-1.64c0.38-0.89,0.75-1.79,1.15-2.68
			c0.09-0.19,0.24-0.42,0.42-0.49c0.18-0.07,0.46-0.03,0.63,0.07c0.22,0.13,0.29,0.41,0.2,0.66c-0.15,0.41-0.31,0.81-0.48,1.21
			c-0.66,1.56-1.33,3.12-2,4.67c-0.1,0.23-0.22,0.45-0.31,0.67c-0.12,0.29-0.31,0.5-0.64,0.5c-0.37,0-0.54-0.25-0.67-0.56
			c-0.33-0.78-0.66-1.56-1-2.34c-0.54-1.25-1.09-2.5-1.63-3.76c-0.07-0.15-0.14-0.3-0.17-0.46C16.08,6.99,16.41,6.65,16.95,6.7z"/>
		<path class="st1" d="M10.84,7.95c-0.02,0.3-0.05,0.53-0.05,0.75c-0.01,1.59,0,3.19-0.01,4.78c0,0.21,0,0.42-0.05,0.61
			c-0.09,0.32-0.35,0.48-0.66,0.44c-0.3-0.04-0.49-0.21-0.52-0.52c-0.02-0.18-0.02-0.37-0.02-0.56c0-1.53,0-3.06,0-4.59
			c0-0.14,0.01-0.29-0.01-0.43c-0.04-0.38-0.11-0.47-0.5-0.48c-0.48-0.02-0.95,0-1.43-0.01c-0.18,0-0.38-0.02-0.55-0.08
			C6.75,7.75,6.66,7.5,6.69,7.2c0.03-0.28,0.19-0.46,0.47-0.5C7.3,6.68,7.45,6.68,7.6,6.68c1.7,0,3.39,0,5.09,0
			c0.16,0,0.33,0.01,0.49,0.04c0.26,0.06,0.43,0.24,0.45,0.52c0.02,0.28-0.11,0.5-0.36,0.59c-0.21,0.08-0.44,0.1-0.66,0.1
			C12.03,7.95,11.46,7.95,10.84,7.95z"/>
	</g>
</g>
<g id="Guias" class="st31">
</g>
</svg>
