<svg xmlns="http://www.w3.org/2000/svg" xmlns:xlink="http://www.w3.org/1999/xlink" viewBox="0 0 45.37 45.37"><defs><style>.cls-1,.cls-6,.cls-7{fill:none;}.cls-2{clip-path:url(#clip-path);}.cls-3{clip-path:url(#clip-path-2);}.cls-4{fill:#42c553;}.cls-5{fill:#fff;fill-rule:evenodd;}.cls-6,.cls-7{stroke:#000;stroke-miterlimit:10;}.cls-6{stroke-width:0.48px;}.cls-7{stroke-width:0.46px;}</style><clipPath id="clip-path"><rect class="cls-1" x="-1046.71" y="465.97" width="2046.55" height="915.39"/></clipPath><clipPath id="clip-path-2"><rect class="cls-1" x="-19.35" y="69.91" width="1019.2" height="534.01"/></clipPath></defs><g id="Arte"><g class="cls-2"><g class="cls-3"><image width="6000" height="4002" transform="translate(-35.23 -25.13) scale(0.18)" xlink:href="../Dropbox/Cuentas/Aloja%20Colombia/Sitio/Imagenes/white-chairs-table-beach.jpg"/></g></g><rect class="cls-4" width="45.37" height="45.37" rx="7.93"/><path class="cls-5" d="M23.11,7.76A14.59,14.59,0,0,0,10.85,30.24L8.64,35.12a1.27,1.27,0,0,0,1.16,1.8,1.37,1.37,0,0,0,.34,0l6.1-1.68A14.58,14.58,0,1,0,23.11,7.76Zm0,26.62a12,12,0,0,1-6.06-1.64,1.21,1.21,0,0,0-1-.13l-4,1.09,1.39-3.06a1.26,1.26,0,0,0-.13-1.27,12,12,0,1,1,9.77,5Z"/><path class="cls-5" d="M28.71,24.52a2.48,2.48,0,0,0-2.12-.47c-.55.22-.91,1.09-1.26,1.53a.55.55,0,0,1-.69.15,9.63,9.63,0,0,1-4.8-4.12.59.59,0,0,1,.07-.8,3.3,3.3,0,0,0,.88-1.42,3.2,3.2,0,0,0-.39-1.68,4,4,0,0,0-1.24-1.86,1.69,1.69,0,0,0-1.84.27,3.74,3.74,0,0,0-1.3,3,3.67,3.67,0,0,0,.12.94A7.85,7.85,0,0,0,17,22.1,15.32,15.32,0,0,0,18,23.53a14.63,14.63,0,0,0,4.08,3.8,13.24,13.24,0,0,0,2.55,1.21,5.6,5.6,0,0,0,3,.46,3.59,3.59,0,0,0,2.69-2,1.8,1.8,0,0,0,.13-1C30.23,25.28,29.28,24.86,28.71,24.52Z"/></g><g id="Guias"><rect class="cls-6" x="-1042.67" y="-4465.03" width="2040" height="4935.36"/><rect class="cls-7" x="-622.67" y="-4465.03" width="1200" height="4935.36"/></g></svg>