<?xml version="1.0" encoding="utf-8"?>
<!-- Generator: Adobe Illustrator 25.0.1, SVG Export Plug-In . SVG Version: 6.00 Build 0)  -->
<svg version="1.1" xmlns="http://www.w3.org/2000/svg" xmlns:xlink="http://www.w3.org/1999/xlink" x="0px" y="0px"
	 viewBox="0 0 30.38 25.28" style="enable-background:new 0 0 30.38 25.28;" xml:space="preserve">
<style type="text/css">
	.st0{fill:#FFFFFF;}
	.st1{fill:#EF251B;}
	.st2{clip-path:url(#SVGID_2_);}
	.st3{opacity:0.6;}
	.st4{fill:none;stroke:#FFFFFF;stroke-width:0.6;stroke-miterlimit:10;}
	.st5{clip-path:url(#SVGID_14_);}
	.st6{opacity:0.69;fill:#FFFFFF;}
	.st7{fill:none;stroke:#000000;stroke-width:0.6;stroke-miterlimit:10;}
	.st8{fill:#48B577;}
	.st9{fill:none;stroke:#000000;stroke-width:0.7126;stroke-miterlimit:10;}
	.st10{fill:none;stroke:#000000;stroke-width:1.081;stroke-linecap:round;stroke-linejoin:round;stroke-miterlimit:10;}
	.st11{opacity:0.76;fill:#FFFFFF;}
	.st12{fill:none;stroke:#000000;stroke-width:1.4614;stroke-linecap:round;stroke-linejoin:round;stroke-miterlimit:10;}
	.st13{fill:none;stroke:#FFFFFF;stroke-width:3.4909;stroke-linecap:round;stroke-linejoin:round;stroke-miterlimit:10;}
	.st14{fill:none;stroke:#000000;stroke-width:0.5;stroke-miterlimit:10;}
	.st15{fill:none;stroke:#FFFFFF;stroke-width:0.7126;stroke-miterlimit:10;}
	.st16{fill:#FFD400;}
	.st17{fill:#141A7F;}
	.st18{fill:#D80A00;}
	.st19{clip-path:url(#SVGID_54_);}
	.st20{fill:#FFFFFF;stroke:#48B577;stroke-width:0.9214;stroke-miterlimit:10;}
	.st21{opacity:0.76;fill:#FFFFFF;stroke:#48B577;stroke-miterlimit:10;}
	.st22{opacity:0.76;fill:none;stroke:#000000;stroke-width:0.8296;stroke-miterlimit:10;}
	.st23{fill:none;stroke:#EF251B;stroke-width:2.3908;stroke-miterlimit:10;}
	.st24{fill:#DBDBDB;}
	.st25{fill-rule:evenodd;clip-rule:evenodd;fill:#EF251B;}
	.st26{fill-rule:evenodd;clip-rule:evenodd;fill:#FFFFFF;}
	.st27{fill:none;stroke:#000000;stroke-width:0.418;stroke-miterlimit:10;}
	.st28{fill:none;stroke:#E62C23;stroke-width:1.0624;stroke-miterlimit:10;}
	.st29{fill:none;stroke:#000000;stroke-width:0.5312;stroke-miterlimit:10;}
	.st30{fill:none;stroke:#E62C23;stroke-width:1.1168;stroke-miterlimit:10;}
	.st31{display:none;}
	.st32{display:inline;}
	.st33{fill:none;stroke:#000000;stroke-width:0.4774;stroke-miterlimit:10;}
	.st34{fill:none;stroke:#000000;stroke-width:0.4623;stroke-miterlimit:10;}
</style>
<g id="Arte">
	<g>
		<path class="st1" d="M0.72,7.9c-0.18,0-0.35-0.08-0.5-0.22C-0.17,7.3,0.02,6.82,0.32,6.5c3.6-3.8,8.04-5.96,13.21-6.42l0.27-0.03
			c0.21-0.02,0.41-0.04,0.62-0.05C14.52,0,14.61,0,14.7,0l0.48,0c5.51,0.09,10.31,2.05,14.25,5.84c0.24,0.23,0.46,0.47,0.68,0.71
			c0.35,0.41,0.37,0.83,0.04,1.14c-0.15,0.14-0.31,0.21-0.48,0.21c-0.22,0-0.45-0.11-0.67-0.32L28.6,7.21
			c-0.6-0.57-1.21-1.16-1.87-1.7c-1.86-1.52-4.05-2.64-6.52-3.33C18.6,1.73,16.93,1.5,15.26,1.5c-1.02,0-2.06,0.08-3.08,0.25
			C8.05,2.43,4.43,4.38,1.42,7.54C1.2,7.77,0.95,7.9,0.72,7.9z"/>
		<path class="st1" d="M5.13,12.78c-0.15,0-0.29-0.06-0.42-0.17c-0.3-0.27-0.33-0.77-0.05-1.09c1-1.18,2.2-2.18,3.58-2.97
			c2.17-1.25,4.5-1.88,6.91-1.88c4,0.08,7.43,1.58,10.22,4.46c0.46,0.48,0.58,0.7,0.53,1c-0.08,0.44-0.28,0.56-0.45,0.61
			c-0.1,0.03-0.19,0.04-0.27,0.04c-0.12,0-0.29-0.03-0.49-0.25c-2.08-2.29-4.57-3.69-7.41-4.15c-0.75-0.12-1.49-0.18-2.21-0.18
			c-3.34,0-6.35,1.31-8.96,3.9c-0.07,0.07-0.14,0.15-0.21,0.23c-0.05,0.05-0.1,0.11-0.15,0.16C5.55,12.67,5.33,12.78,5.13,12.78z"/>
		<path class="st1" d="M9.17,17.65c-0.03,0-0.12,0-0.27-0.12c-0.17-0.13-0.27-0.31-0.29-0.52c-0.03-0.23,0.05-0.46,0.21-0.67
			c1.27-1.6,2.85-2.6,4.7-2.97c0.61-0.12,1.21-0.19,1.79-0.19c2.36,0,4.46,1.05,6.25,3.13c0.08,0.09,0.14,0.27,0.18,0.41
			c0.01,0.02,0.01,0.05,0.02,0.07c-0.03,0.65-0.24,0.74-0.4,0.81c-0.08,0.03-0.14,0.05-0.2,0.05c-0.05,0-0.21,0-0.55-0.38
			c-1.48-1.67-3.4-2.58-5.41-2.58c-1.99,0-3.9,0.9-5.38,2.53C9.56,17.49,9.33,17.65,9.17,17.65z"/>
		<path class="st1" d="M15.19,25.28c-0.76-0.01-1.47-0.31-2-0.85c-0.53-0.54-0.82-1.25-0.81-2.01c0.02-1.52,1.28-2.76,2.8-2.76
			c0.79,0.01,1.49,0.32,2.03,0.86c0.52,0.54,0.8,1.23,0.79,1.95c-0.02,1.52-1.3,2.81-2.79,2.81H15.19z"/>
	</g>
</g>
<g id="Guias" class="st31">
</g>
</svg>
